<?xml version="1.0" encoding="UTF-8"?>
<!DOCTYPE svg PUBLIC "-//W3C//DTD SVG 1.1//EN" "http://www.w3.org/Graphics/SVG/1.1/DTD/svg11.dtd">
<svg xmlns="http://www.w3.org/2000/svg" version="1.1" width="512px" height="512px" style="shape-rendering:geometricPrecision; text-rendering:geometricPrecision; image-rendering:optimizeQuality; fill-rule:evenodd; clip-rule:evenodd" xmlns:xlink="http://www.w3.org/1999/xlink">
<g><path style="opacity:0.987" fill="#ef3428" d="M 172.5,-0.5 C 176.833,-0.5 181.167,-0.5 185.5,-0.5C 242.372,38.8636 298.872,78.8636 355,119.5C 361.162,129.998 358.996,138.165 348.5,144C 331.882,145.425 315.215,145.925 298.5,145.5C 298.333,162.837 298.5,180.17 299,197.5C 302.827,200.327 305.494,203.993 307,208.5C 312.939,203.448 319.439,199.281 326.5,196C 332.886,194.791 338.886,195.791 344.5,199C 396.833,236 449.167,273 501.5,310C 505.74,312.738 509.074,316.238 511.5,320.5C 511.5,324.167 511.5,327.833 511.5,331.5C 509.181,336.64 505.181,339.806 499.5,341C 483.837,341.5 468.17,341.667 452.5,341.5C 452.333,359.17 452.5,376.836 453,394.5C 456.035,396.879 458.369,399.879 460,403.5C 460.5,410.826 460.666,418.159 460.5,425.5C 479.989,428.344 488.656,439.677 486.5,459.5C 498.824,460.805 507.157,467.138 511.5,478.5C 511.5,485.833 511.5,493.167 511.5,500.5C 508.833,505.167 505.167,508.833 500.5,511.5C 388.5,511.5 276.5,511.5 164.5,511.5C 158.45,509.275 154.617,504.942 153,498.5C 150.205,485.497 153.372,474.33 162.5,465C 167.301,461.677 172.635,459.844 178.5,459.5C 176.224,440.136 184.557,428.803 203.5,425.5C 203.144,417.762 203.644,410.095 205,402.5C 206.25,399.084 208.417,396.417 211.5,394.5C 212.332,383.849 212.832,373.182 213,362.5C 214.41,359.211 216.91,357.544 220.5,357.5C 224.972,357.975 227.972,360.308 229.5,364.5C 229.5,373.833 229.5,383.167 229.5,392.5C 235.5,392.5 241.5,392.5 247.5,392.5C 247.5,375.167 247.5,357.833 247.5,340.5C 238.651,340.174 229.984,340.507 221.5,341.5C 221.167,341.5 220.833,341.5 220.5,341.5C 200.766,341.963 181.099,341.463 161.5,340C 151.783,333.636 150.116,325.636 156.5,316C 108.167,315.667 59.8333,315.333 11.5,315C 6.0678,313.064 2.0678,309.564 -0.5,304.5C -0.5,297.167 -0.5,289.833 -0.5,282.5C 3.52188,270.641 11.8552,264.307 24.5,263.5C 22.3505,243.672 31.0171,232.339 50.5,229.5C 50.3337,222.159 50.5003,214.826 51,207.5C 52.188,203.79 54.3547,200.79 57.5,198.5C 58.3323,188.183 58.8323,177.849 59,167.5C 60.5642,163.64 63.3975,161.64 67.5,161.5C 71.5616,161.724 74.395,163.724 76,167.5C 76.4998,176.827 76.6665,186.161 76.5,195.5C 82.1667,195.5 87.8333,195.5 93.5,195.5C 93.5,178.5 93.5,161.5 93.5,144.5C 84.6506,144.174 75.9839,144.507 67.5,145.5C 49.4969,145.667 31.4969,145.5 13.5,145C 6.87437,144.534 2.20771,141.367 -0.5,135.5C -0.5,131.5 -0.5,127.5 -0.5,123.5C 2.63866,119.53 6.30533,116.03 10.5,113C 64.4241,74.8848 118.424,37.0515 172.5,-0.5 Z M 110.5,145.5 C 124.5,145.5 138.5,145.5 152.5,145.5C 152.833,163.179 152.5,180.846 151.5,198.5C 147.981,200.52 145.814,203.52 145,207.5C 144.5,214.826 144.334,222.159 144.5,229.5C 136.167,229.5 127.833,229.5 119.5,229.5C 119.666,222.492 119.5,215.492 119,208.5C 117.491,203.991 114.824,200.324 111,197.5C 110.5,180.17 110.333,162.837 110.5,145.5 Z M 204.5,145.5 C 218.5,145.5 232.5,145.5 246.5,145.5C 246.833,163.179 246.5,180.846 245.5,198.5C 242.417,200.417 240.25,203.084 239,206.5C 237.689,214.105 237.189,221.772 237.5,229.5C 229.5,229.5 221.5,229.5 213.5,229.5C 213.863,221.429 213.363,213.429 212,205.5C 210.039,202.537 207.706,199.871 205,197.5C 204.5,180.17 204.333,162.837 204.5,145.5 Z M 264.5,341.5 C 278.5,341.5 292.5,341.5 306.5,341.5C 306.833,359.179 306.5,376.846 305.5,394.5C 301.518,397.122 299.018,400.789 298,405.5C 297.5,412.158 297.334,418.825 297.5,425.5C 289.5,425.5 281.5,425.5 273.5,425.5C 273.811,417.772 273.311,410.105 272,402.5C 270.541,399.244 268.374,396.577 265.5,394.5C 264.5,376.846 264.167,359.179 264.5,341.5 Z M 358.5,341.5 C 372.5,341.5 386.5,341.5 400.5,341.5C 400.833,359.179 400.5,376.846 399.5,394.5C 395.656,396.842 393.156,400.175 392,404.5C 391.5,411.492 391.334,418.492 391.5,425.5C 383.167,425.5 374.833,425.5 366.5,425.5C 366.666,418.159 366.5,410.826 366,403.5C 364.862,399.552 362.529,396.552 359,394.5C 358.5,376.836 358.333,359.17 358.5,341.5 Z"/></g>
<g><path style="opacity:1" fill="#f9bfbb" d="M 176.5,16.5 C 180.14,17.15 183.473,18.65 186.5,21C 235.991,56.5789 285.657,91.9122 335.5,127C 230.833,127.667 126.167,127.667 21.5,127C 73.6255,90.6917 125.292,53.8584 176.5,16.5 Z"/></g>
<g><path style="opacity:0.958" fill="#ef3327" d="M 336.5,50.5 C 358.169,50.3334 379.836,50.5 401.5,51C 422.355,55.521 435.855,68.021 442,88.5C 443.26,105.456 443.927,122.456 444,139.5C 447.5,136 451,132.5 454.5,129C 462.471,125.265 467.471,127.599 469.5,136C 469.091,138.321 468.257,140.487 467,142.5C 458.167,151.333 449.333,160.167 440.5,169C 436.833,171 433.167,171 429.5,169C 420,159.5 410.5,150 401,140.5C 400.105,128.193 405.272,124.693 416.5,130C 419.333,132.833 422.167,135.667 425,138.5C 425.667,124.167 425.667,109.833 425,95.5C 421.5,81.3333 412.667,72.5 398.5,69C 378.5,68.6667 358.5,68.3333 338.5,68C 329.997,63.1347 329.33,57.3013 336.5,50.5 Z"/></g>
<g><path style="opacity:0.996" fill="#fefdfd" d="M 67.5,161.5 C 67.5,156.167 67.5,150.833 67.5,145.5C 75.9839,144.507 84.6506,144.174 93.5,144.5C 93.5,161.5 93.5,178.5 93.5,195.5C 87.8333,195.5 82.1667,195.5 76.5,195.5C 76.6665,186.161 76.4998,176.827 76,167.5C 74.395,163.724 71.5616,161.724 67.5,161.5 Z"/></g>
<g><path style="opacity:1" fill="#fefbfb" d="M 170.5,144.5 C 176.167,144.5 181.833,144.5 187.5,144.5C 187.5,161.5 187.5,178.5 187.5,195.5C 181.833,195.5 176.167,195.5 170.5,195.5C 170.5,178.5 170.5,161.5 170.5,144.5 Z"/></g>
<g><path style="opacity:1" fill="#fefefe" d="M 280.5,144.5 C 280.5,161.5 280.5,178.5 280.5,195.5C 275.167,195.5 269.833,195.5 264.5,195.5C 264.5,178.5 264.5,161.5 264.5,144.5C 269.833,144.5 275.167,144.5 280.5,144.5 Z"/></g>
<g><path style="opacity:1" fill="#f7867e" d="M 280.5,144.5 C 281.497,161.659 281.83,178.992 281.5,196.5C 275.642,196.822 269.975,196.489 264.5,195.5C 269.833,195.5 275.167,195.5 280.5,195.5C 280.5,178.5 280.5,161.5 280.5,144.5 Z"/></g>
<g><path style="opacity:1" fill="#f9a6a0" d="M 101.5,229.5 C 90.3456,230.495 79.0123,230.828 67.5,230.5C 67.5,224.5 67.5,218.5 67.5,212.5C 79.1667,212.5 90.8333,212.5 102.5,212.5C 102.822,218.358 102.489,224.025 101.5,229.5 Z"/></g>
<g><path style="opacity:1" fill="#fefffe" d="M 101.5,229.5 C 90.5,229.5 79.5,229.5 68.5,229.5C 68.5,224.167 68.5,218.833 68.5,213.5C 79.5,213.5 90.5,213.5 101.5,213.5C 101.5,218.833 101.5,224.167 101.5,229.5 Z"/></g>
<g><path style="opacity:1" fill="#fffafa" d="M 161.5,212.5 C 172.833,212.5 184.167,212.5 195.5,212.5C 195.5,218.167 195.5,223.833 195.5,229.5C 184.167,229.5 172.833,229.5 161.5,229.5C 161.5,223.833 161.5,218.167 161.5,212.5 Z"/></g>
<g><path style="opacity:1" fill="#fffaf9" d="M 255.5,212.5 C 266.833,212.5 278.167,212.5 289.5,212.5C 289.665,215.518 289.498,218.518 289,221.5C 285.974,224.026 282.807,226.36 279.5,228.5C 271.556,229.469 263.556,229.802 255.5,229.5C 255.5,223.833 255.5,218.167 255.5,212.5 Z"/></g>
<g><path style="opacity:1" fill="#f9bfbb" d="M 488.5,322.5 C 384.335,323.499 280.001,323.833 175.5,323.5C 227.497,286.348 279.664,249.348 332,212.5C 384.266,249.048 436.433,285.714 488.5,322.5 Z"/></g>
<g><path style="opacity:1" fill="#f47d76" d="M 48.5,247.5 C 116.665,246.335 184.999,246.168 253.5,247C 252.956,247.717 252.289,248.217 251.5,248.5C 184.002,247.501 116.335,247.167 48.5,247.5 Z"/></g>
<g><path style="opacity:1" fill="#f9bfbb" d="M 48.5,247.5 C 116.335,247.167 184.002,247.501 251.5,248.5C 244.149,253.526 236.815,258.526 229.5,263.5C 167.167,263.5 104.833,263.5 42.5,263.5C 42.5,260.167 42.5,256.833 42.5,253.5C 43.5,250.5 45.5,248.5 48.5,247.5 Z"/></g>
<g><path style="opacity:1" fill="#f47c75" d="M 42.5,253.5 C 42.5,256.833 42.5,260.167 42.5,263.5C 104.833,263.5 167.167,263.5 229.5,263.5C 167.002,264.499 104.336,264.832 41.5,264.5C 41.185,260.629 41.5184,256.962 42.5,253.5 Z"/></g>
<g><path style="opacity:1" fill="#f5847d" d="M 23.5,281.5 C 83.9986,280.335 144.665,280.168 205.5,281C 204.956,281.717 204.289,282.217 203.5,282.5C 143.669,281.501 83.669,281.168 23.5,281.5 Z"/></g>
<g><path style="opacity:1" fill="#fffbfa" d="M 23.5,281.5 C 83.669,281.168 143.669,281.501 203.5,282.5C 196.046,287.447 188.713,292.614 181.5,298C 126.501,298.5 71.501,298.667 16.5,298.5C 16.3345,294.486 16.5012,290.486 17,286.5C 18.1585,283.507 20.3252,281.84 23.5,281.5 Z"/></g>
<g><path style="opacity:1" fill="#f2574e" d="M 488.5,322.5 C 489.043,322.56 489.376,322.893 489.5,323.5C 437,323.833 384.5,324.167 332,324.5C 279.097,324.502 226.93,324.169 175.5,323.5C 280.001,323.833 384.335,323.499 488.5,322.5 Z"/></g>
<g><path style="opacity:0.956" fill="#ef3327" d="M 29.5,340.5 C 32.1873,340.336 34.854,340.503 37.5,341C 39.6667,341.833 41.1667,343.333 42,345.5C 42.3333,365.167 42.6667,384.833 43,404.5C 46.1667,421 56,430.833 72.5,434C 86.1667,434.667 99.8333,434.667 113.5,434C 110.333,430.833 107.167,427.667 104,424.5C 99.292,416.259 101.459,410.926 110.5,408.5C 112.299,408.577 113.966,409.077 115.5,410C 125,419.5 134.5,429 144,438.5C 145.949,442.312 145.615,445.979 143,449.5C 134.167,458.333 125.333,467.167 116.5,476C 104.514,479.678 100.014,475.511 103,463.5C 106.5,460 110,456.5 113.5,453C 97.1323,452.888 80.799,452.222 64.5,451C 42.2477,444.748 29.081,430.248 25,407.5C 24.3333,387.167 24.3333,366.833 25,346.5C 26.332,344.34 27.832,342.34 29.5,340.5 Z"/></g>
<g><path style="opacity:0.986" fill="#fffefe" d="M 220.5,341.5 C 220.833,341.5 221.167,341.5 221.5,341.5C 229.833,341.5 238.167,341.5 246.5,341.5C 246.5,358.167 246.5,374.833 246.5,391.5C 241.167,391.5 235.833,391.5 230.5,391.5C 230.827,382.318 230.493,373.318 229.5,364.5C 227.972,360.308 224.972,357.975 220.5,357.5C 220.5,352.167 220.5,346.833 220.5,341.5 Z"/></g>
<g><path style="opacity:1" fill="#f79e99" d="M 221.5,341.5 C 229.984,340.507 238.651,340.174 247.5,340.5C 247.5,357.833 247.5,375.167 247.5,392.5C 241.5,392.5 235.5,392.5 229.5,392.5C 229.5,383.167 229.5,373.833 229.5,364.5C 230.493,373.318 230.827,382.318 230.5,391.5C 235.833,391.5 241.167,391.5 246.5,391.5C 246.5,374.833 246.5,358.167 246.5,341.5C 238.167,341.5 229.833,341.5 221.5,341.5 Z"/></g>
<g><path style="opacity:1" fill="#fabfbb" d="M 340.5,341.5 C 335.167,341.5 329.833,341.5 324.5,341.5C 324.5,358.167 324.5,374.833 324.5,391.5C 329.833,391.5 335.167,391.5 340.5,391.5C 335.025,392.489 329.358,392.822 323.5,392.5C 323.5,375.167 323.5,357.833 323.5,340.5C 329.358,340.178 335.025,340.511 340.5,341.5 Z"/></g>
<g><path style="opacity:1" fill="#fefffe" d="M 340.5,341.5 C 340.5,358.167 340.5,374.833 340.5,391.5C 335.167,391.5 329.833,391.5 324.5,391.5C 324.5,374.833 324.5,358.167 324.5,341.5C 329.833,341.5 335.167,341.5 340.5,341.5 Z"/></g>
<g><path style="opacity:1" fill="#fcd1ce" d="M 434.5,341.5 C 429.167,341.5 423.833,341.5 418.5,341.5C 418.5,358.167 418.5,374.833 418.5,391.5C 423.833,391.5 429.167,391.5 434.5,391.5C 429.025,392.489 423.358,392.822 417.5,392.5C 417.5,375.167 417.5,357.833 417.5,340.5C 423.358,340.178 429.025,340.511 434.5,341.5 Z"/></g>
<g><path style="opacity:1" fill="#fefffe" d="M 434.5,341.5 C 434.5,358.167 434.5,374.833 434.5,391.5C 429.167,391.5 423.833,391.5 418.5,391.5C 418.5,374.833 418.5,358.167 418.5,341.5C 423.833,341.5 429.167,341.5 434.5,341.5 Z"/></g>
<g><path style="opacity:1" fill="#fabdb9" d="M 221.5,409.5 C 232.833,409.5 244.167,409.5 255.5,409.5C 255.5,415.167 255.5,420.833 255.5,426.5C 244.167,426.5 232.833,426.5 221.5,426.5C 221.5,420.833 221.5,415.167 221.5,409.5 Z"/></g>
<g><path style="opacity:1" fill="#fabcb8" d="M 315.5,409.5 C 326.833,409.5 338.167,409.5 349.5,409.5C 349.5,415.167 349.5,420.833 349.5,426.5C 338.167,426.5 326.833,426.5 315.5,426.5C 315.5,420.833 315.5,415.167 315.5,409.5 Z"/></g>
<g><path style="opacity:1" fill="#f5837b" d="M 409.5,409.5 C 420.654,408.505 431.988,408.172 443.5,408.5C 443.5,414.5 443.5,420.5 443.5,426.5C 431.833,426.5 420.167,426.5 408.5,426.5C 408.178,420.642 408.511,414.975 409.5,409.5 Z"/></g>
<g><path style="opacity:1" fill="#f9c0bb" d="M 409.5,409.5 C 420.5,409.5 431.5,409.5 442.5,409.5C 442.5,414.833 442.5,420.167 442.5,425.5C 431.5,425.5 420.5,425.5 409.5,425.5C 409.5,420.167 409.5,414.833 409.5,409.5 Z"/></g>
<g><path style="opacity:1" fill="#fffefe" d="M 468.5,459.5 C 377.833,459.5 287.167,459.5 196.5,459.5C 196.5,456.167 196.5,452.833 196.5,449.5C 197.203,447.284 198.536,445.451 200.5,444C 288.167,443.333 375.833,443.333 463.5,444C 465.286,444.785 466.786,445.951 468,447.5C 468.499,451.486 468.666,455.486 468.5,459.5 Z"/></g>
<g><path style="opacity:1" fill="#fbd5d3" d="M 196.5,449.5 C 196.5,452.833 196.5,456.167 196.5,459.5C 287.167,459.5 377.833,459.5 468.5,459.5C 377.668,460.499 286.668,460.833 195.5,460.5C 195.185,456.629 195.518,452.962 196.5,449.5 Z"/></g>
<g><path style="opacity:1" fill="#f9bfbb" d="M 175.5,477.5 C 279.834,477.333 384.167,477.5 488.5,478C 490.939,478.774 492.773,480.274 494,482.5C 494.499,486.486 494.666,490.486 494.5,494.5C 386.5,494.5 278.5,494.5 170.5,494.5C 170.334,490.486 170.501,486.486 171,482.5C 172.025,480.313 173.525,478.646 175.5,477.5 Z"/></g>
</svg>
