<?xml version="1.0" encoding="UTF-8"?>
<!DOCTYPE svg PUBLIC "-//W3C//DTD SVG 1.1//EN" "http://www.w3.org/Graphics/SVG/1.1/DTD/svg11.dtd">
<svg xmlns="http://www.w3.org/2000/svg" version="1.1" width="512px" height="512px" style="shape-rendering:geometricPrecision; text-rendering:geometricPrecision; image-rendering:optimizeQuality; fill-rule:evenodd; clip-rule:evenodd" xmlns:xlink="http://www.w3.org/1999/xlink">
<g><path style="opacity:0.972" fill="#ef3429" d="M 108.5,4.5 C 176.249,4.00686 243.916,4.50686 311.5,6C 312.701,6.90252 313.535,8.06919 314,9.5C 314.5,62.1656 314.667,114.832 314.5,167.5C 325.549,167.15 336.549,167.65 347.5,169C 363.108,173.608 372.941,183.774 377,199.5C 378.374,212.12 378.874,224.787 378.5,237.5C 398.096,233.899 414.596,239.232 428,253.5C 435.857,266.385 438.691,280.385 436.5,295.5C 448.567,293.385 458.734,296.718 467,305.5C 468.893,308.618 470.226,311.951 471,315.5C 471.667,341.167 471.667,366.833 471,392.5C 469.469,402.364 463.969,408.864 454.5,412C 448.565,413.239 442.565,413.739 436.5,413.5C 436.667,432.503 436.5,451.503 436,470.5C 432.907,488.26 422.74,499.76 405.5,505C 296.192,506.652 186.859,506.985 77.5,506C 56.1205,502.954 43.6205,490.787 40,469.5C 39.3333,381.167 39.3333,292.833 40,204.5C 43.5,183.667 55.6667,171.5 76.5,168C 85.4938,167.5 94.4938,167.334 103.5,167.5C 103.333,114.832 103.5,62.1656 104,9.5C 105.025,7.31305 106.525,5.64638 108.5,4.5 Z"/></g>
<g><path style="opacity:1" fill="#f8aea9" d="M 301.5,17.5 C 239.833,17.5 178.167,17.5 116.5,17.5C 116.5,79.1667 116.5,140.833 116.5,202.5C 120.167,202.5 123.833,202.5 127.5,202.5C 123.702,203.483 119.702,203.817 115.5,203.5C 115.5,141.167 115.5,78.8333 115.5,16.5C 177.669,16.1676 239.669,16.5009 301.5,17.5 Z"/></g>
<g><path style="opacity:1" fill="#fffefe" d="M 301.5,17.5 C 301.5,79.1667 301.5,140.833 301.5,202.5C 297.833,202.5 294.167,202.5 290.5,202.5C 290.667,157.165 290.5,111.832 290,66.5C 289.097,65.2986 287.931,64.4652 286.5,64C 266.863,62.0293 256.363,51.196 255,31.5C 254.097,30.2986 252.931,29.4652 251.5,29C 222.833,28.3333 194.167,28.3333 165.5,29C 164.667,29.8333 163.833,30.6667 163,31.5C 161.513,51.6537 150.68,62.487 130.5,64C 129.667,64.8333 128.833,65.6667 128,66.5C 127.5,111.832 127.333,157.165 127.5,202.5C 123.833,202.5 120.167,202.5 116.5,202.5C 116.5,140.833 116.5,79.1667 116.5,17.5C 178.167,17.5 239.833,17.5 301.5,17.5 Z"/></g>
<g><path style="opacity:1" fill="#f8a39e" d="M 301.5,17.5 C 302.499,79.3311 302.832,141.331 302.5,203.5C 298.298,203.817 294.298,203.483 290.5,202.5C 294.167,202.5 297.833,202.5 301.5,202.5C 301.5,140.833 301.5,79.1667 301.5,17.5 Z"/></g>
<g><path style="opacity:1" fill="#fffefe" d="M 278.5,202.5 C 232.167,202.5 185.833,202.5 139.5,202.5C 139.5,159.833 139.5,117.167 139.5,74.5C 158.501,70.8327 169.834,59.4994 173.5,40.5C 197.167,40.5 220.833,40.5 244.5,40.5C 248.167,59.5 259.5,70.8333 278.5,74.5C 278.5,117.167 278.5,159.833 278.5,202.5 Z"/></g>
<g><path style="opacity:1" fill="#ef382c" d="M 204.5,92.5 C 219.645,92.1446 226.812,99.4779 226,114.5C 221.2,125.483 213.033,129.317 201.5,126C 189.431,117.051 188.431,107.051 198.5,96C 200.432,94.5415 202.432,93.3748 204.5,92.5 Z"/></g>
<g><path style="opacity:1" fill="#f9bbb7" d="M 206.5,104.5 C 214.168,104.507 216.168,107.84 212.5,114.5C 205.037,116.872 202.204,114.206 204,106.5C 204.995,105.934 205.828,105.267 206.5,104.5 Z"/></g>
<g><path style="opacity:1" fill="#ef392c" d="M 192.5,150.5 C 198.099,149.136 201.765,151.136 203.5,156.5C 202.935,158.405 201.935,160.071 200.5,161.5C 192.054,161.91 189.721,165.743 193.5,173C 195.5,173.667 197.5,173.667 199.5,173C 202.714,168.074 205.548,162.907 208,157.5C 219.284,147.202 228.951,148.535 237,161.5C 242.365,162.856 244.365,166.19 243,171.5C 241.509,173.004 239.676,173.837 237.5,174C 233.675,182.911 227.009,186.578 217.5,185C 213.633,181.582 213.633,178.249 217.5,175C 226.047,174.658 228.38,170.824 224.5,163.5C 222.568,162.48 220.568,162.313 218.5,163C 215.411,170.52 211.078,177.186 205.5,183C 194.228,188.198 185.895,185.198 180.5,174C 174.698,173.147 173.031,169.981 175.5,164.5C 176.912,163.194 178.579,162.36 180.5,162C 183.078,156.587 187.078,152.753 192.5,150.5 Z"/></g>
<g><path style="opacity:1" fill="#f9beba" d="M 75.5,180.5 C 84.8333,180.5 94.1667,180.5 103.5,180.5C 103.5,187.833 103.5,195.167 103.5,202.5C 95.3159,202.174 87.3159,202.508 79.5,203.5C 76.7144,203.956 75.381,205.623 75.5,208.5C 75.3352,211.006 76.3352,212.839 78.5,214C 165.5,214.667 252.5,214.667 339.5,214C 342.512,211.779 343.179,208.946 341.5,205.5C 340.643,204.575 339.643,203.908 338.5,203.5C 330.684,202.508 322.684,202.174 314.5,202.5C 314.5,195.167 314.5,187.833 314.5,180.5C 323.167,180.5 331.833,180.5 340.5,180.5C 354.749,182.416 363.082,190.416 365.5,204.5C 365.5,215.5 365.5,226.5 365.5,237.5C 269.167,237.5 172.833,237.5 76.5,237.5C 60.837,234.067 52.5037,224.234 51.5,208C 53.1407,193.185 61.1407,184.018 75.5,180.5 Z"/></g>
<g><path style="opacity:1" fill="#f79a93" d="M 340.5,180.5 C 331.833,180.5 323.167,180.5 314.5,180.5C 314.5,187.833 314.5,195.167 314.5,202.5C 322.684,202.174 330.684,202.508 338.5,203.5C 330.167,203.5 321.833,203.5 313.5,203.5C 313.5,195.5 313.5,187.5 313.5,179.5C 322.682,179.173 331.682,179.507 340.5,180.5 Z"/></g>
<g><path style="opacity:1" fill="#f6918a" d="M 75.5,180.5 C 84.9856,179.506 94.6522,179.173 104.5,179.5C 104.5,187.5 104.5,195.5 104.5,203.5C 96.1667,203.5 87.8333,203.5 79.5,203.5C 87.3159,202.508 95.3159,202.174 103.5,202.5C 103.5,195.167 103.5,187.833 103.5,180.5C 94.1667,180.5 84.8333,180.5 75.5,180.5 Z"/></g>
<g><path style="opacity:1" fill="#f9a7a1" d="M 139.5,74.5 C 139.5,117.167 139.5,159.833 139.5,202.5C 185.833,202.5 232.167,202.5 278.5,202.5C 232.003,203.499 185.336,203.832 138.5,203.5C 138.168,160.33 138.501,117.33 139.5,74.5 Z"/></g>
<g><path style="opacity:1" fill="#f47d76" d="M 365.5,204.5 C 366.495,215.654 366.828,226.988 366.5,238.5C 269.665,238.833 172.999,238.499 76.5,237.5C 172.833,237.5 269.167,237.5 365.5,237.5C 365.5,226.5 365.5,215.5 365.5,204.5 Z"/></g>
<g><path style="opacity:1" fill="#fabfbb" d="M 423.5,273.5 C 423.5,292.5 423.5,311.5 423.5,330.5C 392.995,330.169 362.662,330.502 332.5,331.5C 314.339,334.489 302.506,344.822 297,362.5C 294.001,387.682 304.501,404.182 328.5,412C 360.498,412.5 392.498,412.667 424.5,412.5C 424.952,432.554 424.452,452.554 423,472.5C 419.476,484.86 411.309,492.027 398.5,494C 291.167,494.667 183.833,494.667 76.5,494C 62.6053,491.07 54.4387,482.57 52,468.5C 51.3333,391.5 51.3333,314.5 52,237.5C 57.8562,243.013 64.6895,246.846 72.5,249C 181.5,249.333 290.5,249.667 399.5,250C 412.661,252.661 420.661,260.495 423.5,273.5 Z"/></g>
<g><path style="opacity:1" fill="#f68a83" d="M 450.5,308.5 C 445.833,308.5 441.167,308.5 436.5,308.5C 436.5,315.833 436.5,323.167 436.5,330.5C 441.167,330.5 445.833,330.5 450.5,330.5C 445.695,331.487 440.695,331.821 435.5,331.5C 435.5,323.5 435.5,315.5 435.5,307.5C 440.695,307.179 445.695,307.513 450.5,308.5 Z"/></g>
<g><path style="opacity:1" fill="#fabeb9" d="M 450.5,308.5 C 459.138,312.116 461.304,318.116 457,326.5C 455.362,328.734 453.195,330.067 450.5,330.5C 445.833,330.5 441.167,330.5 436.5,330.5C 436.5,323.167 436.5,315.833 436.5,308.5C 441.167,308.5 445.833,308.5 450.5,308.5 Z"/></g>
<g><path style="opacity:1" fill="#f7928c" d="M 423.5,273.5 C 424.497,292.659 424.83,311.993 424.5,331.5C 393.833,331.5 363.167,331.5 332.5,331.5C 362.662,330.502 392.995,330.169 423.5,330.5C 423.5,311.5 423.5,292.5 423.5,273.5 Z"/></g>
<g><path style="opacity:1" fill="#f9beba" d="M 457.5,340.5 C 458.497,357.325 458.83,374.325 458.5,391.5C 457.947,395.761 455.613,398.594 451.5,400C 410.5,400.667 369.5,400.667 328.5,400C 311.104,392.044 304.938,378.877 310,360.5C 314.17,350.998 321.337,345.164 331.5,343C 372.167,342.667 412.833,342.333 453.5,342C 454.901,341.59 456.234,341.09 457.5,340.5 Z"/></g>
<g><path style="opacity:1" fill="#f58b83" d="M 457.5,340.5 C 457.56,339.957 457.893,339.624 458.5,339.5C 459.827,356.995 459.827,374.329 458.5,391.5C 458.83,374.325 458.497,357.325 457.5,340.5 Z"/></g>
<g><path style="opacity:1" fill="#ef372b" d="M 331.5,354.5 C 347.168,353.669 354.668,361.002 354,376.5C 348.081,389.214 338.914,392.381 326.5,386C 315.956,373.514 317.622,363.014 331.5,354.5 Z"/></g>
<g><path style="opacity:1" fill="#f9bbb6" d="M 333.5,366.5 C 342.216,365.537 344.549,368.87 340.5,376.5C 335.254,378.713 332.254,377.046 331.5,371.5C 331.437,369.486 332.103,367.819 333.5,366.5 Z"/></g>
</svg>
