<?xml version="1.0" encoding="UTF-8"?>
<!DOCTYPE svg PUBLIC "-//W3C//DTD SVG 1.1//EN" "http://www.w3.org/Graphics/SVG/1.1/DTD/svg11.dtd">
<svg xmlns="http://www.w3.org/2000/svg" version="1.1" width="512px" height="512px" style="shape-rendering:geometricPrecision; text-rendering:geometricPrecision; image-rendering:optimizeQuality; fill-rule:evenodd; clip-rule:evenodd" xmlns:xlink="http://www.w3.org/1999/xlink">
<g><path style="opacity:0.994" fill="#ef3328" d="M 80.5,15.5 C 149.167,15.3333 217.834,15.5 286.5,16C 294.667,18.8333 300.167,24.3333 303,32.5C 303.168,43.848 303.668,55.1813 304.5,66.5C 319.211,60.6502 332.378,62.9835 344,73.5C 347.388,77.6087 349.721,82.2754 351,87.5C 351.167,133.837 351.667,180.17 352.5,226.5C 369.949,219.489 384.115,223.489 395,238.5C 403.387,231.909 412.887,229.742 423.5,232C 432.003,234.174 438.503,239.007 443,246.5C 451.387,239.909 460.887,237.742 471.5,240C 483.991,243.158 491.825,250.991 495,263.5C 495.667,280.167 495.667,296.833 495,313.5C 482.6,351.032 469.6,388.365 456,425.5C 455.667,447.5 455.333,469.5 455,491.5C 454.626,492.416 454.126,493.25 453.5,494C 424.918,495.159 396.251,495.659 367.5,495.5C 338.749,495.659 310.082,495.159 281.5,494C 280.874,493.25 280.374,492.416 280,491.5C 279.667,469.5 279.333,447.5 279,425.5C 275.66,416.981 272.827,408.315 270.5,399.5C 264.794,399.171 259.128,399.505 253.5,400.5C 243.861,414.638 234.028,428.638 224,442.5C 223.667,458.833 223.333,475.167 223,491.5C 222.5,493.333 221.333,494.5 219.5,495C 157.418,495.992 95.4177,495.659 33.5,494C 32.8742,493.25 32.3742,492.416 32,491.5C 31.6667,474.5 31.3333,457.5 31,440.5C 26,387.833 21,335.167 16,282.5C 15.3333,265.167 15.3333,247.833 16,230.5C 20.1667,214.333 30.3333,204.167 46.5,200C 52.1569,199.501 57.8236,199.334 63.5,199.5C 63.3333,143.832 63.5,88.1657 64,32.5C 67.0191,24.3156 72.5191,18.649 80.5,15.5 Z M 87.5,31.5 C 151.501,31.3333 215.501,31.5 279.5,32C 284,32.5 286.5,35 287,39.5C 287.667,94.1667 287.667,148.833 287,203.5C 282.388,200.244 277.221,198.911 271.5,199.5C 261.827,199.222 253.66,202.556 247,209.5C 243.612,213.609 241.279,218.275 240,223.5C 239.333,253.5 239.333,283.5 240,313.5C 247.737,336.879 255.571,360.212 263.5,383.5C 204.832,383.667 146.166,383.5 87.5,383C 83,382.5 80.5,380 80,375.5C 79.5003,367.507 79.3336,359.507 79.5,351.5C 127.5,351.5 175.5,351.5 223.5,351.5C 223.5,346.167 223.5,340.833 223.5,335.5C 175.5,335.5 127.5,335.5 79.5,335.5C 79.5,316.833 79.5,298.167 79.5,279.5C 93.1707,279.667 106.837,279.5 120.5,279C 140.531,273.435 150.865,260.268 151.5,239.5C 150.865,218.732 140.531,205.565 120.5,200C 106.837,199.5 93.1707,199.333 79.5,199.5C 79.3333,146.166 79.5,92.8323 80,39.5C 80.6804,34.9895 83.1804,32.3228 87.5,31.5 Z M 295.5,431.5 C 303.5,431.5 311.5,431.5 319.5,431.5C 319.5,447.5 319.5,463.5 319.5,479.5C 311.5,479.5 303.5,479.5 295.5,479.5C 295.5,463.5 295.5,447.5 295.5,431.5 Z M 335.5,431.5 C 343.5,431.5 351.5,431.5 359.5,431.5C 359.5,447.5 359.5,463.5 359.5,479.5C 351.5,479.5 343.5,479.5 335.5,479.5C 335.5,463.5 335.5,447.5 335.5,431.5 Z M 375.5,431.5 C 383.5,431.5 391.5,431.5 399.5,431.5C 399.5,447.5 399.5,463.5 399.5,479.5C 391.5,479.5 383.5,479.5 375.5,479.5C 375.5,463.5 375.5,447.5 375.5,431.5 Z M 415.5,431.5 C 423.5,431.5 431.5,431.5 439.5,431.5C 439.5,447.5 439.5,463.5 439.5,479.5C 431.5,479.5 423.5,479.5 415.5,479.5C 415.5,463.5 415.5,447.5 415.5,431.5 Z M 47.5,447.5 C 100.833,447.5 154.167,447.5 207.5,447.5C 207.5,458.167 207.5,468.833 207.5,479.5C 154.167,479.5 100.833,479.5 47.5,479.5C 47.5,468.833 47.5,458.167 47.5,447.5 Z"/></g>
<g><path style="opacity:0.978" fill="#ef3328" d="M 170.5,47.5 C 210.986,43.9853 240.153,60.3187 258,96.5C 271.111,135.814 261.611,168.314 229.5,194C 205.156,208.901 179.49,211.568 152.5,202C 114.353,182.878 98.5199,152.045 105,109.5C 111.825,83.0152 127.658,64.1818 152.5,53C 158.531,50.8324 164.531,48.999 170.5,47.5 Z"/></g>
<g><path style="opacity:0.987" fill="#ee3328" d="M 460.5,49.5 C 472.08,59.5765 483.247,70.2432 494,81.5C 496,85.5 496,89.5 494,93.5C 483.5,104 473,114.5 462.5,125C 457.532,122.218 453.198,118.384 449.5,113.5C 454.985,107.515 460.652,101.681 466.5,96C 436.168,95.5 405.835,95.3334 375.5,95.5C 375.5,90.1667 375.5,84.8333 375.5,79.5C 405.835,79.6666 436.168,79.5 466.5,79C 460.652,73.3188 454.985,67.4854 449.5,61.5C 453.189,57.4799 456.855,53.4799 460.5,49.5 Z"/></g>
<g><path style="opacity:1" fill="#f9beba" d="M 173.5,63.5 C 212.626,61.8132 237.126,79.8132 247,117.5C 249.736,145.857 239.236,167.691 215.5,183C 180.759,199.191 151.925,192.025 129,161.5C 111.388,126.214 118.221,96.7136 149.5,73C 157.191,68.7211 165.191,65.5544 173.5,63.5 Z"/></g>
<g><path style="opacity:1" fill="#ef3429" d="M 175.5,79.5 C 180.833,79.5 186.167,79.5 191.5,79.5C 191.18,82.8984 191.513,86.2317 192.5,89.5C 201.991,93.8275 206.991,101.161 207.5,111.5C 202.167,111.5 196.833,111.5 191.5,111.5C 189.924,104.045 185.59,101.878 178.5,105C 174.5,109.333 174.5,113.667 178.5,118C 192.267,118.453 201.767,124.953 207,137.5C 208.767,150.301 203.933,159.635 192.5,165.5C 191.513,168.768 191.18,172.102 191.5,175.5C 186.167,175.5 180.833,175.5 175.5,175.5C 175.82,172.102 175.487,168.768 174.5,165.5C 165.034,161.241 160.034,153.908 159.5,143.5C 164.875,143.172 170.208,143.505 175.5,144.5C 177.68,151.254 182.013,153.087 188.5,150C 192.5,145.667 192.5,141.333 188.5,137C 169.209,135.716 159.709,125.549 160,106.5C 162.286,98.0534 167.453,92.3868 175.5,89.5C 175.5,86.1667 175.5,82.8333 175.5,79.5 Z"/></g>
<g><path style="opacity:1" fill="#f9bfbb" d="M 314.5,79.5 C 324.053,78.2409 330.886,81.9075 335,90.5C 335.5,158.833 335.667,227.166 335.5,295.5C 340.833,295.5 346.167,295.5 351.5,295.5C 351.333,280.496 351.5,265.496 352,250.5C 357.846,238.957 366.346,236.457 377.5,243C 380.106,244.938 381.939,247.438 383,250.5C 383.5,265.496 383.667,280.496 383.5,295.5C 388.833,295.5 394.167,295.5 399.5,295.5C 399.333,283.162 399.5,270.829 400,258.5C 405.846,246.957 414.346,244.457 425.5,251C 428.106,252.938 429.939,255.438 431,258.5C 431.5,273.496 431.667,288.496 431.5,303.5C 436.833,303.5 442.167,303.5 447.5,303.5C 447.333,291.162 447.5,278.829 448,266.5C 453.846,254.957 462.346,252.457 473.5,259C 476.106,260.938 477.939,263.438 479,266.5C 479.667,281.167 479.667,295.833 479,310.5C 466.526,345.423 454.36,380.423 442.5,415.5C 392.5,415.5 342.5,415.5 292.5,415.5C 280.64,380.423 268.474,345.423 256,310.5C 255.333,282.5 255.333,254.5 256,226.5C 261.327,215.59 269.494,212.757 280.5,218C 283.433,220.264 285.6,223.098 287,226.5C 287.5,249.498 287.667,272.498 287.5,295.5C 292.833,295.5 298.167,295.5 303.5,295.5C 303.333,227.166 303.5,158.833 304,90.5C 306.357,85.6455 309.857,81.9788 314.5,79.5 Z"/></g>
<g><path style="opacity:0.987" fill="#ee3228" d="M 400.5,113.5 C 405.419,116.748 409.753,120.748 413.5,125.5C 408.015,131.485 402.348,137.319 396.5,143C 426.832,143.5 457.165,143.667 487.5,143.5C 487.5,148.833 487.5,154.167 487.5,159.5C 457.165,159.333 426.832,159.5 396.5,160C 402.348,165.681 408.015,171.515 413.5,177.5C 409.802,182.384 405.468,186.218 400.5,189C 390,178.5 379.5,168 369,157.5C 367,153.5 367,149.5 369,145.5C 379.702,134.965 390.202,124.298 400.5,113.5 Z"/></g>
<g><path style="opacity:1" fill="#f9bfbb" d="M 49.5,215.5 C 71.8358,215.333 94.1692,215.5 116.5,216C 133.417,222.001 138.917,233.501 133,250.5C 129.206,256.966 123.706,261.132 116.5,263C 100.5,263.333 84.5,263.667 68.5,264C 66.3333,264.833 64.8333,266.333 64,268.5C 63.3333,305.833 63.3333,343.167 64,380.5C 66.7659,389.598 72.5992,395.765 81.5,399C 132.167,399.333 182.833,399.667 233.5,400C 226.167,410.333 218.833,420.667 211.5,431C 156.501,431.5 101.501,431.667 46.5,431.5C 41.998,379.808 37.1646,328.141 32,276.5C 31.8333,269.333 31.6667,262.167 31.5,255C 27.0759,236.675 33.0759,223.508 49.5,215.5 Z"/></g>
</svg>
