<?xml version="1.0" encoding="UTF-8"?>
<!DOCTYPE svg PUBLIC "-//W3C//DTD SVG 1.1//EN" "http://www.w3.org/Graphics/SVG/1.1/DTD/svg11.dtd">
<svg xmlns="http://www.w3.org/2000/svg" version="1.1" width="512px" height="512px" style="shape-rendering:geometricPrecision; text-rendering:geometricPrecision; image-rendering:optimizeQuality; fill-rule:evenodd; clip-rule:evenodd" xmlns:xlink="http://www.w3.org/1999/xlink">
<g><path style="opacity:0.992" fill="#ef3328" d="M 163.5,15.5 C 166.978,15.1842 170.312,15.6842 173.5,17C 271.833,82.6667 370.167,148.333 468.5,214C 476.062,215.267 483.729,215.934 491.5,216C 492.416,216.374 493.25,216.874 494,217.5C 495.651,247.414 495.984,277.414 495,307.5C 494.5,309.333 493.333,310.5 491.5,311C 457.559,314.746 444.059,333.246 451,366.5C 459.191,383.191 472.691,391.691 491.5,392C 493.333,392.5 494.5,393.667 495,395.5C 495.667,427.5 495.667,459.5 495,491.5C 494.626,492.416 494.126,493.25 493.5,494C 414.247,495.164 334.914,495.664 255.5,495.5C 176.833,495.333 98.1667,495.167 19.5,495C 18.5838,494.626 17.7504,494.126 17,493.5C 15.3481,460.919 15.0148,428.252 16,395.5C 16.5,393.667 17.6667,392.5 19.5,392C 38.3093,391.691 51.8093,383.191 60,366.5C 66.9414,333.246 53.4414,314.746 19.5,311C 17.6667,310.5 16.5,309.333 16,307.5C 15.3333,278.167 15.3333,248.833 16,219.5C 16.5,217.667 17.6667,216.5 19.5,216C 25.5275,215.83 31.5275,215.33 37.5,214.5C 46.1232,199.417 55.1232,184.584 64.5,170C 67.0301,168.578 69.6967,168.245 72.5,169C 92.8836,180.421 111.05,177.588 127,160.5C 140.755,136.9 136.422,117.233 114,101.5C 111.007,96.7281 111.34,92.0615 115,87.5C 130.955,63.2247 147.122,39.2247 163.5,15.5 Z"/></g>
<g><path style="opacity:1" fill="#f9bfbb" d="M 169.5,34.5 C 192.285,49.4448 214.952,64.6115 237.5,80C 232.876,86.7477 228.376,93.581 224,100.5C 223.228,110.038 227.395,113.205 236.5,110C 241.339,103.003 246.339,96.1694 251.5,89.5C 314.5,131.333 377.5,173.167 440.5,215C 404.5,215.667 368.5,215.667 332.5,215C 308.5,199.667 284.5,184.333 260.5,169C 250,166.167 246.167,170 249,180.5C 266.918,191.875 284.752,203.375 302.5,215C 220.5,215.667 138.5,215.667 56.5,215C 61.5825,206.166 66.9159,197.499 72.5,189C 96.8335,196.667 118.334,191.834 137,174.5C 153.834,153.153 155.834,130.486 143,106.5C 139.324,101.993 135.49,97.6593 131.5,93.5C 144.193,73.8157 156.86,54.1491 169.5,34.5 Z"/></g>
<g><path style="opacity:1" fill="#ef372b" d="M 212.5,119.5 C 220.658,118.823 224.158,122.49 223,130.5C 217.333,139.167 211.667,147.833 206,156.5C 200.559,160.926 195.892,160.259 192,154.5C 191.333,152.5 191.333,150.5 192,148.5C 198.34,138.352 205.173,128.686 212.5,119.5 Z"/></g>
<g><path style="opacity:1" fill="#ef362a" d="M 268.5,135.5 C 271.32,135.248 273.986,135.748 276.5,137C 305.833,155.667 335.167,174.333 364.5,193C 367.769,196.453 368.269,200.286 366,204.5C 362.547,207.769 358.714,208.269 354.5,206C 325.167,187.333 295.833,168.667 266.5,150C 262.128,144.408 262.794,139.575 268.5,135.5 Z"/></g>
<g><path style="opacity:1" fill="#ef372b" d="M 180.5,167.5 C 188.658,166.823 192.158,170.49 191,178.5C 185.333,187.167 179.667,195.833 174,204.5C 168.559,208.926 163.892,208.259 160,202.5C 159.333,200.5 159.333,198.5 160,196.5C 166.34,186.352 173.173,176.686 180.5,167.5 Z"/></g>
<g><path style="opacity:1" fill="#fffefe" d="M 31.5,231.5 C 148.833,231.5 266.167,231.5 383.5,231.5C 383.334,240.173 383.5,248.84 384,257.5C 386.405,263.462 390.571,264.962 396.5,262C 397.893,260.829 398.727,259.329 399,257.5C 399.5,248.84 399.666,240.173 399.5,231.5C 426.167,231.5 452.833,231.5 479.5,231.5C 479.5,253.167 479.5,274.833 479.5,296.5C 458.372,300.125 443.538,311.792 435,331.5C 426.738,360.39 434.904,383.223 459.5,400C 465.734,403.623 472.4,405.79 479.5,406.5C 479.5,430.833 479.5,455.167 479.5,479.5C 452.833,479.5 426.167,479.5 399.5,479.5C 399.666,470.494 399.5,461.494 399,452.5C 395.987,447.465 391.82,446.298 386.5,449C 385.299,449.903 384.465,451.069 384,452.5C 383.5,461.494 383.334,470.494 383.5,479.5C 266.167,479.5 148.833,479.5 31.5,479.5C 31.5,455.167 31.5,430.833 31.5,406.5C 56.1634,402.084 71.6634,387.75 78,363.5C 82.3806,334.426 71.5472,313.259 45.5,300C 40.9932,298.107 36.3266,296.941 31.5,296.5C 31.5,274.833 31.5,253.167 31.5,231.5 Z"/></g>
<g><path style="opacity:1" fill="#ef3328" d="M 100.5,263.5 C 180.558,263.009 260.558,263.509 340.5,265C 341.701,265.903 342.535,267.069 343,268.5C 343.981,305.893 343.648,343.227 342,380.5C 340.829,381.893 339.329,382.727 337.5,383C 258.5,383.667 179.5,383.667 100.5,383C 97.8981,382.065 96.3981,380.232 96,377.5C 95.3333,341.167 95.3333,304.833 96,268.5C 97.025,266.313 98.525,264.646 100.5,263.5 Z"/></g>
<g><path style="opacity:1" fill="#f9c0bb" d="M 111.5,279.5 C 183.5,279.5 255.5,279.5 327.5,279.5C 327.5,308.833 327.5,338.167 327.5,367.5C 255.5,367.5 183.5,367.5 111.5,367.5C 111.5,338.167 111.5,308.833 111.5,279.5 Z"/></g>
<g><path style="opacity:1" fill="#ef362a" d="M 388.5,279.5 C 393.28,278.641 396.78,280.308 399,284.5C 399.667,294.167 399.667,303.833 399,313.5C 398.018,317.624 395.352,319.624 391,319.5C 387.112,319.277 384.779,317.277 384,313.5C 383.333,303.833 383.333,294.167 384,284.5C 385.025,282.313 386.525,280.646 388.5,279.5 Z"/></g>
<g><path style="opacity:1" fill="#ef362a" d="M 388.5,335.5 C 393.28,334.641 396.78,336.308 399,340.5C 399.667,350.167 399.667,359.833 399,369.5C 398.018,373.624 395.352,375.624 391,375.5C 387.112,375.277 384.779,373.277 384,369.5C 383.333,359.833 383.333,350.167 384,340.5C 385.025,338.313 386.525,336.646 388.5,335.5 Z"/></g>
<g><path style="opacity:1" fill="#ef362a" d="M 388.5,391.5 C 393.28,390.641 396.78,392.308 399,396.5C 399.667,406.167 399.667,415.833 399,425.5C 398.018,429.624 395.352,431.624 391,431.5C 387.112,431.277 384.779,429.277 384,425.5C 383.333,415.833 383.333,406.167 384,396.5C 385.025,394.313 386.525,392.646 388.5,391.5 Z"/></g>
<g><path style="opacity:1" fill="#ef3328" d="M 100.5,399.5 C 179.501,399.333 258.501,399.5 337.5,400C 343.462,402.405 344.962,406.571 342,412.5C 340.829,413.893 339.329,414.727 337.5,415C 258.5,415.667 179.5,415.667 100.5,415C 95.4648,411.987 94.2981,407.82 97,402.5C 98.1451,401.364 99.3117,400.364 100.5,399.5 Z"/></g>
<g><path style="opacity:1" fill="#ef3328" d="M 100.5,431.5 C 179.501,431.333 258.501,431.5 337.5,432C 343.462,434.405 344.962,438.571 342,444.5C 340.829,445.893 339.329,446.727 337.5,447C 258.5,447.667 179.5,447.667 100.5,447C 95.4648,443.987 94.2981,439.82 97,434.5C 98.1451,433.364 99.3117,432.364 100.5,431.5 Z"/></g>
</svg>
