<?xml version="1.0" encoding="UTF-8"?>
<!DOCTYPE svg PUBLIC "-//W3C//DTD SVG 1.1//EN" "http://www.w3.org/Graphics/SVG/1.1/DTD/svg11.dtd">
<svg xmlns="http://www.w3.org/2000/svg" version="1.1" width="512px" height="512px" style="shape-rendering:geometricPrecision; text-rendering:geometricPrecision; image-rendering:optimizeQuality; fill-rule:evenodd; clip-rule:evenodd" xmlns:xlink="http://www.w3.org/1999/xlink">
<g><path style="opacity:0.995" fill="#ef3328" d="M 123.5,7.5 C 126.978,7.18424 130.312,7.68424 133.5,9C 142.014,17.6811 150.681,26.1811 159.5,34.5C 168.319,26.1811 176.986,17.6811 185.5,9C 189.5,7 193.5,7 197.5,9C 206.014,17.6811 214.681,26.1811 223.5,34.5C 232.682,25.4839 242.016,16.6505 251.5,8C 254.964,7.1834 258.298,7.51674 261.5,9C 270.014,17.6811 278.681,26.1811 287.5,34.5C 296.682,25.4839 306.016,16.6505 315.5,8C 318.964,7.1834 322.298,7.51674 325.5,9C 334.014,17.6811 342.681,26.1811 351.5,34.5C 360.319,26.1811 368.986,17.6811 377.5,9C 381.5,7 385.5,7 389.5,9C 401.03,20.1958 412.197,31.6958 423,43.5C 423.5,95.4989 423.667,147.499 423.5,199.5C 439.837,199.333 456.17,199.5 472.5,200C 488.667,204.167 498.833,214.333 503,230.5C 503.667,295.167 503.667,359.833 503,424.5C 500.751,434.008 495.751,441.674 488,447.5C 487.667,460.5 487.333,473.5 487,486.5C 484.167,494.667 478.667,500.167 470.5,503C 327.167,503.667 183.833,503.667 40.5,503C 32.3333,500.167 26.8333,494.667 24,486.5C 23.6667,473.5 23.3333,460.5 23,447.5C 15.2492,441.674 10.2492,434.008 8,424.5C 7.33333,359.833 7.33333,295.167 8,230.5C 11.5604,215.939 20.3937,206.106 34.5,201C 52.1108,199.555 69.7775,199.055 87.5,199.5C 87.3333,147.499 87.5,95.4989 88,43.5C 99.3664,30.9675 111.2,18.9675 123.5,7.5 Z M 143.5,87.5 C 218.167,87.5 292.833,87.5 367.5,87.5C 367.5,124.833 367.5,162.167 367.5,199.5C 292.833,199.5 218.167,199.5 143.5,199.5C 143.5,162.167 143.5,124.833 143.5,87.5 Z M 55.5,215.5 C 66.1667,215.5 76.8333,215.5 87.5,215.5C 87.5,231.5 87.5,247.5 87.5,263.5C 76.8333,263.5 66.1667,263.5 55.5,263.5C 55.5,247.5 55.5,231.5 55.5,215.5 Z M 423.5,215.5 C 434.167,215.5 444.833,215.5 455.5,215.5C 455.5,231.5 455.5,247.5 455.5,263.5C 444.833,263.5 434.167,263.5 423.5,263.5C 423.5,247.5 423.5,231.5 423.5,215.5 Z M 38.5,217.5 C 39.3318,236.662 39.8318,255.996 40,275.5C 40.5,277.333 41.6667,278.5 43.5,279C 184.833,279.667 326.167,279.667 467.5,279C 469.333,278.5 470.5,277.333 471,275.5C 471.333,256.167 471.667,236.833 472,217.5C 481.359,221.859 486.359,229.193 487,239.5C 487.667,298.167 487.667,356.833 487,415.5C 485.167,429.333 477.333,437.167 463.5,439C 324.833,439.667 186.167,439.667 47.5,439C 33.6667,437.167 25.8333,429.333 24,415.5C 23.3333,356.833 23.3333,298.167 24,239.5C 24.6768,229.341 29.5101,222.007 38.5,217.5 Z M 66.5,376.5 C 83.7649,376.257 89.5982,384.257 84,400.5C 77.7488,407.011 70.5821,408.177 62.5,404C 55.9893,397.749 54.8227,390.582 59,382.5C 61.1141,379.879 63.6141,377.879 66.5,376.5 Z M 354.5,376.5 C 371.765,376.257 377.598,384.257 372,400.5C 365.749,407.011 358.582,408.177 350.5,404C 343.989,397.749 342.823,390.582 347,382.5C 349.114,379.879 351.614,377.879 354.5,376.5 Z M 434.5,376.5 C 451.765,376.257 457.598,384.257 452,400.5C 445.749,407.011 438.582,408.177 430.5,404C 423.989,397.749 422.823,390.582 427,382.5C 429.114,379.879 431.614,377.879 434.5,376.5 Z M 39.5,455.5 C 183.5,455.5 327.5,455.5 471.5,455.5C 471.666,463.507 471.5,471.507 471,479.5C 470.5,484 468,486.5 463.5,487C 324.833,487.667 186.167,487.667 47.5,487C 43,486.5 40.5,484 40,479.5C 39.5003,471.507 39.3336,463.507 39.5,455.5 Z"/></g>
<g><path style="opacity:1" fill="#f9bfbb" d="M 126.5,27.5 C 136.246,35.7417 145.579,44.575 154.5,54C 157.833,56 161.167,56 164.5,54C 173.348,44.9856 182.348,36.1522 191.5,27.5C 200.652,36.1522 209.652,44.9856 218.5,54C 221.833,56 225.167,56 228.5,54C 237.348,44.9856 246.348,36.1522 255.5,27.5C 264.652,36.1522 273.652,44.9856 282.5,54C 285.833,56 289.167,56 292.5,54C 301.348,44.9856 310.348,36.1522 319.5,27.5C 328.652,36.1522 337.652,44.9856 346.5,54C 349.833,56 353.167,56 356.5,54C 365.167,45.3333 373.833,36.6667 382.5,28C 383.167,27.3333 383.833,27.3333 384.5,28C 392,35.5 399.5,43 407,50.5C 407.5,121.499 407.667,192.499 407.5,263.5C 306.167,263.5 204.833,263.5 103.5,263.5C 103.333,192.499 103.5,121.499 104,50.5C 111.702,42.9649 119.202,35.2983 126.5,27.5 Z M 143.5,87.5 C 143.5,124.833 143.5,162.167 143.5,199.5C 218.167,199.5 292.833,199.5 367.5,199.5C 367.5,162.167 367.5,124.833 367.5,87.5C 292.833,87.5 218.167,87.5 143.5,87.5 Z"/></g>
<g><path style="opacity:1" fill="#ef3328" d="M 132.5,71.5 C 215.224,71.0083 297.891,71.5083 380.5,73C 381.701,73.9025 382.535,75.0692 383,76.5C 383.985,121.892 383.651,167.226 382,212.5C 380.829,213.893 379.329,214.727 377.5,215C 295.085,215.994 212.752,215.661 130.5,214C 129.107,212.829 128.273,211.329 128,209.5C 127.333,165.167 127.333,120.833 128,76.5C 129.025,74.313 130.525,72.6464 132.5,71.5 Z M 143.5,87.5 C 143.5,124.833 143.5,162.167 143.5,199.5C 218.167,199.5 292.833,199.5 367.5,199.5C 367.5,162.167 367.5,124.833 367.5,87.5C 292.833,87.5 218.167,87.5 143.5,87.5 Z"/></g>
<g><path style="opacity:1" fill="#ee3327" d="M 159.5,103.5 C 164.833,103.5 170.167,103.5 175.5,103.5C 175.5,130.167 175.5,156.833 175.5,183.5C 170.167,183.5 164.833,183.5 159.5,183.5C 159.5,156.833 159.5,130.167 159.5,103.5 Z"/></g>
<g><path style="opacity:1" fill="#ee3327" d="M 183.5,103.5 C 186.167,103.5 188.833,103.5 191.5,103.5C 191.5,130.167 191.5,156.833 191.5,183.5C 188.833,183.5 186.167,183.5 183.5,183.5C 183.5,156.833 183.5,130.167 183.5,103.5 Z"/></g>
<g><path style="opacity:1" fill="#ee3327" d="M 199.5,103.5 C 202.167,103.5 204.833,103.5 207.5,103.5C 207.5,130.167 207.5,156.833 207.5,183.5C 204.833,183.5 202.167,183.5 199.5,183.5C 199.5,156.833 199.5,130.167 199.5,103.5 Z"/></g>
<g><path style="opacity:1" fill="#ee3327" d="M 215.5,103.5 C 218.167,103.5 220.833,103.5 223.5,103.5C 223.5,130.167 223.5,156.833 223.5,183.5C 220.833,183.5 218.167,183.5 215.5,183.5C 215.5,156.833 215.5,130.167 215.5,103.5 Z"/></g>
<g><path style="opacity:1" fill="#ee3327" d="M 231.5,103.5 C 239.5,103.5 247.5,103.5 255.5,103.5C 255.5,130.167 255.5,156.833 255.5,183.5C 247.5,183.5 239.5,183.5 231.5,183.5C 231.5,156.833 231.5,130.167 231.5,103.5 Z"/></g>
<g><path style="opacity:1" fill="#ee3327" d="M 263.5,103.5 C 268.833,103.5 274.167,103.5 279.5,103.5C 279.5,130.167 279.5,156.833 279.5,183.5C 274.167,183.5 268.833,183.5 263.5,183.5C 263.5,156.833 263.5,130.167 263.5,103.5 Z"/></g>
<g><path style="opacity:1" fill="#ee3327" d="M 287.5,103.5 C 290.167,103.5 292.833,103.5 295.5,103.5C 295.5,130.167 295.5,156.833 295.5,183.5C 292.833,183.5 290.167,183.5 287.5,183.5C 287.5,156.833 287.5,130.167 287.5,103.5 Z"/></g>
<g><path style="opacity:1" fill="#ee3327" d="M 303.5,103.5 C 308.833,103.5 314.167,103.5 319.5,103.5C 319.5,130.167 319.5,156.833 319.5,183.5C 314.167,183.5 308.833,183.5 303.5,183.5C 303.5,156.833 303.5,130.167 303.5,103.5 Z"/></g>
<g><path style="opacity:1" fill="#ee3327" d="M 327.5,103.5 C 332.833,103.5 338.167,103.5 343.5,103.5C 343.5,130.167 343.5,156.833 343.5,183.5C 338.167,183.5 332.833,183.5 327.5,183.5C 327.5,156.833 327.5,130.167 327.5,103.5 Z"/></g>
<g><path style="opacity:1" fill="#ee3327" d="M 127.5,231.5 C 132.833,231.5 138.167,231.5 143.5,231.5C 143.5,236.833 143.5,242.167 143.5,247.5C 138.167,247.5 132.833,247.5 127.5,247.5C 127.5,242.167 127.5,236.833 127.5,231.5 Z"/></g>
<g><path style="opacity:1" fill="#ee3327" d="M 159.5,231.5 C 164.833,231.5 170.167,231.5 175.5,231.5C 175.5,236.833 175.5,242.167 175.5,247.5C 170.167,247.5 164.833,247.5 159.5,247.5C 159.5,242.167 159.5,236.833 159.5,231.5 Z"/></g>
<g><path style="opacity:1" fill="#ee3327" d="M 191.5,231.5 C 255.5,231.5 319.5,231.5 383.5,231.5C 383.5,236.833 383.5,242.167 383.5,247.5C 319.5,247.5 255.5,247.5 191.5,247.5C 191.5,242.167 191.5,236.833 191.5,231.5 Z"/></g>
<g><path style="opacity:0.962" fill="#ef3227" d="M 63.5,359.5 C 91.9779,357.811 105.145,371.144 103,399.5C 96.6446,418.438 83.478,426.272 63.5,423C 44.5615,416.645 36.7282,403.478 40,383.5C 43.349,370.985 51.1824,362.985 63.5,359.5 Z M 66.5,376.5 C 63.6141,377.879 61.1141,379.879 59,382.5C 54.8227,390.582 55.9893,397.749 62.5,404C 70.5821,408.177 77.7488,407.011 84,400.5C 89.5982,384.257 83.7649,376.257 66.5,376.5 Z"/></g>
<g><path style="opacity:0.962" fill="#ef3227" d="M 351.5,359.5 C 379.978,357.811 393.145,371.144 391,399.5C 384.645,418.438 371.478,426.272 351.5,423C 332.562,416.645 324.728,403.478 328,383.5C 331.349,370.985 339.182,362.985 351.5,359.5 Z M 354.5,376.5 C 351.614,377.879 349.114,379.879 347,382.5C 342.823,390.582 343.989,397.749 350.5,404C 358.582,408.177 365.749,407.011 372,400.5C 377.598,384.257 371.765,376.257 354.5,376.5 Z"/></g>
<g><path style="opacity:0.962" fill="#ef3227" d="M 431.5,359.5 C 459.978,357.811 473.145,371.144 471,399.5C 464.645,418.438 451.478,426.272 431.5,423C 412.562,416.645 404.728,403.478 408,383.5C 411.349,370.985 419.182,362.985 431.5,359.5 Z M 434.5,376.5 C 431.614,377.879 429.114,379.879 427,382.5C 422.823,390.582 423.989,397.749 430.5,404C 438.582,408.177 445.749,407.011 452,400.5C 457.598,384.257 451.765,376.257 434.5,376.5 Z"/></g>
</svg>
