<?xml version="1.0" encoding="UTF-8"?>
<!DOCTYPE svg PUBLIC "-//W3C//DTD SVG 1.1//EN" "http://www.w3.org/Graphics/SVG/1.1/DTD/svg11.dtd">
<svg xmlns="http://www.w3.org/2000/svg" version="1.1" width="512px" height="512px" style="shape-rendering:geometricPrecision; text-rendering:geometricPrecision; image-rendering:optimizeQuality; fill-rule:evenodd; clip-rule:evenodd" xmlns:xlink="http://www.w3.org/1999/xlink">
<g><path style="opacity:0.976" fill="#ef3428" d="M 114.5,6.5 C 119.461,5.6866 123.794,6.85327 127.5,10C 162,38.5 196.5,67 231,95.5C 231.667,98.5 231.667,101.5 231,104.5C 229.786,106.049 228.286,107.215 226.5,108C 216.837,108.637 207.17,109.137 197.5,109.5C 197.667,148.168 197.5,186.835 197,225.5C 196.315,228.057 194.815,229.891 192.5,231C 143.5,231.667 94.5,231.667 45.5,231C 43.1853,229.891 41.6853,228.057 41,225.5C 40.5,186.835 40.3333,148.168 40.5,109.5C 30.8298,109.137 21.1631,108.637 11.5,108C 9.71398,107.215 8.21398,106.049 7,104.5C 6.33333,101.5 6.33333,98.5 7,95.5C 42.7315,65.5918 78.5649,35.9251 114.5,6.5 Z M 118.5,55.5 C 139.397,71.5519 159.897,88.2186 180,105.5C 180.5,141.832 180.667,178.165 180.5,214.5C 173.833,214.5 167.167,214.5 160.5,214.5C 160.667,190.164 160.5,165.831 160,141.5C 157.5,132.333 151.667,126.5 142.5,124C 126.5,123.333 110.5,123.333 94.5,124C 86.9132,125.918 81.4132,130.418 78,137.5C 76.537,163.115 76.037,188.782 76.5,214.5C 70.1667,214.5 63.8333,214.5 57.5,214.5C 57.3333,178.165 57.5,141.832 58,105.5C 78.0649,88.5917 98.2316,71.925 118.5,55.5 Z"/></g>
<g><path style="opacity:1" fill="#f9bbb6" d="M 200.5,91.5 C 197.713,92.4767 194.713,92.81 191.5,92.5C 168.664,73.8337 145.664,55.3337 122.5,37C 119.833,36.3333 117.167,36.3333 114.5,37C 91.9594,55.7125 69.2927,74.2125 46.5,92.5C 43.2869,92.81 40.2869,92.4767 37.5,91.5C 64.5139,69.3202 91.6806,47.3202 119,25.5C 146.319,47.3202 173.486,69.3202 200.5,91.5 Z"/></g>
<g><path style="opacity:1" fill="#f4776e" d="M 37.5,91.5 C 40.2869,92.4767 43.2869,92.81 46.5,92.5C 43.3132,93.8056 39.9798,93.8056 36.5,92.5C 36.6236,91.8933 36.9569,91.56 37.5,91.5 Z"/></g>
<g><path style="opacity:1" fill="#f36d64" d="M 200.5,91.5 C 201.043,91.56 201.376,91.8933 201.5,92.5C 198.02,93.8056 194.687,93.8056 191.5,92.5C 194.713,92.81 197.713,92.4767 200.5,91.5 Z"/></g>
<g><path style="opacity:1" fill="#f9bfbb" d="M 95.5,140.5 C 110.504,140.333 125.504,140.5 140.5,141C 141.308,141.308 141.975,141.808 142.5,142.5C 143.49,166.788 143.823,191.122 143.5,215.5C 126.833,215.5 110.167,215.5 93.5,215.5C 93.3334,191.164 93.5,166.831 94,142.5C 94.7172,141.956 95.2172,141.289 95.5,140.5 Z"/></g>
<g><path style="opacity:0.971" fill="#ef3328" d="M 222.5,154.5 C 313.877,154.01 405.211,154.51 496.5,156C 500.058,157.892 502.558,160.725 504,164.5C 504.667,209.167 504.667,253.833 504,298.5C 502.073,303.428 498.573,306.594 493.5,308C 402.833,308.667 312.167,308.667 221.5,308C 216,306.5 212.5,303 211,297.5C 210.333,253.5 210.333,209.5 211,165.5C 213.027,159.91 216.861,156.243 222.5,154.5 Z M 265.5,195.5 C 327.17,195.167 388.837,195.5 450.5,196.5C 453.473,202.64 457.973,207.306 464,210.5C 464.5,224.829 464.667,239.163 464.5,253.5C 457.973,255.688 453.307,260.022 450.5,266.5C 388.504,267.5 326.504,267.833 264.5,267.5C 262.004,260.83 257.504,255.83 251,252.5C 250.333,238.5 250.333,224.5 251,210.5C 258.054,207.613 262.887,202.613 265.5,195.5 Z M 356.5,219.5 C 359.257,219.378 361.257,220.545 362.5,223C 359.615,223.279 356.948,222.612 354.5,221C 355.416,220.722 356.082,220.222 356.5,219.5 Z M 352.5,239.5 C 355.988,239.705 359.321,240.539 362.5,242C 359.97,243.422 357.303,243.755 354.5,243C 353.177,242.184 352.511,241.017 352.5,239.5 Z"/></g>
<g><path style="opacity:1" fill="#ef372b" d="M 128.5,165.5 C 132.888,164.943 136.055,166.61 138,170.5C 138.667,176.833 138.667,183.167 138,189.5C 133.7,194.446 129.033,194.779 124,190.5C 122.464,184.251 122.13,177.917 123,171.5C 124.36,168.977 126.193,166.977 128.5,165.5 Z"/></g>
<g><path style="opacity:1" fill="#f9bfbb" d="M 227.5,171.5 C 314.5,171.5 401.5,171.5 488.5,171.5C 488.5,211.5 488.5,251.5 488.5,291.5C 401.5,291.5 314.5,291.5 227.5,291.5C 227.5,251.5 227.5,211.5 227.5,171.5 Z M 265.5,195.5 C 262.887,202.613 258.054,207.613 251,210.5C 250.333,224.5 250.333,238.5 251,252.5C 257.504,255.83 262.004,260.83 264.5,267.5C 326.504,267.833 388.504,267.5 450.5,266.5C 453.307,260.022 457.973,255.688 464.5,253.5C 464.667,239.163 464.5,224.829 464,210.5C 457.973,207.306 453.473,202.64 450.5,196.5C 388.837,195.5 327.17,195.167 265.5,195.5 Z M 356.5,219.5 C 356.082,220.222 355.416,220.722 354.5,221C 356.948,222.612 359.615,223.279 362.5,223C 361.257,220.545 359.257,219.378 356.5,219.5 Z M 352.5,239.5 C 352.511,241.017 353.177,242.184 354.5,243C 357.303,243.755 359.97,243.422 362.5,242C 359.321,240.539 355.988,239.705 352.5,239.5 Z"/></g>
<g><path style="opacity:0.966" fill="#ef3529" d="M 255.5,178.5 C 323.501,178.333 391.501,178.5 459.5,179C 461.286,179.785 462.786,180.951 464,182.5C 465,185.833 466,189.167 467,192.5C 467.903,193.701 469.069,194.535 470.5,195C 473.232,195.413 475.899,196.08 478.5,197C 479.701,197.903 480.535,199.069 481,200.5C 481.667,221.167 481.667,241.833 481,262.5C 480.535,263.931 479.701,265.097 478.5,266C 469.623,266.877 464.79,271.71 464,280.5C 462.786,282.049 461.286,283.215 459.5,284C 391.5,284.667 323.5,284.667 255.5,284C 253.714,283.215 252.214,282.049 251,280.5C 250.846,276.902 249.846,273.569 248,270.5C 244.417,268.382 240.584,266.882 236.5,266C 235.54,264.581 234.707,263.081 234,261.5C 233.333,241.5 233.333,221.5 234,201.5C 235.975,196.856 239.475,194.69 244.5,195C 248.545,192.747 250.378,189.247 250,184.5C 251.36,181.977 253.193,179.977 255.5,178.5 Z M 265.5,195.5 C 262.887,202.613 258.054,207.613 251,210.5C 250.333,224.5 250.333,238.5 251,252.5C 257.504,255.83 262.004,260.83 264.5,267.5C 326.504,267.833 388.504,267.5 450.5,266.5C 453.307,260.022 457.973,255.688 464.5,253.5C 464.667,239.163 464.5,224.829 464,210.5C 457.973,207.306 453.473,202.64 450.5,196.5C 388.837,195.5 327.17,195.167 265.5,195.5 Z M 356.5,219.5 C 356.082,220.222 355.416,220.722 354.5,221C 356.948,222.612 359.615,223.279 362.5,223C 361.257,220.545 359.257,219.378 356.5,219.5 Z M 352.5,239.5 C 352.511,241.017 353.177,242.184 354.5,243C 357.303,243.755 359.97,243.422 362.5,242C 359.321,240.539 355.988,239.705 352.5,239.5 Z"/></g>
<g><path style="opacity:0.959" fill="#ef3227" d="M 355.5,196.5 C 360.956,196.026 364.456,198.359 366,203.5C 371.333,206.167 375.333,210.167 378,215.5C 379.662,221.173 377.829,225.173 372.5,227.5C 380.308,235.236 381.475,243.903 376,253.5C 373.436,255.727 370.603,257.561 367.5,259C 364.306,265.77 359.306,267.77 352.5,265C 350.438,263.468 349.104,261.468 348.5,259C 337.74,254.656 334.24,247.156 338,236.5C 339.419,235.54 340.919,234.707 342.5,234C 337.755,228.731 336.255,222.564 338,215.5C 339.7,210.09 343.2,206.423 348.5,204.5C 349.505,200.505 351.838,197.838 355.5,196.5 Z M 356.5,219.5 C 356.082,220.222 355.416,220.722 354.5,221C 356.948,222.612 359.615,223.279 362.5,223C 361.257,220.545 359.257,219.378 356.5,219.5 Z M 352.5,239.5 C 352.511,241.017 353.177,242.184 354.5,243C 357.303,243.755 359.97,243.422 362.5,242C 359.321,240.539 355.988,239.705 352.5,239.5 Z"/></g>
<g><path style="opacity:0.934" fill="#ef3227" d="M 274.5,223.5 C 285.505,223.333 296.505,223.5 307.5,224C 311.13,227.05 312.297,230.883 311,235.5C 309.363,237.81 307.196,239.31 304.5,240C 295.167,240.667 285.833,240.667 276.5,240C 270.905,237.646 269.072,233.479 271,227.5C 272.376,226.295 273.542,224.962 274.5,223.5 Z"/></g>
<g><path style="opacity:0.937" fill="#ef3227" d="M 408.5,223.5 C 419.172,223.333 429.839,223.5 440.5,224C 445.299,227.071 446.465,231.238 444,236.5C 442.681,238.487 440.848,239.654 438.5,240C 429.167,240.667 419.833,240.667 410.5,240C 403.852,237.53 402.019,233.03 405,226.5C 406.145,225.364 407.312,224.364 408.5,223.5 Z"/></g>
<g><path style="opacity:1" fill="#f57e77" d="M 227.5,171.5 C 227.5,211.5 227.5,251.5 227.5,291.5C 314.5,291.5 401.5,291.5 488.5,291.5C 401.335,292.499 314.002,292.833 226.5,292.5C 226.168,251.997 226.501,211.663 227.5,171.5 Z"/></g>
<g><path style="opacity:0.965" fill="#ef3328" d="M 157.5,312.5 C 164.23,312.226 170.897,312.726 177.5,314C 205.153,324.884 233.486,333.551 262.5,340C 279.702,349.217 285.702,363.05 280.5,381.5C 308.663,365.586 336.663,349.419 364.5,333C 374.165,327.224 384.498,323.224 395.5,321C 423.504,318.008 437.004,330.508 436,358.5C 434.513,366.975 430.346,373.808 423.5,379C 374,409.584 324.333,439.918 274.5,470C 263.188,474.207 251.521,475.54 239.5,474C 204.81,464.937 170.143,455.77 135.5,446.5C 131.145,448.025 127.145,450.192 123.5,453C 129.947,460.381 132.447,468.881 131,478.5C 129.353,483.156 126.52,486.989 122.5,490C 113.833,494.667 105.167,499.333 96.5,504C 87.6451,506.255 80.1451,504.088 74,497.5C 51.4134,457.995 29.08,418.329 7,378.5C 4.50701,368.982 7.00701,361.148 14.5,355C 22.995,350.587 31.3283,345.92 39.5,341C 49.1596,337.666 57.3263,339.833 64,347.5C 66,350.833 68,354.167 70,357.5C 93.7949,343.352 117.962,329.852 142.5,317C 147.577,315.32 152.577,313.82 157.5,312.5 Z M 159.5,329.5 C 164.58,329.25 169.58,329.75 174.5,331C 202.347,341.616 230.68,350.616 259.5,358C 267.858,366.917 266.858,374.584 256.5,381C 252.833,381.667 249.167,381.667 245.5,381C 229.029,376.966 212.695,372.466 196.5,367.5C 186.742,370.552 185.075,376.052 191.5,384C 212.224,390.431 233.224,395.764 254.5,400C 266.875,401.61 278.875,400.277 290.5,396C 319.833,379 349.167,362 378.5,345C 389.12,338.506 400.454,336.506 412.5,339C 420.93,346.761 421.597,355.095 414.5,364C 367.333,392.749 320.333,421.749 273.5,451C 263.885,456.653 253.552,458.653 242.5,457C 206.208,447.344 169.875,437.844 133.5,428.5C 126.963,430.435 120.963,433.435 115.5,437.5C 103.04,416.082 90.7069,394.582 78.5,373C 101.508,359.161 124.841,345.828 148.5,333C 152.254,331.691 155.921,330.525 159.5,329.5 Z"/></g>
<g><path style="opacity:1" fill="#f9beba" d="M 45.5,356.5 C 48.3252,356.162 50.4918,357.162 52,359.5C 73,396.833 94,434.167 115,471.5C 115.684,472.784 115.517,473.951 114.5,475C 106.245,480.461 97.5784,484.794 88.5,488C 66.5402,449.915 44.7069,411.748 23,373.5C 22.3698,371.097 23.2031,369.263 25.5,368C 32.3926,364.392 39.0593,360.559 45.5,356.5 Z"/></g>
<g><path style="opacity:1" fill="#ef382c" d="M 40.5,369.5 C 53.1492,369.971 56.1492,375.471 49.5,386C 43.9231,388.823 39.4231,387.657 36,382.5C 34.3809,376.968 35.8809,372.634 40.5,369.5 Z"/></g>
</svg>
