<?xml version="1.0" encoding="UTF-8"?>
<!DOCTYPE svg PUBLIC "-//W3C//DTD SVG 1.1//EN" "http://www.w3.org/Graphics/SVG/1.1/DTD/svg11.dtd">
<svg xmlns="http://www.w3.org/2000/svg" version="1.1" width="512px" height="512px" style="shape-rendering:geometricPrecision; text-rendering:geometricPrecision; image-rendering:optimizeQuality; fill-rule:evenodd; clip-rule:evenodd" xmlns:xlink="http://www.w3.org/1999/xlink">
<g><path style="opacity:0.982" fill="#ef3428" d="M 143.5,-0.5 C 147.833,-0.5 152.167,-0.5 156.5,-0.5C 158.741,0.620727 161.075,1.78739 163.5,3C 187.167,26.6667 210.833,50.3333 234.5,74C 248.5,74.6667 262.5,74.6667 276.5,74C 300.167,50.3333 323.833,26.6667 347.5,3C 349.925,1.78739 352.259,0.620727 354.5,-0.5C 358.833,-0.5 363.167,-0.5 367.5,-0.5C 383.446,7.16331 387.613,19.1633 380,35.5C 358.333,57.1667 336.667,78.8333 315,100.5C 316.003,106.711 316.503,113.044 316.5,119.5C 361.835,119.333 407.168,119.5 452.5,120C 484.008,126.011 503.675,144.511 511.5,175.5C 511.5,253.833 511.5,332.167 511.5,410.5C 505.25,437.289 489.083,455.289 463,464.5C 465.241,469.819 466.408,475.486 466.5,481.5C 465.619,496.362 458.286,506.362 444.5,511.5C 439.167,511.5 433.833,511.5 428.5,511.5C 424.683,510.16 421.017,508.326 417.5,506C 404.5,493 391.5,480 378.5,467C 296.5,466.333 214.5,466.333 132.5,467C 119.5,480 106.5,493 93.5,506C 89.9833,508.326 86.3166,510.16 82.5,511.5C 77.1667,511.5 71.8333,511.5 66.5,511.5C 45.3874,501.917 39.2207,486.25 48,464.5C 21.917,455.289 5.75032,437.289 -0.5,410.5C -0.5,332.167 -0.5,253.833 -0.5,175.5C 7.329,144.507 26.9957,126.007 58.5,120C 103.832,119.5 149.165,119.333 194.5,119.5C 194.4,113.032 194.9,106.699 196,100.5C 174.333,78.8333 152.667,57.1667 131,35.5C 123.387,19.1633 127.554,7.16331 143.5,-0.5 Z"/></g>
<g><path style="opacity:1" fill="#fefdfd" d="M 147.5,14.5 C 149.989,14.2978 152.323,14.7978 154.5,16C 175.167,36.6667 195.833,57.3333 216.5,78C 212.084,80.4117 208.251,83.5783 205,87.5C 184.667,67.1667 164.333,46.8333 144,26.5C 141.458,21.3612 142.624,17.3612 147.5,14.5 Z"/></g>
<g><path style="opacity:1" fill="#fefdfd" d="M 357.5,14.5 C 366.56,14.0461 369.727,18.0461 367,26.5C 346.667,46.8333 326.333,67.1667 306,87.5C 302.749,83.5783 298.916,80.4117 294.5,78C 315.702,56.9653 336.702,35.7986 357.5,14.5 Z"/></g>
<g><path style="opacity:1" fill="#fabeba" d="M 228.5,89.5 C 247.555,89.0511 266.555,89.5511 285.5,91C 297.722,96.6086 302.722,106.109 300.5,119.5C 270.5,119.5 240.5,119.5 210.5,119.5C 208.347,104.455 214.347,94.4546 228.5,89.5 Z"/></g>
<g><path style="opacity:1" fill="#fffcfc" d="M 60.5,134.5 C 189.5,134.333 318.5,134.5 447.5,135C 473.411,138.576 489.578,153.076 496,178.5C 496.667,253.833 496.667,329.167 496,404.5C 491.511,430.989 476.011,446.489 449.5,451C 319.5,451.667 189.5,451.667 59.5,451C 34.1909,445.563 19.3576,430.063 15,404.5C 14.3333,329.167 14.3333,253.833 15,178.5C 21.2402,154.424 36.4069,139.757 60.5,134.5 Z"/></g>
<g><path style="opacity:1" fill="#ef372b" d="M 60.5,165.5 C 189.834,165.333 319.167,165.5 448.5,166C 457.229,168.395 463.062,173.895 466,182.5C 466.667,255.5 466.667,328.5 466,401.5C 464.167,412.667 457.667,419.167 446.5,421C 318.5,421.667 190.5,421.667 62.5,421C 53.3333,418.5 47.5,412.667 45,403.5C 44.3333,329.833 44.3333,256.167 45,182.5C 47.9356,174.734 53.1023,169.067 60.5,165.5 Z"/></g>
<g><path style="opacity:1" fill="#fabfbb" d="M 63.5,180.5 C 191.5,180.333 319.5,180.5 447.5,181C 449.049,182.214 450.215,183.714 451,185.5C 451.667,257.167 451.667,328.833 451,400.5C 450.167,403.333 448.333,405.167 445.5,406C 318.5,406.667 191.5,406.667 64.5,406C 62.2739,404.773 60.7739,402.939 60,400.5C 59.3333,328.5 59.3333,256.5 60,184.5C 61.3756,183.295 62.5423,181.962 63.5,180.5 Z"/></g>
<g><path style="opacity:1" fill="#ef3429" d="M 197.5,285.5 C 191.107,288.212 187.107,286.212 185.5,279.5C 185.096,273.71 185.596,268.044 187,262.5C 197.412,258.137 201.912,261.637 200.5,273C 201,277.636 200,281.803 197.5,285.5 Z"/></g>
<g><path style="opacity:1" fill="#ef3429" d="M 325.5,279.5 C 323.893,286.212 319.893,288.212 313.5,285.5C 311,281.803 310,277.636 310.5,273C 309.088,261.637 313.588,258.137 324,262.5C 325.404,268.044 325.904,273.71 325.5,279.5 Z"/></g>
<g><path style="opacity:1" fill="#ef362a" d="M 236.5,271.5 C 238.199,271.34 239.866,271.506 241.5,272C 250.762,280.617 260.096,280.617 269.5,272C 276.667,271.167 279.833,274.333 279,281.5C 271.138,292.105 260.638,295.938 247.5,293C 241.876,291.044 237.043,287.877 233,283.5C 230.458,278.361 231.624,274.361 236.5,271.5 Z"/></g>
<g><path style="opacity:1" fill="#fe8a84" d="M 185.5,279.5 C 187.107,286.212 191.107,288.212 197.5,285.5C 210.262,301.543 207.262,314.043 188.5,323C 174.159,328.123 161.659,325.289 151,314.5C 142.935,299.429 146.769,288.263 162.5,281C 170.002,278.236 177.669,277.736 185.5,279.5 Z"/></g>
<g><path style="opacity:1" fill="#fe8a84" d="M 313.5,285.5 C 319.893,288.212 323.893,286.212 325.5,279.5C 339.415,276.639 351.248,280.306 361,290.5C 367.46,305.772 362.96,316.605 347.5,323C 333.172,328.126 320.672,325.293 310,314.5C 303.239,303.844 304.406,294.177 313.5,285.5 Z"/></g>
<g><path style="opacity:1" fill="#f15b52" d="M 68.5,466.5 C 82.6722,465.174 97.0055,465.174 111.5,466.5C 111.376,467.107 111.043,467.44 110.5,467.5C 96.6766,466.504 82.6766,466.171 68.5,466.5 Z"/></g>
<g><path style="opacity:1" fill="#f15b52" d="M 442.5,466.5 C 428.323,466.171 414.323,466.504 400.5,467.5C 399.957,467.44 399.624,467.107 399.5,466.5C 413.994,465.174 428.328,465.174 442.5,466.5 Z"/></g>
<g><path style="opacity:1" fill="#fefcfc" d="M 68.5,466.5 C 82.6766,466.171 96.6766,466.504 110.5,467.5C 101.368,476.131 92.3683,484.964 83.5,494C 72.3409,499.003 64.5075,495.836 60,484.5C 59.321,476.857 62.1543,470.857 68.5,466.5 Z"/></g>
<g><path style="opacity:1" fill="#fffcfc" d="M 400.5,467.5 C 414.323,466.504 428.323,466.171 442.5,466.5C 453.593,474.969 454.26,484.136 444.5,494C 438.833,497.333 433.167,497.333 427.5,494C 418.632,484.964 409.632,476.131 400.5,467.5 Z"/></g>
</svg>
