<?xml version="1.0" encoding="UTF-8"?>
<!DOCTYPE svg PUBLIC "-//W3C//DTD SVG 1.1//EN" "http://www.w3.org/Graphics/SVG/1.1/DTD/svg11.dtd">
<svg xmlns="http://www.w3.org/2000/svg" version="1.1" width="513px" height="513px" style="shape-rendering:geometricPrecision; text-rendering:geometricPrecision; image-rendering:optimizeQuality; fill-rule:evenodd; clip-rule:evenodd" xmlns:xlink="http://www.w3.org/1999/xlink">
<g><path style="opacity:0.974" fill="#ee3328" d="M 60.5,54.5 C 106.167,54.5 151.833,54.5 197.5,54.5C 197.5,100.167 197.5,145.833 197.5,191.5C 151.833,191.5 106.167,191.5 60.5,191.5C 60.5,145.833 60.5,100.167 60.5,54.5 Z M 89.5,83.5 C 115.833,83.5 142.167,83.5 168.5,83.5C 168.5,109.833 168.5,136.167 168.5,162.5C 142.167,162.5 115.833,162.5 89.5,162.5C 89.5,136.167 89.5,109.833 89.5,83.5 Z"/></g>
<g><path style="opacity:0.975" fill="#ef3327" d="M 263.5,54.5 C 278.833,54.5 294.167,54.5 309.5,54.5C 309.5,69.8333 309.5,85.1667 309.5,100.5C 294.5,100.5 279.5,100.5 264.5,100.5C 264.5,115.5 264.5,130.5 264.5,145.5C 279.5,145.5 294.5,145.5 309.5,145.5C 309.5,160.833 309.5,176.167 309.5,191.5C 279.167,191.5 248.833,191.5 218.5,191.5C 218.5,160.833 218.5,130.167 218.5,99.5C 233.5,99.5 248.5,99.5 263.5,99.5C 263.5,84.5 263.5,69.5 263.5,54.5 Z"/></g>
<g><path style="opacity:0.978" fill="#ee3328" d="M 330.5,54.5 C 375.833,54.5 421.167,54.5 466.5,54.5C 466.5,100.167 466.5,145.833 466.5,191.5C 421.167,191.5 375.833,191.5 330.5,191.5C 330.5,145.833 330.5,100.167 330.5,54.5 Z M 359.5,83.5 C 385.5,83.5 411.5,83.5 437.5,83.5C 437.5,109.833 437.5,136.167 437.5,162.5C 411.5,162.5 385.5,162.5 359.5,162.5C 359.5,136.167 359.5,109.833 359.5,83.5 Z"/></g>
<g><path style="opacity:0.992" fill="#ee3327" d="M 112.5,106.5 C 123.5,106.5 134.5,106.5 145.5,106.5C 145.5,117.5 145.5,128.5 145.5,139.5C 134.5,139.5 123.5,139.5 112.5,139.5C 112.5,128.5 112.5,117.5 112.5,106.5 Z"/></g>
<g><path style="opacity:0.967" fill="#ee3328" d="M 381.5,106.5 C 392.833,106.5 404.167,106.5 415.5,106.5C 415.5,117.5 415.5,128.5 415.5,139.5C 404.167,139.5 392.833,139.5 381.5,139.5C 381.5,128.5 381.5,117.5 381.5,106.5 Z"/></g>
<g><path style="opacity:0.965" fill="#ef3327" d="M 60.5,211.5 C 75.8333,211.5 91.1667,211.5 106.5,211.5C 106.5,226.833 106.5,242.167 106.5,257.5C 121.5,257.5 136.5,257.5 151.5,257.5C 151.5,242.167 151.5,226.833 151.5,211.5C 181.833,211.5 212.167,211.5 242.5,211.5C 242.5,242.167 242.5,272.833 242.5,303.5C 227.167,303.5 211.833,303.5 196.5,303.5C 196.5,288.5 196.5,273.5 196.5,258.5C 181.833,258.5 167.167,258.5 152.5,258.5C 152.5,273.5 152.5,288.5 152.5,303.5C 136.833,303.5 121.167,303.5 105.5,303.5C 105.5,288.5 105.5,273.5 105.5,258.5C 90.5,258.5 75.5,258.5 60.5,258.5C 60.5,242.833 60.5,227.167 60.5,211.5 Z"/></g>
<g><path style="opacity:0.977" fill="#ef3228" d="M 358.5,281.5 C 370.833,281.5 383.167,281.5 395.5,281.5C 395.5,305.167 395.5,328.833 395.5,352.5C 419.167,352.5 442.833,352.5 466.5,352.5C 466.5,364.833 466.5,377.167 466.5,389.5C 442.833,389.5 419.167,389.5 395.5,389.5C 395.5,413.167 395.5,436.833 395.5,460.5C 383.167,460.5 370.833,460.5 358.5,460.5C 358.5,436.833 358.5,413.167 358.5,389.5C 334.833,389.5 311.167,389.5 287.5,389.5C 287.5,377.167 287.5,364.833 287.5,352.5C 311.167,352.5 334.833,352.5 358.5,352.5C 358.5,328.833 358.5,305.167 358.5,281.5 Z"/></g>
<g><path style="opacity:0.978" fill="#ee3328" d="M 60.5,324.5 C 106.833,324.5 153.167,324.5 199.5,324.5C 199.5,369.833 199.5,415.167 199.5,460.5C 153.167,460.5 106.833,460.5 60.5,460.5C 60.5,415.167 60.5,369.833 60.5,324.5 Z M 89.5,353.5 C 116.5,353.5 143.5,353.5 170.5,353.5C 170.5,379.5 170.5,405.5 170.5,431.5C 143.5,431.5 116.5,431.5 89.5,431.5C 89.5,405.5 89.5,379.5 89.5,353.5 Z"/></g>
<g><path style="opacity:0.937" fill="#ef3327" d="M 113.5,373.5 C 124.833,373.5 136.167,373.5 147.5,373.5C 147.5,384.833 147.5,396.167 147.5,407.5C 136.167,407.5 124.833,407.5 113.5,407.5C 113.5,396.167 113.5,384.833 113.5,373.5 Z"/></g>
</svg>
