<?xml version="1.0" encoding="UTF-8"?>
<!DOCTYPE svg PUBLIC "-//W3C//DTD SVG 1.1//EN" "http://www.w3.org/Graphics/SVG/1.1/DTD/svg11.dtd">
<svg xmlns="http://www.w3.org/2000/svg" version="1.1" width="512px" height="512px" style="shape-rendering:geometricPrecision; text-rendering:geometricPrecision; image-rendering:optimizeQuality; fill-rule:evenodd; clip-rule:evenodd" xmlns:xlink="http://www.w3.org/1999/xlink">
<g><path style="opacity:0.979" fill="#ef3328" d="M 393.5,-0.5 C 394.5,-0.5 395.5,-0.5 396.5,-0.5C 429.227,35.6212 458.061,74.6212 483,116.5C 495.422,138.1 504.088,161.1 509,185.5C 513.231,234.201 495.065,272.035 454.5,299C 424.407,315.743 392.74,319.576 359.5,310.5C 359.405,307.303 360.072,304.303 361.5,301.5C 362.924,299.485 363.59,297.152 363.5,294.5C 410.156,305.673 447.989,292.34 477,254.5C 492.47,230.015 496.803,203.682 490,175.5C 480.869,148.573 468.536,123.24 453,99.5C 435.57,72.9008 416.07,47.9008 394.5,24.5C 363.284,59.4125 336.617,97.5791 314.5,139C 325.361,149.867 333.861,162.367 340,176.5C 344.877,189.404 346.711,202.737 345.5,216.5C 352.599,216.754 357.765,220.087 361,226.5C 361.926,236.907 361.592,247.241 360,257.5C 357.313,261.194 353.813,263.694 349.5,265C 336.327,265.169 323.327,265.669 310.5,266.5C 294.163,266.667 277.83,266.5 261.5,266C 253.333,264.5 248.5,259.667 247,251.5C 246.333,244.5 246.333,237.5 247,230.5C 248.79,221.71 254.123,216.71 263,215.5C 264.942,209.11 263.109,204.277 257.5,201C 243.171,200.5 228.837,200.333 214.5,200.5C 214.397,208.208 210.731,213.375 203.5,216C 172.5,216.667 141.5,216.667 110.5,216C 103.477,213.154 99.8104,207.987 99.5,200.5C 66.5,200.5 33.5,200.5 0.5,200.5C 0.5,172.833 0.5,145.167 0.5,117.5C 33.5,117.5 66.5,117.5 99.5,117.5C 100.5,107.833 105.833,102.5 115.5,101.5C 115.334,94.825 115.5,88.1583 116,81.5C 118.553,73.4685 124.053,69.1352 132.5,68.5C 132.5,63.1667 132.5,57.8333 132.5,52.5C 119.496,52.6666 106.496,52.4999 93.5,52C 87.3839,49.5489 83.8839,45.0489 83,38.5C 82.1301,30.103 82.4635,21.7697 84,13.5C 86.4511,7.38385 90.9511,3.88385 97.5,3C 137.167,2.33333 176.833,2.33333 216.5,3C 223.79,4.28784 228.623,8.4545 231,15.5C 231.667,23.8333 231.667,32.1667 231,40.5C 229.257,45.9104 225.757,49.7437 220.5,52C 207.838,52.4999 195.171,52.6666 182.5,52.5C 182.5,57.8333 182.5,63.1667 182.5,68.5C 188.815,69.076 193.649,72.076 197,77.5C 198.401,85.4148 198.901,93.4148 198.5,101.5C 208.781,101.961 214.114,107.294 214.5,117.5C 233.534,117.109 252.534,117.609 271.5,119C 281.671,120.723 291.171,124.223 300,129.5C 325.959,82.3813 357.126,39.0479 393.5,-0.5 Z"/></g>
<g><path style="opacity:1" fill="#fefefe" d="M 133.5,20.5 C 132.231,25.4859 132.231,30.4859 133.5,35.5C 122.5,35.5 111.5,35.5 100.5,35.5C 100.5,30.5 100.5,25.5 100.5,20.5C 111.5,20.5 122.5,20.5 133.5,20.5 Z"/></g>
<g><path style="opacity:1" fill="#fff6f6" d="M 154.5,19.5 C 163.365,19.8474 166.532,24.1807 164,32.5C 158.837,38.0623 154.171,37.729 150,31.5C 148.309,26.1311 149.809,22.1311 154.5,19.5 Z"/></g>
<g><path style="opacity:1" fill="#fff7f6" d="M 180.5,19.5 C 191.833,19.5 203.167,19.5 214.5,19.5C 214.5,25.1667 214.5,30.8333 214.5,36.5C 203.167,36.5 191.833,36.5 180.5,36.5C 181.716,30.8116 181.716,25.1449 180.5,19.5 Z"/></g>
<g><path style="opacity:0.999" fill="#fffdfd" d="M 361.5,301.5 C 356.176,300.282 351.176,298.282 346.5,295.5C 345.515,291.366 345.182,287.032 345.5,282.5C 339.537,281.955 333.87,282.621 328.5,284.5C 322.167,278.833 316.167,272.833 310.5,266.5C 323.327,265.669 336.327,265.169 349.5,265C 353.813,263.694 357.313,261.194 360,257.5C 361.592,247.241 361.926,236.907 361,226.5C 357.765,220.087 352.599,216.754 345.5,216.5C 346.711,202.737 344.877,189.404 340,176.5C 333.861,162.367 325.361,149.867 314.5,139C 336.617,97.5791 363.284,59.4125 394.5,24.5C 416.07,47.9008 435.57,72.9008 453,99.5C 468.536,123.24 480.869,148.573 490,175.5C 496.803,203.682 492.47,230.015 477,254.5C 447.989,292.34 410.156,305.673 363.5,294.5C 363.59,297.152 362.924,299.485 361.5,301.5 Z"/></g>
<g><path style="opacity:1" fill="#fabfbb" d="M 133.5,20.5 C 122.5,20.5 111.5,20.5 100.5,20.5C 100.5,25.5 100.5,30.5 100.5,35.5C 111.5,35.5 122.5,35.5 133.5,35.5C 122.346,36.4948 111.012,36.8281 99.5,36.5C 99.5,30.8333 99.5,25.1667 99.5,19.5C 111.012,19.1719 122.346,19.5052 133.5,20.5 Z"/></g>
<g><path style="opacity:1" fill="#f9beba" d="M 149.5,52.5 C 154.833,52.5 160.167,52.5 165.5,52.5C 165.5,57.8333 165.5,63.1667 165.5,68.5C 165.5,63.1667 165.5,57.8333 165.5,52.5C 160.167,52.5 154.833,52.5 149.5,52.5 Z"/></g>
<g><path style="opacity:1" fill="#f37168" d="M 149.5,52.5 C 149.5,57.8333 149.5,63.1667 149.5,68.5C 154.833,68.5 160.167,68.5 165.5,68.5C 160.025,69.4889 154.358,69.8222 148.5,69.5C 148.178,63.642 148.511,57.9753 149.5,52.5 Z"/></g>
<g><path style="opacity:1" fill="#f9bfbb" d="M 132.5,85.5 C 148.833,85.5 165.167,85.5 181.5,85.5C 181.5,90.8333 181.5,96.1667 181.5,101.5C 165.167,101.5 148.833,101.5 132.5,101.5C 132.5,96.1667 132.5,90.8333 132.5,85.5 Z"/></g>
<g><path style="opacity:1" fill="#f9bfbb" d="M 17.5,134.5 C 44.8333,134.5 72.1667,134.5 99.5,134.5C 99.5,150.833 99.5,167.167 99.5,183.5C 72.1667,183.5 44.8333,183.5 17.5,183.5C 17.5,167.167 17.5,150.833 17.5,134.5 Z"/></g>
<g><path style="opacity:1" fill="#f9bfbb" d="M 214.5,134.5 C 233.204,134.096 251.87,134.596 270.5,136C 310.505,147.817 330.172,174.65 329.5,216.5C 313.167,216.5 296.833,216.5 280.5,216.5C 282.454,199.211 275.121,188.378 258.5,184C 243.837,183.5 229.17,183.333 214.5,183.5C 214.5,167.167 214.5,150.833 214.5,134.5 Z"/></g>
<g><path style="opacity:1" fill="#ee3327" d="M 34.5,151.5 C 50.5,151.5 66.5,151.5 82.5,151.5C 82.5,156.5 82.5,161.5 82.5,166.5C 66.5,166.5 50.5,166.5 34.5,166.5C 34.5,161.5 34.5,156.5 34.5,151.5 Z"/></g>
<g><path style="opacity:1" fill="#ef3a2e" d="M 466.5,164.5 C 467.5,164.5 468.5,164.5 469.5,164.5C 470.967,169.275 472.3,174.109 473.5,179C 473.415,180.107 473.081,181.107 472.5,182C 468.267,182.933 464.1,184.1 460,185.5C 459.055,185.095 458.388,184.428 458,183.5C 456.765,178.709 455.265,174.042 453.5,169.5C 458.223,168.63 462.556,166.964 466.5,164.5 Z"/></g>
<g><path style="opacity:1" fill="#f1574d" d="M 34.5,151.5 C 50.6581,150.504 66.9915,150.17 83.5,150.5C 83.5,156.167 83.5,161.833 83.5,167.5C 66.9915,167.83 50.6581,167.496 34.5,166.5C 50.5,166.5 66.5,166.5 82.5,166.5C 82.5,161.5 82.5,156.5 82.5,151.5C 66.5,151.5 50.5,151.5 34.5,151.5 Z"/></g>
<g><path style="opacity:1" fill="#f4776f" d="M 116.5,118.5 C 143.662,117.502 170.995,117.169 198.5,117.5C 198.5,145.167 198.5,172.833 198.5,200.5C 170.833,200.5 143.167,200.5 115.5,200.5C 115.169,172.995 115.502,145.662 116.5,118.5 Z"/></g>
<g><path style="opacity:1" fill="#f9c0bb" d="M 116.5,118.5 C 143.5,118.5 170.5,118.5 197.5,118.5C 197.5,145.5 197.5,172.5 197.5,199.5C 170.5,199.5 143.5,199.5 116.5,199.5C 116.5,172.5 116.5,145.5 116.5,118.5 Z"/></g>
<g><path style="opacity:1" fill="#ef362a" d="M 399.5,281.5 C 398.167,281.5 396.833,281.5 395.5,281.5C 395.5,276.167 395.5,270.833 395.5,265.5C 429.136,263.361 450.303,246.028 459,213.5C 459.923,209.21 460.423,204.877 460.5,200.5C 465.833,200.5 471.167,200.5 476.5,200.5C 473.764,241.47 452.764,267.97 413.5,280C 408.844,280.665 404.177,281.165 399.5,281.5 Z"/></g>
<g><path style="opacity:1" fill="#f9c0bb" d="M 345.5,233.5 C 345.5,238.5 345.5,243.5 345.5,248.5C 318.5,248.5 291.5,248.5 264.5,248.5C 264.5,243.5 264.5,238.5 264.5,233.5C 291.5,233.5 318.5,233.5 345.5,233.5 Z"/></g>
<g><path style="opacity:1" fill="#f79892" d="M 345.5,233.5 C 318.5,233.5 291.5,233.5 264.5,233.5C 264.5,238.5 264.5,243.5 264.5,248.5C 291.5,248.5 318.5,248.5 345.5,248.5C 318.338,249.498 291.005,249.831 263.5,249.5C 263.5,243.833 263.5,238.167 263.5,232.5C 291.005,232.169 318.338,232.502 345.5,233.5 Z"/></g>
<g><path style="opacity:1" fill="#f5817a" d="M 395.5,265.5 C 395.5,270.833 395.5,276.167 395.5,281.5C 396.833,281.5 398.167,281.5 399.5,281.5C 398.081,282.451 396.415,282.784 394.5,282.5C 394.178,276.642 394.511,270.975 395.5,265.5 Z"/></g>
<g><path style="opacity:0.929" fill="#ef3327" d="M 263.5,281.5 C 269.167,281.5 274.833,281.5 280.5,281.5C 280.5,292.833 280.5,304.167 280.5,315.5C 274.833,315.5 269.167,315.5 263.5,315.5C 263.5,304.167 263.5,292.833 263.5,281.5 Z"/></g>
<g><path style="opacity:0.965" fill="#ef3328" d="M 328.5,284.5 C 333.87,282.621 339.537,281.955 345.5,282.5C 345.182,287.032 345.515,291.366 346.5,295.5C 346.172,322.408 346.505,349.241 347.5,376C 361.604,381.683 374.938,380.349 387.5,372C 394.252,365.244 401.586,359.244 409.5,354C 425.391,346.504 441.724,345.504 458.5,351C 462.759,352.934 466.759,355.268 470.5,358C 477.252,364.756 484.586,370.756 492.5,376C 498.186,378.754 504.186,379.921 510.5,379.5C 510.5,385.5 510.5,391.5 510.5,397.5C 500.175,397.558 490.508,395.058 481.5,390C 473.251,384.422 465.584,378.088 458.5,371C 442.946,361.815 427.946,362.481 413.5,373C 435.696,380.542 445.863,396.042 444,419.5C 437.765,444.874 421.598,456.374 395.5,454C 374.546,448.548 363.213,435.048 361.5,413.5C 361.604,408.312 362.604,403.312 364.5,398.5C 358.804,397.273 353.137,395.94 347.5,394.5C 346.5,411.821 346.167,429.154 346.5,446.5C 340.5,446.5 334.5,446.5 328.5,446.5C 328.667,425.497 328.5,404.497 328,383.5C 323.333,379.5 318.667,375.5 314,371.5C 313.5,380.16 313.334,388.827 313.5,397.5C 307.5,397.5 301.5,397.5 295.5,397.5C 295.5,386.5 295.5,375.5 295.5,364.5C 285.002,363.623 275.669,366.456 267.5,373C 263.357,377.233 259.023,381.233 254.5,385C 265.222,395.06 267.055,406.56 260,419.5C 251.329,429.491 240.829,432.324 228.5,428C 216.381,420.985 212.048,410.652 215.5,397C 206.088,396.751 197.421,394.085 189.5,389C 181.833,382.667 174.167,376.333 166.5,370C 151.169,361.905 136.502,362.905 122.5,373C 115.748,379.756 108.414,385.756 100.5,391C 78.6124,401.011 57.9458,399.011 38.5,385C 32.4596,379.291 26.1263,373.957 19.5,369C 13.5767,365.769 7.24335,364.269 0.5,364.5C 0.5,358.833 0.5,353.167 0.5,347.5C 12.6354,346.783 23.6354,349.95 33.5,357C 40.1667,362.667 46.8333,368.333 53.5,374C 67.1667,381.333 80.8333,381.333 94.5,374C 104.1,364.066 115.1,356.066 127.5,350C 145.089,345.066 161.756,347.066 177.5,356C 185.167,362.333 192.833,368.667 200.5,375C 213.674,381.245 226.674,380.911 239.5,374C 246.46,368.708 253.127,363.042 259.5,357C 270.326,349.46 282.326,346.293 295.5,347.5C 295.5,325.5 295.5,303.5 295.5,281.5C 301.5,281.5 307.5,281.5 313.5,281.5C 313.333,304.836 313.5,328.169 314,351.5C 319.143,353.739 323.81,356.739 328,360.5C 328.5,335.169 328.667,309.836 328.5,284.5 Z"/></g>
<g><path style="opacity:1" fill="#fffcfc" d="M 397.5,388.5 C 421.662,389.153 430.829,401.153 425,424.5C 416.699,437.064 405.533,440.564 391.5,435C 377.734,425.371 374.901,413.204 383,398.5C 386.977,393.774 391.811,390.441 397.5,388.5 Z"/></g>
<g><path style="opacity:1" fill="#fff6f5" d="M 236.5,396.5 C 245.672,397.165 248.506,401.831 245,410.5C 240.03,414.681 235.697,414.014 232,408.5C 230.474,403.239 231.974,399.239 236.5,396.5 Z"/></g>
<g><path style="opacity:0.971" fill="#ef3328" d="M 311.5,511.5 C 306.833,511.5 302.167,511.5 297.5,511.5C 281.696,504.215 276.53,492.215 282,475.5C 292.174,460.931 305.007,458.098 320.5,467C 330.233,476.821 332.066,487.988 326,500.5C 322.143,505.532 317.31,509.199 311.5,511.5 Z"/></g>
<g><path style="opacity:1" fill="#fff5f4" d="M 302.5,478.5 C 310.905,479.379 313.739,483.712 311,491.5C 304.031,497.447 299.198,495.947 296.5,487C 297.174,483.17 299.174,480.336 302.5,478.5 Z"/></g>
</svg>
