<?xml version="1.0" encoding="UTF-8"?>
<!DOCTYPE svg PUBLIC "-//W3C//DTD SVG 1.1//EN" "http://www.w3.org/Graphics/SVG/1.1/DTD/svg11.dtd">
<svg xmlns="http://www.w3.org/2000/svg" version="1.1" width="568px" height="513px" style="shape-rendering:geometricPrecision; text-rendering:geometricPrecision; image-rendering:optimizeQuality; fill-rule:evenodd; clip-rule:evenodd" xmlns:xlink="http://www.w3.org/1999/xlink">
<g><path style="opacity:0.995" fill="#ef3328" d="M 567.5,230.5 C 567.5,248.167 567.5,265.833 567.5,283.5C 555.292,303.887 539.625,321.387 520.5,336C 473.012,374.447 422.012,407.78 367.5,436C 345.989,447.256 324.323,458.256 302.5,469C 268.27,484.013 233.937,498.513 199.5,512.5C 186.167,512.5 172.833,512.5 159.5,512.5C 132.563,502.888 116.896,483.888 112.5,455.5C 211.971,424.259 305.304,380.426 392.5,324C 405.451,314.717 418.118,305.05 430.5,295C 456.82,271.119 457.154,246.786 431.5,222C 396.596,194.125 359.262,169.792 319.5,149C 254.133,116.047 186.799,87.8801 117.5,64.5C 117.5,63.8333 117.167,63.5 116.5,63.5C 115.167,63.1667 113.833,62.8333 112.5,62.5C 120.311,24.1645 143.811,4.16454 183,2.5C 191.024,3.28044 198.857,5.11377 206.5,8C 325.467,51.2858 433.801,112.286 531.5,191C 545.524,202.515 557.524,215.681 567.5,230.5 Z"/></g>
<g><path style="opacity:0.999" fill="#fe9088" d="M 111.5,63.5 C 101.084,127.238 95.0844,191.404 93.5,256C 94.4263,286.529 95.9263,317.029 98,347.5C 102.361,381.105 106.194,414.772 109.5,448.5C 109.5,449.167 109.833,449.5 110.5,449.5C 110.5,451.5 110.5,453.5 110.5,455.5C 66.386,470.193 37.2194,455.527 23,411.5C 10.2725,374.574 5.10581,336.574 7.5,297.5C 7.83544,252.818 8.66877,208.151 10,163.5C 12.4105,140.191 18.4105,117.857 28,96.5C 32.9461,86.2223 39.4461,77.0557 47.5,69C 57.8237,61.7097 69.3237,58.2097 82,58.5C 92.0542,58.9446 101.888,60.6112 111.5,63.5 Z"/></g>
<g><path style="opacity:0.997" fill="#fabfbb" d="M 112.5,62.5 C 113.833,62.8333 115.167,63.1667 116.5,63.5C 117.167,63.5 117.5,63.8333 117.5,64.5C 186.799,87.8801 254.133,116.047 319.5,149C 359.262,169.792 396.596,194.125 431.5,222C 457.154,246.786 456.82,271.119 430.5,295C 418.118,305.05 405.451,314.717 392.5,324C 305.304,380.426 211.971,424.259 112.5,455.5C 111.833,455.5 111.167,455.5 110.5,455.5C 110.5,453.5 110.5,451.5 110.5,449.5C 109.833,449.5 109.5,449.167 109.5,448.5C 106.194,414.772 102.361,381.105 98,347.5C 95.9263,317.029 94.4263,286.529 93.5,256C 95.0844,191.404 101.084,127.238 111.5,63.5C 111.5,62.8333 111.833,62.5 112.5,62.5 Z M 176.5,167.5 C 180.582,167.344 184.582,167.844 188.5,169C 224.764,183.964 260.43,200.297 295.5,218C 311.435,227.605 327.101,237.605 342.5,248C 345.762,250.592 348.262,253.759 350,257.5C 350.325,259.553 349.991,261.553 349,263.5C 342.314,270.421 334.814,276.254 326.5,281C 311.663,289.919 296.663,298.586 281.5,307C 249.918,322.304 217.918,336.637 185.5,350C 178.414,352.354 173.581,350.187 171,343.5C 169.939,338.896 169.273,334.229 169,329.5C 166.346,283.167 166.012,236.834 168,190.5C 168.257,181.754 171.09,174.087 176.5,167.5 Z"/></g>
</svg>
