<?xml version="1.0" encoding="UTF-8"?>
<!DOCTYPE svg PUBLIC "-//W3C//DTD SVG 1.1//EN" "http://www.w3.org/Graphics/SVG/1.1/DTD/svg11.dtd">
<svg xmlns="http://www.w3.org/2000/svg" version="1.1" width="512px" height="512px" style="shape-rendering:geometricPrecision; text-rendering:geometricPrecision; image-rendering:optimizeQuality; fill-rule:evenodd; clip-rule:evenodd" xmlns:xlink="http://www.w3.org/1999/xlink">
<g><path style="opacity:0.967" fill="#ef3227" d="M 511.5,234.5 C 511.5,249.5 511.5,264.5 511.5,279.5C 506.691,326.76 490.524,369.76 463,408.5C 458.747,412.626 453.913,413.459 448.5,411C 443.646,407.064 442.479,402.231 445,396.5C 495.793,323.816 504.793,246.149 472,163.5C 434.253,83.3513 371.419,36.8513 283.5,24C 222.808,17.3394 167.474,31.3394 117.5,66C 105.233,67.6406 100.733,62.4739 104,50.5C 139.529,24.3134 179.363,8.48005 223.5,3C 311.156,-5.78963 385.323,21.377 446,84.5C 483.625,127.52 505.458,177.52 511.5,234.5 Z"/></g>
<g><path style="opacity:0.986" fill="#ef3328" d="M 194.5,52.5 C 210.603,50.6321 222.103,56.9655 229,71.5C 230.471,95.7682 230.971,120.101 230.5,144.5C 247.167,144.5 263.833,144.5 280.5,144.5C 280.029,120.101 280.529,95.7682 282,71.5C 291.058,54.2542 304.891,48.7542 323.5,55C 331.537,59.3693 337.037,65.8693 340,74.5C 340.167,97.8405 340.667,121.174 341.5,144.5C 367.214,152.074 377.38,169.074 372,195.5C 367.267,207.899 358.601,216.232 346,220.5C 345.667,240.5 345.333,260.5 345,280.5C 338.59,314.074 319.757,337.741 288.5,351.5C 287.669,359.145 287.169,366.812 287,374.5C 283.409,383.924 276.575,388.924 266.5,389.5C 266.333,415.835 266.5,442.169 267,468.5C 271.224,481.063 279.891,488.063 293,489.5C 330.182,483.154 364.015,468.987 394.5,447C 405.447,444.947 410.28,449.447 409,460.5C 407.878,462.624 406.378,464.457 404.5,466C 371.27,489.942 334.27,504.442 293.5,509.5C 268.305,508.466 252.472,495.8 246,471.5C 245.5,444.169 245.333,416.835 245.5,389.5C 234.872,389.36 227.705,384.36 224,374.5C 223.831,366.812 223.331,359.145 222.5,351.5C 191.243,337.741 172.41,314.074 166,280.5C 165.667,260.5 165.333,240.5 165,220.5C 140.838,210.504 132.505,192.837 140,167.5C 146.154,155.186 155.988,147.519 169.5,144.5C 170.028,120.111 170.862,95.7777 172,71.5C 176.689,61.6292 184.189,55.2959 194.5,52.5 Z"/></g>
<g><path style="opacity:0.94" fill="#ef3227" d="M 77.5,73.5 C 88.0324,73.1989 92.1991,78.1989 90,88.5C 86.7231,94.1088 81.8897,95.9422 75.5,94C 67.0712,86.3039 67.7379,79.4706 77.5,73.5 Z"/></g>
<g><path style="opacity:1" fill="#fffefe" d="M 197.5,72.5 C 203.077,72.3706 207.244,74.704 210,79.5C 210.5,101.164 210.667,122.831 210.5,144.5C 203.833,144.5 197.167,144.5 190.5,144.5C 190.333,122.831 190.5,101.164 191,79.5C 192.694,76.6424 194.861,74.309 197.5,72.5 Z"/></g>
<g><path style="opacity:1" fill="#fffefe" d="M 307.5,72.5 C 313.077,72.3706 317.244,74.704 320,79.5C 320.5,101.164 320.667,122.831 320.5,144.5C 313.833,144.5 307.167,144.5 300.5,144.5C 300.333,122.831 300.5,101.164 301,79.5C 302.694,76.6424 304.861,74.309 307.5,72.5 Z"/></g>
<g><path style="opacity:0.972" fill="#ef3328" d="M -0.5,279.5 C -0.5,264.5 -0.5,249.5 -0.5,234.5C 4.1121,187.159 20.4454,144.326 48.5,106C 54.2848,102.586 59.4515,103.42 64,108.5C 65.3185,111.406 65.6518,114.406 65,117.5C 16.127,190.218 7.46036,267.551 39,349.5C 45.7183,364.609 53.7183,378.942 63,392.5C 86.1888,383.453 104.855,389.12 119,409.5C 128.169,429.309 125.336,447.142 110.5,463C 94.5767,474.976 77.5767,476.643 59.5,468C 41.0995,455.343 34.9328,438.176 41,416.5C 42.1811,412.637 44.0144,409.137 46.5,406C 19.8508,367.883 4.18414,325.716 -0.5,279.5 Z"/></g>
<g><path style="opacity:1" fill="#fabeba" d="M 171.5,164.5 C 226.834,164.333 282.168,164.5 337.5,165C 352.744,169.654 356.911,179.154 350,193.5C 347.635,196.869 344.468,199.036 340.5,200C 283.5,200.667 226.5,200.667 169.5,200C 157.994,194.149 154.827,185.315 160,173.5C 163.136,169.522 166.969,166.522 171.5,164.5 Z"/></g>
<g><path style="opacity:1" fill="#fabeba" d="M 185.5,220.5 C 232.167,220.5 278.833,220.5 325.5,220.5C 325.667,238.503 325.5,256.503 325,274.5C 317.791,314.043 294.125,334.71 254,336.5C 215.469,333.305 192.802,312.638 186,274.5C 185.5,256.503 185.333,238.503 185.5,220.5 Z"/></g>
<g><path style="opacity:1" fill="#ef352a" d="M 263.5,225.5 C 275.854,225.559 279.687,231.225 275,242.5C 270.454,247.377 266.287,252.544 262.5,258C 266.951,258.13 271.284,258.796 275.5,260C 279.035,262.707 280.202,266.207 279,270.5C 271.7,283.813 264.366,297.147 257,310.5C 251.942,315.383 246.609,315.716 241,311.5C 238.826,308.454 238.159,305.12 239,301.5C 243.42,294.329 247.586,286.996 251.5,279.5C 246.423,278.895 241.423,278.062 236.5,277C 232.424,273.774 230.924,269.607 232,264.5C 242.394,251.287 252.894,238.287 263.5,225.5 Z"/></g>
<g><path style="opacity:1" fill="#fffbfb" d="M 243.5,356.5 C 251.5,356.5 259.5,356.5 267.5,356.5C 267.5,360.5 267.5,364.5 267.5,368.5C 259.5,368.5 251.5,368.5 243.5,368.5C 243.5,364.5 243.5,360.5 243.5,356.5 Z"/></g>
<g><path style="opacity:1" fill="#fabeba" d="M 75.5,408.5 C 97.2205,408.043 106.054,418.376 102,439.5C 95.8784,451.212 86.3784,455.379 73.5,452C 59.9059,444.641 56.0725,433.808 62,419.5C 65.6656,414.758 70.1656,411.092 75.5,408.5 Z"/></g>
<g><path style="opacity:0.936" fill="#ef3227" d="M 425.5,420.5 C 436.486,419.653 440.986,424.653 439,435.5C 434.66,441.864 429.16,443.031 422.5,439C 417.047,431.841 418.047,425.674 425.5,420.5 Z"/></g>
</svg>
