<?xml version="1.0" encoding="UTF-8"?>
<!DOCTYPE svg PUBLIC "-//W3C//DTD SVG 1.1//EN" "http://www.w3.org/Graphics/SVG/1.1/DTD/svg11.dtd">
<svg xmlns="http://www.w3.org/2000/svg" version="1.1" width="512px" height="512px" style="shape-rendering:geometricPrecision; text-rendering:geometricPrecision; image-rendering:optimizeQuality; fill-rule:evenodd; clip-rule:evenodd" xmlns:xlink="http://www.w3.org/1999/xlink">
<g><path style="opacity:0.977" fill="#ef3328" d="M 186.5,0.5 C 246.834,0.333338 307.168,0.500005 367.5,1C 389.244,5.74383 402.744,18.9105 408,40.5C 408.333,54.8333 408.667,69.1667 409,83.5C 434.167,100.667 459.333,117.833 484.5,135C 504.24,153.649 508.073,175.149 496,199.5C 467,241.833 438,284.167 409,326.5C 408.667,353.167 408.333,379.833 408,406.5C 402.582,430.916 387.415,444.416 362.5,447C 350.153,447.167 337.82,447.667 325.5,448.5C 314.862,464.304 304.028,479.971 293,495.5C 275.342,511.723 255.509,514.889 233.5,505C 205.5,486 177.5,467 149.5,448C 135.135,447.847 120.802,447.18 106.5,446C 85.3297,440.497 72.8297,426.997 69,405.5C 68.8283,400.798 68.3283,396.132 67.5,391.5C 53.1667,381.667 38.8333,371.833 24.5,362C 7.11478,343.863 3.61478,323.363 14,300.5C 32.2472,274.34 50.2472,248.007 68,221.5C 68.3333,186.167 68.6667,150.833 69,115.5C 70.145,108.732 72.4783,102.399 76,96.5C 84.1359,87.3631 92.6359,78.5298 101.5,70C 121.469,51.6987 141.136,33.032 160.5,14C 167.992,7.08835 176.659,2.58835 186.5,0.5 Z"/></g>
<g><path style="opacity:1" fill="#f9bfbb" d="M 189.5,12.5 C 247.834,12.3333 306.168,12.5 364.5,13C 381.843,16.09 392.343,26.2567 396,43.5C 396.667,163.167 396.667,282.833 396,402.5C 393.155,419.012 383.655,429.512 367.5,434C 281.5,434.667 195.5,434.667 109.5,434C 93.3593,429.525 83.8593,419.025 81,402.5C 80.0119,306.131 80.3452,209.798 82,113.5C 83.4728,109.221 85.4728,105.221 88,101.5C 116.354,73.4231 145.188,45.9231 174.5,19C 179.367,16.2259 184.367,14.0593 189.5,12.5 Z"/></g>
<g><path style="opacity:1" fill="#f3483e" d="M 408.5,98.5 C 408.167,167.002 408.501,235.335 409.5,303.5C 409.44,304.043 409.107,304.376 408.5,304.5C 407.168,235.668 407.168,167.001 408.5,98.5 Z"/></g>
<g><path style="opacity:1" fill="#fe8f87" d="M 408.5,98.5 C 430.679,113.837 453.012,129.003 475.5,144C 491.075,157.137 494.575,172.97 486,191.5C 460.67,228.988 435.17,266.322 409.5,303.5C 408.501,235.335 408.167,167.002 408.5,98.5 Z"/></g>
<g><path style="opacity:1" fill="#ef372b" d="M 149.5,153.5 C 208.168,153.333 266.834,153.5 325.5,154C 338.148,156.649 346.314,164.149 350,176.5C 350.667,238.833 350.667,301.167 350,363.5C 348.067,376.767 340.567,384.933 327.5,388C 267.833,388.667 208.167,388.667 148.5,388C 136.46,384.626 129.293,376.793 127,364.5C 126.333,302.167 126.333,239.833 127,177.5C 130.245,165.424 137.745,157.424 149.5,153.5 Z"/></g>
<g><path style="opacity:1" fill="#fffdfd" d="M 151.5,166.5 C 190.167,166.5 228.833,166.5 267.5,166.5C 267.5,236.5 267.5,306.5 267.5,376.5C 247.833,376.5 228.167,376.5 208.5,376.5C 208.667,328.499 208.5,280.499 208,232.5C 207.167,231.667 206.333,230.833 205.5,230C 183.169,229.5 160.836,229.333 138.5,229.5C 138.333,212.497 138.5,195.497 139,178.5C 141.088,172.243 145.255,168.243 151.5,166.5 Z"/></g>
<g><path style="opacity:1" fill="#fac2be" d="M 151.5,166.5 C 190.33,165.501 229.33,165.168 268.5,165.5C 268.833,236.002 268.499,306.335 267.5,376.5C 267.5,306.5 267.5,236.5 267.5,166.5C 228.833,166.5 190.167,166.5 151.5,166.5 Z"/></g>
<g><path style="opacity:1" fill="#fffdfd" d="M 280.5,165.5 C 295.17,165.333 309.837,165.5 324.5,166C 331.237,167.736 335.737,171.903 338,178.5C 338.5,195.497 338.667,212.497 338.5,229.5C 319.167,229.5 299.833,229.5 280.5,229.5C 280.5,208.167 280.5,186.833 280.5,165.5 Z"/></g>
<g><path style="opacity:1" fill="#fefffe" d="M 139.5,241.5 C 158.5,241.5 177.5,241.5 196.5,241.5C 196.5,261.167 196.5,280.833 196.5,300.5C 177.5,300.5 158.5,300.5 139.5,300.5C 139.5,280.833 139.5,261.167 139.5,241.5 Z"/></g>
<g><path style="opacity:1" fill="#fffdfd" d="M 280.5,241.5 C 299.833,241.5 319.167,241.5 338.5,241.5C 338.5,261.167 338.5,280.833 338.5,300.5C 319.167,300.5 299.833,300.5 280.5,300.5C 280.5,280.833 280.5,261.167 280.5,241.5 Z"/></g>
<g><path style="opacity:1" fill="#f5564d" d="M 67.5,244.5 C 67.56,243.957 67.8933,243.624 68.5,243.5C 69.8309,287.998 69.8309,332.331 68.5,376.5C 68.832,332.33 68.4987,288.33 67.5,244.5 Z"/></g>
<g><path style="opacity:1" fill="#fe8f87" d="M 67.5,244.5 C 68.4987,288.33 68.832,332.33 68.5,376.5C 54.9234,367.791 41.7568,358.457 29,348.5C 18.7345,333.917 18.0678,318.917 27,303.5C 40.7207,283.953 54.2207,264.286 67.5,244.5 Z"/></g>
<g><path style="opacity:1" fill="#f68e87" d="M 139.5,241.5 C 139.5,261.167 139.5,280.833 139.5,300.5C 158.5,300.5 177.5,300.5 196.5,300.5C 177.341,301.497 158.007,301.83 138.5,301.5C 138.17,281.326 138.503,261.326 139.5,241.5 Z"/></g>
<g><path style="opacity:1" fill="#f79892" d="M 196.5,376.5 C 196.5,355.5 196.5,334.5 196.5,313.5C 177.5,313.5 158.5,313.5 139.5,313.5C 139.5,329.833 139.5,346.167 139.5,362.5C 138.503,346.008 138.17,329.342 138.5,312.5C 158.167,312.5 177.833,312.5 197.5,312.5C 197.831,334.007 197.497,355.34 196.5,376.5 Z"/></g>
<g><path style="opacity:1" fill="#f8a9a5" d="M 280.5,313.5 C 299.659,312.503 318.993,312.17 338.5,312.5C 338.83,329.342 338.497,346.008 337.5,362.5C 337.5,346.167 337.5,329.833 337.5,313.5C 318.5,313.5 299.5,313.5 280.5,313.5 Z"/></g>
<g><path style="opacity:1" fill="#fffefe" d="M 196.5,376.5 C 181.163,376.667 165.83,376.5 150.5,376C 143.864,373.883 140.197,369.383 139.5,362.5C 139.5,346.167 139.5,329.833 139.5,313.5C 158.5,313.5 177.5,313.5 196.5,313.5C 196.5,334.5 196.5,355.5 196.5,376.5 Z"/></g>
<g><path style="opacity:1" fill="#fffefe" d="M 280.5,313.5 C 299.5,313.5 318.5,313.5 337.5,313.5C 337.5,329.833 337.5,346.167 337.5,362.5C 336.863,369.917 332.863,374.417 325.5,376C 310.504,376.5 295.504,376.667 280.5,376.5C 280.5,355.5 280.5,334.5 280.5,313.5 Z"/></g>
<g><path style="opacity:1" fill="#fb7c74" d="M 310.5,447.5 C 264.664,447.168 218.997,447.501 173.5,448.5C 172.711,448.217 172.044,447.717 171.5,447C 218.571,446.17 264.904,446.336 310.5,447.5 Z"/></g>
<g><path style="opacity:1" fill="#fe8f87" d="M 310.5,447.5 C 301.459,461.741 291.792,475.575 281.5,489C 267.194,500.361 252.194,501.361 236.5,492C 215.434,477.477 194.434,462.977 173.5,448.5C 218.997,447.501 264.664,447.168 310.5,447.5 Z"/></g>
</svg>
