<?xml version="1.0" encoding="UTF-8"?>
<!DOCTYPE svg PUBLIC "-//W3C//DTD SVG 1.1//EN" "http://www.w3.org/Graphics/SVG/1.1/DTD/svg11.dtd">
<svg xmlns="http://www.w3.org/2000/svg" version="1.1" width="512px" height="512px" style="shape-rendering:geometricPrecision; text-rendering:geometricPrecision; image-rendering:optimizeQuality; fill-rule:evenodd; clip-rule:evenodd" xmlns:xlink="http://www.w3.org/1999/xlink">
<g><path style="opacity:0.988" fill="#ef3227" d="M 47.5,15.5 C 52.8333,15.5 58.1667,15.5 63.5,15.5C 63.6667,67.5011 63.5,119.501 63,171.5C 62.5,173.333 61.3333,174.5 59.5,175C 56.1667,175.333 52.8333,175.667 49.5,176C 56.6756,184.673 64.0089,193.173 71.5,201.5C 78.9911,193.173 86.3244,184.673 93.5,176C 90.1667,175.667 86.8333,175.333 83.5,175C 81.6667,174.5 80.5,173.333 80,171.5C 79.5,119.501 79.3333,67.5011 79.5,15.5C 84.8333,15.5 90.1667,15.5 95.5,15.5C 95.5,63.5 95.5,111.5 95.5,159.5C 102.947,159.071 110.281,159.571 117.5,161C 119.429,164.256 119.929,167.756 119,171.5C 105.192,189.303 90.6922,206.47 75.5,223C 71.1712,224.151 67.3379,223.318 64,220.5C 50.4274,204.35 37.094,188.017 24,171.5C 23.0715,167.756 23.5715,164.256 25.5,161C 32.7194,159.571 40.0528,159.071 47.5,159.5C 47.5,111.5 47.5,63.5 47.5,15.5 Z"/></g>
<g><path style="opacity:0.99" fill="#ef3328" d="M 127.5,15.5 C 218.167,15.3333 308.834,15.5 399.5,16C 409.31,18.6465 416.477,24.4798 421,33.5C 425.612,46.4472 423.946,58.4472 416,69.5C 411.498,74.3365 405.998,77.5032 399.5,79C 391.507,79.4997 383.507,79.6664 375.5,79.5C 375.667,152.834 375.5,226.167 375,299.5C 374.5,301.333 373.333,302.5 371.5,303C 332.829,303.167 294.162,303.667 255.5,304.5C 259.11,312.498 261.61,320.831 263,329.5C 268.109,361.231 260.943,389.731 241.5,415C 244.833,415.333 248.167,415.667 251.5,416C 253.333,416.5 254.5,417.667 255,419.5C 255.98,444.254 255.647,468.921 254,493.5C 253.25,494.126 252.416,494.626 251.5,495C 226.167,495.167 200.833,495.333 175.5,495.5C 149.415,495.658 123.415,495.158 97.5,494C 96.8742,493.25 96.3742,492.416 96,491.5C 95.3333,467.5 95.3333,443.5 96,419.5C 96.5,417.667 97.6667,416.5 99.5,416C 103.486,415.501 107.486,415.334 111.5,415.5C 111.666,407.826 111.5,400.159 111,392.5C 106.78,355.523 102.78,318.523 99,281.5C 98.0316,260.341 101.698,240.008 110,220.5C 123.413,196.005 137.08,171.672 151,147.5C 151.5,124.836 151.667,102.169 151.5,79.5C 143.493,79.6664 135.493,79.4997 127.5,79C 117.69,76.3535 110.523,70.5202 106,61.5C 98.9753,39.2264 106.142,23.8931 127.5,15.5 Z M 262.5,63.5 C 290.874,67.0373 304.041,83.0373 302,111.5C 294.992,134.494 279.492,144.66 255.5,142C 232.035,134.842 221.868,119.009 225,94.5C 230.792,75.8609 243.292,65.5275 262.5,63.5 Z M 150.5,182.5 C 151.333,221.331 151.833,260.331 152,299.5C 152.5,301.333 153.667,302.5 155.5,303C 164.827,303.5 174.161,303.666 183.5,303.5C 183.5,306.167 183.5,308.833 183.5,311.5C 188.833,311.5 194.167,311.5 199.5,311.5C 199.042,283.124 199.542,254.791 201,226.5C 206.295,216.277 214.128,213.777 224.5,219C 227.106,220.938 228.939,223.438 230,226.5C 231.277,248.124 231.944,269.791 232,291.5C 235.804,301.912 239.804,312.245 244,322.5C 248.98,341.7 248.313,360.7 242,379.5C 237.172,389.159 231.839,398.492 226,407.5C 224.293,409.909 223.46,412.575 223.5,415.5C 191.5,415.5 159.5,415.5 127.5,415.5C 127.667,404.495 127.5,393.495 127,382.5C 123.667,352.5 120.333,322.5 117,292.5C 114.071,270.791 116.738,249.791 125,229.5C 133.356,213.673 141.856,198.006 150.5,182.5 Z M 167.5,232.5 C 172.929,233.524 178.262,234.857 183.5,236.5C 183.5,253.5 183.5,270.5 183.5,287.5C 178.167,287.5 172.833,287.5 167.5,287.5C 167.5,269.167 167.5,250.833 167.5,232.5 Z M 357.5,232.5 C 359.487,250.47 360.154,268.803 359.5,287.5C 341.155,287.833 322.821,287.5 304.5,286.5C 310.809,257.192 328.475,239.192 357.5,232.5 Z"/></g>
<g><path style="opacity:1" fill="#f9beba" d="M 130.5,31.5 C 137.5,31.5 144.5,31.5 151.5,31.5C 151.5,42.1667 151.5,52.8333 151.5,63.5C 144.492,63.6663 137.492,63.4996 130.5,63C 120.08,57.4956 117.247,49.3289 122,38.5C 124.441,35.5464 127.275,33.2131 130.5,31.5 Z"/></g>
<g><path style="opacity:1" fill="#f9bfbb" d="M 167.5,31.5 C 231.5,31.5 295.5,31.5 359.5,31.5C 359.5,93.1667 359.5,154.833 359.5,216.5C 329.149,220.262 307.316,235.928 294,263.5C 290.822,271.231 288.988,279.231 288.5,287.5C 274.833,287.5 261.167,287.5 247.5,287.5C 247.667,266.497 247.5,245.497 247,224.5C 240.817,206.146 227.983,197.979 208.5,200C 203.055,201.888 198.055,204.555 193.5,208C 190.357,211.82 187.357,215.654 184.5,219.5C 178.962,217.698 173.295,216.698 167.5,216.5C 167.5,154.833 167.5,93.1667 167.5,31.5 Z M 262.5,63.5 C 243.292,65.5275 230.792,75.8609 225,94.5C 221.868,119.009 232.035,134.842 255.5,142C 279.492,144.66 294.992,134.494 302,111.5C 304.041,83.0373 290.874,67.0373 262.5,63.5 Z"/></g>
<g><path style="opacity:1" fill="#f9bfba" d="M 375.5,31.5 C 383.253,31.1039 390.92,31.6039 398.5,33C 407.079,38.0008 409.579,45.1675 406,54.5C 404.167,57.6667 401.667,60.1667 398.5,62C 390.92,63.3961 383.253,63.8961 375.5,63.5C 375.5,52.8333 375.5,42.1667 375.5,31.5 Z"/></g>
<g><path style="opacity:0.982" fill="#ef3429" d="M 254.5,47.5 C 288.894,45.7568 310.394,61.4235 319,94.5C 321.457,119.414 312.29,138.581 291.5,152C 262.899,165.747 238.399,160.581 218,136.5C 201.872,109.717 204.372,84.8834 225.5,62C 234.169,54.9987 243.836,50.1654 254.5,47.5 Z M 262.5,63.5 C 243.292,65.5275 230.792,75.8609 225,94.5C 221.868,119.009 232.035,134.842 255.5,142C 279.492,144.66 294.992,134.494 302,111.5C 304.041,83.0373 290.874,67.0373 262.5,63.5 Z"/></g>
<g><path style="opacity:0.988" fill="#ef3227" d="M 415.5,127.5 C 420.833,127.5 426.167,127.5 431.5,127.5C 431.667,179.501 431.5,231.501 431,283.5C 430.5,285.333 429.333,286.5 427.5,287C 424.167,287.333 420.833,287.667 417.5,288C 424.676,296.673 432.009,305.173 439.5,313.5C 446.991,305.173 454.324,296.673 461.5,288C 458.167,287.667 454.833,287.333 451.5,287C 449.667,286.5 448.5,285.333 448,283.5C 447.5,231.501 447.333,179.501 447.5,127.5C 452.833,127.5 458.167,127.5 463.5,127.5C 463.5,175.5 463.5,223.5 463.5,271.5C 470.947,271.071 478.281,271.571 485.5,273C 487.429,276.256 487.929,279.756 487,283.5C 473.192,301.303 458.692,318.47 443.5,335C 439.171,336.151 435.338,335.318 432,332.5C 418.427,316.35 405.094,300.017 392,283.5C 391.071,279.756 391.571,276.256 393.5,273C 400.719,271.571 408.053,271.071 415.5,271.5C 415.5,223.5 415.5,175.5 415.5,127.5 Z"/></g>
<g><path style="opacity:1" fill="#f9c0bb" d="M 111.5,431.5 C 154.167,431.5 196.833,431.5 239.5,431.5C 239.5,447.5 239.5,463.5 239.5,479.5C 196.833,479.5 154.167,479.5 111.5,479.5C 111.5,463.5 111.5,447.5 111.5,431.5 Z"/></g>
</svg>
