<?xml version="1.0" encoding="UTF-8"?>
<!DOCTYPE svg PUBLIC "-//W3C//DTD SVG 1.1//EN" "http://www.w3.org/Graphics/SVG/1.1/DTD/svg11.dtd">
<svg xmlns="http://www.w3.org/2000/svg" version="1.1" width="512px" height="512px" style="shape-rendering:geometricPrecision; text-rendering:geometricPrecision; image-rendering:optimizeQuality; fill-rule:evenodd; clip-rule:evenodd" xmlns:xlink="http://www.w3.org/1999/xlink">
<g><path style="opacity:0.993" fill="#ef3428" d="M 32.5,-0.5 C 152.5,-0.5 272.5,-0.5 392.5,-0.5C 410.586,4.42163 421.753,16.0883 426,34.5C 426.333,52.8333 426.667,71.1667 427,89.5C 445,107.5 463,125.5 481,143.5C 497.58,161.412 507.746,182.412 511.5,206.5C 511.5,306.833 511.5,407.167 511.5,507.5C 509.833,508.5 508.5,509.833 507.5,511.5C 453.5,511.5 399.5,511.5 345.5,511.5C 343.525,510.354 342.025,508.687 341,506.5C 340.667,477.5 340.333,448.5 340,419.5C 316.071,384.405 310.571,346.571 323.5,306C 323.167,305.5 322.833,305 322.5,304.5C 257.056,329.389 191.722,354.556 126.5,380C 104.646,387.249 86.8124,381.749 73,363.5C 60.8728,333.619 49.0395,303.619 37.5,273.5C 18.1471,269.473 5.48045,258.14 -0.5,239.5C -0.5,170.5 -0.5,101.5 -0.5,32.5C 4.83333,15.8333 15.8333,4.83333 32.5,-0.5 Z"/></g>
<g><path style="opacity:1" fill="#fffefd" d="M 36.5,16.5 C 153.834,16.3333 271.167,16.5 388.5,17C 399.333,19.8333 406.167,26.6667 409,37.5C 409.993,102.915 409.659,168.249 408,233.5C 381.833,207.333 355.667,181.167 329.5,155C 308.206,139.35 287.206,139.683 266.5,156C 252.033,172.733 249.533,191.233 259,211.5C 271.462,226.297 284.295,240.797 297.5,255C 210.5,255.667 123.5,255.667 36.5,255C 26.6667,251.833 20.1667,245.333 17,235.5C 16.3333,169.167 16.3333,102.833 17,36.5C 20.3514,26.6498 26.8514,19.9831 36.5,16.5 Z"/></g>
<g><path style="opacity:1" fill="#ef362a" d="M 50.5,33.5 C 67.5033,33.3334 84.5033,33.5001 101.5,34C 109.502,36.0029 115.002,40.8362 118,48.5C 118.667,66.5 118.667,84.5 118,102.5C 115.5,110.333 110.333,115.5 102.5,118C 84.5,118.667 66.5,118.667 48.5,118C 40.8362,115.002 36.0029,109.502 34,101.5C 33.3333,84.5 33.3333,67.5 34,50.5C 37.0191,42.3156 42.5191,36.649 50.5,33.5 Z"/></g>
<g><path style="opacity:1" fill="#ee3327" d="M 255.5,42.5 C 261.167,42.5 266.833,42.5 272.5,42.5C 272.5,50.8333 272.5,59.1667 272.5,67.5C 266.833,67.5 261.167,67.5 255.5,67.5C 255.5,59.1667 255.5,50.8333 255.5,42.5 Z"/></g>
<g><path style="opacity:1" fill="#ef3429" d="M 289.5,42.5 C 295.167,42.5 300.833,42.5 306.5,42.5C 306.5,50.8333 306.5,59.1667 306.5,67.5C 300.833,67.5 295.167,67.5 289.5,67.5C 289.5,59.1667 289.5,50.8333 289.5,42.5 Z"/></g>
<g><path style="opacity:1" fill="#ef362b" d="M 323.5,42.5 C 329.167,42.5 334.833,42.5 340.5,42.5C 340.5,50.8333 340.5,59.1667 340.5,67.5C 334.833,67.5 329.167,67.5 323.5,67.5C 323.5,59.1667 323.5,50.8333 323.5,42.5 Z"/></g>
<g><path style="opacity:1" fill="#f7958e" d="M 374.5,42.5 C 369.167,42.5 363.833,42.5 358.5,42.5C 358.5,50.8333 358.5,59.1667 358.5,67.5C 357.507,59.0161 357.174,50.3494 357.5,41.5C 363.358,41.1778 369.025,41.5111 374.5,42.5 Z"/></g>
<g><path style="opacity:1" fill="#ee3327" d="M 374.5,42.5 C 374.5,50.8333 374.5,59.1667 374.5,67.5C 369.167,67.5 363.833,67.5 358.5,67.5C 358.5,59.1667 358.5,50.8333 358.5,42.5C 363.833,42.5 369.167,42.5 374.5,42.5 Z"/></g>
<g><path style="opacity:1" fill="#fabdb9" d="M 53.5,50.5 C 68.5037,50.3334 83.5037,50.5001 98.5,51C 99.4162,51.3742 100.25,51.8742 101,52.5C 101.499,57.4889 101.666,62.4889 101.5,67.5C 95.8333,67.5 90.1667,67.5 84.5,67.5C 84.5,73.1667 84.5,78.8333 84.5,84.5C 90.1667,84.5 95.8333,84.5 101.5,84.5C 101.666,89.5111 101.499,94.5111 101,99.5C 100.5,100 100,100.5 99.5,101C 83.8333,101.667 68.1667,101.667 52.5,101C 51.8742,100.25 51.3742,99.4162 51,98.5C 50.501,94.1794 50.3343,89.8461 50.5,85.5C 56.1667,85.5 61.8333,85.5 67.5,85.5C 67.5,79.5 67.5,73.5 67.5,67.5C 61.8333,67.5 56.1667,67.5 50.5,67.5C 50.3342,62.8215 50.5008,58.1548 51,53.5C 52.045,52.6266 52.8783,51.6266 53.5,50.5 Z"/></g>
<g><path style="opacity:1" fill="#fffdfd" d="M 439.5,127.5 C 452.861,139.694 465.361,152.694 477,166.5C 484.787,177.744 490.12,190.077 493,203.5C 494.48,272.135 494.98,340.802 494.5,409.5C 447.495,409.833 400.495,409.5 353.5,408.5C 333.714,378.339 329.214,346.006 340,311.5C 342.621,304.961 345.621,298.627 349,292.5C 349.667,290.5 349.667,288.5 349,286.5C 325.036,259.534 300.702,232.867 276,206.5C 264.51,186.635 269.01,171.468 289.5,161C 298.386,159.339 306.719,160.673 314.5,165C 361.373,211.04 408.04,257.207 454.5,303.5C 458.151,300.349 461.651,297.016 465,293.5C 465.667,292.5 465.667,291.5 465,290.5C 454.986,280.653 445.152,270.653 435.5,260.5C 460.83,252.338 472.33,235.004 470,208.5C 459.928,181.449 449.761,154.449 439.5,127.5 Z"/></g>
<g><path style="opacity:1" fill="#f2635a" d="M 427.5,143.5 C 426.833,173.833 426.167,204.167 425.5,234.5C 425.333,203.498 425.5,172.498 426,141.5C 426.717,142.044 427.217,142.711 427.5,143.5 Z"/></g>
<g><path style="opacity:1" fill="#fabeba" d="M 427.5,143.5 C 435.562,164.849 443.728,186.182 452,207.5C 456.042,221.185 452.209,232.018 440.5,240C 434.526,242.436 428.526,244.436 422.5,246C 424.201,242.363 425.201,238.53 425.5,234.5C 426.167,204.167 426.833,173.833 427.5,143.5 Z"/></g>
<g><path style="opacity:1" fill="#ef3429" d="M 42.5,144.5 C 53.8333,144.5 65.1667,144.5 76.5,144.5C 76.5,150.167 76.5,155.833 76.5,161.5C 65.1667,161.5 53.8333,161.5 42.5,161.5C 42.5,155.833 42.5,150.167 42.5,144.5 Z"/></g>
<g><path style="opacity:1" fill="#ef3328" d="M 93.5,144.5 C 104.833,144.5 116.167,144.5 127.5,144.5C 127.5,150.167 127.5,155.833 127.5,161.5C 116.167,161.5 104.833,161.5 93.5,161.5C 93.5,155.833 93.5,150.167 93.5,144.5 Z"/></g>
<g><path style="opacity:1" fill="#ef3429" d="M 144.5,144.5 C 155.833,144.5 167.167,144.5 178.5,144.5C 178.5,150.167 178.5,155.833 178.5,161.5C 167.167,161.5 155.833,161.5 144.5,161.5C 144.5,155.833 144.5,150.167 144.5,144.5 Z"/></g>
<g><path style="opacity:1" fill="#ef352a" d="M 195.5,144.5 C 206.833,144.5 218.167,144.5 229.5,144.5C 229.5,150.167 229.5,155.833 229.5,161.5C 218.167,161.5 206.833,161.5 195.5,161.5C 195.5,155.833 195.5,150.167 195.5,144.5 Z"/></g>
<g><path style="opacity:1" fill="#f2665e" d="M 42.5,196.5 C 53.6544,195.505 64.9877,195.172 76.5,195.5C 76.8222,201.358 76.4889,207.025 75.5,212.5C 75.5,207.167 75.5,201.833 75.5,196.5C 64.5,196.5 53.5,196.5 42.5,196.5 Z"/></g>
<g><path style="opacity:1" fill="#f5786f" d="M 229.5,212.5 C 229.5,207.167 229.5,201.833 229.5,196.5C 218.5,196.5 207.5,196.5 196.5,196.5C 196.5,201.833 196.5,207.167 196.5,212.5C 195.511,207.025 195.178,201.358 195.5,195.5C 207.167,195.5 218.833,195.5 230.5,195.5C 230.822,201.358 230.489,207.025 229.5,212.5 Z"/></g>
<g><path style="opacity:1" fill="#ee3327" d="M 42.5,196.5 C 53.5,196.5 64.5,196.5 75.5,196.5C 75.5,201.833 75.5,207.167 75.5,212.5C 64.5,212.5 53.5,212.5 42.5,212.5C 42.5,207.167 42.5,201.833 42.5,196.5 Z"/></g>
<g><path style="opacity:1" fill="#ee3327" d="M 229.5,212.5 C 218.5,212.5 207.5,212.5 196.5,212.5C 196.5,207.167 196.5,201.833 196.5,196.5C 207.5,196.5 218.5,196.5 229.5,196.5C 229.5,201.833 229.5,207.167 229.5,212.5 Z"/></g>
<g><path style="opacity:1" fill="#f9bfbb" d="M 171.5,272.5 C 219.171,272.167 266.838,272.5 314.5,273.5C 317.15,276.651 319.984,279.651 323,282.5C 323.483,283.448 323.649,284.448 323.5,285.5C 254.088,311.702 184.755,338.202 115.5,365C 104.801,366.989 95.9672,363.823 89,355.5C 82.6779,341.367 76.8446,327.034 71.5,312.5C 104.82,298.953 138.153,285.62 171.5,272.5 Z"/></g>
<g><path style="opacity:1" fill="#f9beb9" d="M 56.5,272.5 C 79.1691,272.333 101.836,272.5 124.5,273C 104.578,280.798 84.578,288.298 64.5,295.5C 62.1193,287.738 59.4526,280.071 56.5,272.5 Z"/></g>
<g><path style="opacity:1" fill="#f47871" d="M 494.5,426.5 C 449.167,426.5 403.833,426.5 358.5,426.5C 358.5,449.167 358.5,471.833 358.5,494.5C 357.502,471.673 357.169,448.673 357.5,425.5C 403.336,425.168 449.003,425.501 494.5,426.5 Z"/></g>
<g><path style="opacity:1" fill="#f9bfbb" d="M 494.5,426.5 C 494.5,449.167 494.5,471.833 494.5,494.5C 449.167,494.5 403.833,494.5 358.5,494.5C 358.5,471.833 358.5,449.167 358.5,426.5C 403.833,426.5 449.167,426.5 494.5,426.5 Z"/></g>
<g><path style="opacity:1" fill="#f3635a" d="M 375.5,443.5 C 375.5,448.833 375.5,454.167 375.5,459.5C 380.833,459.5 386.167,459.5 391.5,459.5C 391.5,454.167 391.5,448.833 391.5,443.5C 392.489,448.975 392.822,454.642 392.5,460.5C 386.5,460.5 380.5,460.5 374.5,460.5C 374.178,454.642 374.511,448.975 375.5,443.5 Z"/></g>
<g><path style="opacity:1" fill="#ee3327" d="M 375.5,443.5 C 380.833,443.5 386.167,443.5 391.5,443.5C 391.5,448.833 391.5,454.167 391.5,459.5C 386.167,459.5 380.833,459.5 375.5,459.5C 375.5,454.167 375.5,448.833 375.5,443.5 Z"/></g>
</svg>
