<svg width="37" height="33" viewBox="0 0 37 33" fill="none" xmlns="http://www.w3.org/2000/svg">
<path d="M12.1759 32.9238C11.9153 32.9445 9.64898 33.0826 8.21293 31.3652C7.49145 30.5022 7.30331 29.5581 7.24463 29.0886C13.1718 27.2331 18.7141 24.6786 23.9353 21.4406C25.2678 20.6138 26.5606 19.6835 27.7343 18.6478C29.1151 17.4293 29.0875 15.8275 27.8223 14.4829C27.4581 14.0963 27.0352 13.7615 26.6106 13.4404C23.2742 10.9014 19.5633 9.00281 15.7539 7.31994C12.9768 6.09273 10.0839 5.1227 7.24808 3.97662C7.31022 3.55375 7.53633 2.43356 8.48392 1.4946C9.98728 0.00676198 12.0257 0.251858 12.2864 0.288104C12.5314 0.37268 12.6833 0.393392 12.8266 0.445173C20.466 3.19818 27.5168 7.00925 33.8099 12.1701C34.987 13.1366 36.1021 14.1619 36.6147 15.6653C36.6768 15.831 36.7493 16.0916 36.751 16.4161C36.7528 16.8131 36.644 17.1238 36.5664 17.2998C35.964 18.9672 34.811 20.0822 33.5924 21.1281C29.5294 24.6113 24.876 27.1727 20.126 29.5425C17.5507 30.825 14.8288 31.8071 12.1759 32.9238Z" fill="#EF3328"/>
<path d="M7.10965 4.58248C6.37782 9.19269 5.86691 13.8219 6.07404 18.5029C6.131 19.7715 6.1776 21.0436 6.3105 22.307C6.54524 24.5526 6.84212 26.793 7.05615 29.0575C6.77998 29.1421 6.5625 29.2163 6.33985 29.2629C5.15924 29.5149 4.2013 29.4407 3.43667 29.0144C2.89815 28.7141 2.35963 28.2204 1.72963 26.7619C1.22218 25.5848 0.547301 23.5481 0.566287 20.7053C0.561109 18.71 0.564561 15.9415 0.607712 12.353C0.611164 12.0941 0.616342 11.799 0.63015 11.471C0.681931 10.2801 0.859712 8.66626 1.56911 6.87809C2.30094 5.03642 2.99826 4.50308 3.40387 4.26662C4.40152 3.68667 5.68913 3.64352 7.14417 4.13716C7.13209 4.32875 7.13037 4.45648 7.10965 4.58248Z" fill="#FF9088"/>
<path d="M7.14439 4.13717C7.14439 4.07331 7.19272 4.05087 7.21861 4.04569C10.0838 5.12273 12.9766 6.09276 15.7538 7.31996C19.5632 9.00284 23.2741 10.9015 26.6105 13.4405C27.0334 13.7632 27.458 14.0981 27.8222 14.483C29.0874 15.8258 29.115 17.4293 27.7342 18.6479C26.5605 19.6852 25.2677 20.6138 23.9352 21.4406C18.7139 24.6769 13.1717 27.2331 7.2445 29.0886C7.18755 29.1145 7.14785 29.0783 7.13059 29.0558C6.84234 26.7913 6.54546 24.5526 6.31072 22.3053C6.17782 21.0436 6.13122 19.7698 6.07426 18.5012C5.86714 13.8202 6.37804 9.1927 7.10987 4.58076C7.13059 4.45649 7.13231 4.32876 7.14439 4.13717ZM18.4671 19.4367C19.5511 18.7791 20.6678 18.1715 21.7069 17.4483C22.6562 16.7889 22.6527 16.3626 21.7155 15.7154C20.6316 14.968 19.5269 14.2258 18.3515 13.6407C16.3355 12.6396 14.2729 11.73 12.2017 10.8531C11.3162 10.4786 10.9917 10.703 10.8226 11.6419C10.6966 12.3392 10.593 13.0538 10.6016 13.758C10.631 16.2694 10.6482 18.7842 10.8036 21.2904C10.8795 22.5038 11.2834 22.7023 12.4347 22.2087C14.4334 21.356 16.389 20.3963 18.4671 19.4367Z" fill="#FAC0BC"/>
</svg>
