<svg width="37" height="37" viewBox="0 0 37 37" fill="none" xmlns="http://www.w3.org/2000/svg">
<g clip-path="url(#clip0_10030_150)">
<path d="M0.245703 0.245701L0 0.491405V18.5V36.5086L0.245703 36.7543L0.491406 37H14.2291H27.9668L28.198 36.7904L28.4365 36.5809L28.4582 31.515L28.4727 26.4492H28.8629C30.5611 26.4492 32.5195 25.9795 34.0516 25.2135C34.6875 24.8955 36.1979 23.8982 36.6531 23.4936C36.9205 23.2479 36.9639 23.1828 36.9639 22.9082C36.9639 22.3879 36.4146 22.0338 35.9666 22.2723C35.8799 22.3156 35.4174 22.6264 34.9404 22.966C33.5457 23.9488 32.3895 24.4691 30.8936 24.7871C30.2865 24.9172 29.8529 24.9533 28.2197 24.9822C26.2758 25.0184 26.2686 25.0184 25.9506 24.8449C25.2063 24.4475 25.1629 23.4213 25.8711 22.9877C26.059 22.8793 26.2975 22.8504 27.2297 22.8143C28.4943 22.7781 29.0291 22.6553 29.665 22.2506C30.6912 21.6146 31.3127 20.6607 31.5367 19.3961C31.6018 19.0275 31.8547 18.5506 33.1699 16.2742L34.7236 13.5859H35.5691C36.5014 13.5859 36.7398 13.5209 36.8988 13.2174C37.0289 12.9572 37.0289 12.7621 36.8916 12.5092C36.7615 12.249 36.6387 12.1984 36.0533 12.1479L35.5764 12.1045L36.2846 10.876C36.6748 10.1967 37 9.5752 37 9.48125C37 9.07656 36.8193 8.9248 35.2729 8.02871C33.618 7.0748 33.4084 7.00977 33.076 7.31328C32.9748 7.40723 32.3172 8.48398 31.6162 9.71973C30.908 10.9482 30.2938 11.9961 30.2504 12.0395C30.207 12.09 29.8168 12.1406 29.3254 12.1623L28.4727 12.1912L28.4582 6.30879L28.4365 0.41914L28.198 0.209568L27.9668 0H14.2291H0.491406L0.245703 0.245701ZM27.0273 6.99531V12.5525L26.5359 12.7404C25.3941 13.1957 24.1801 14.1062 23.3779 15.1252C22.6408 16.0574 22.1422 17.1342 21.752 18.6229L21.6725 18.9336L13.9111 18.948L6.14258 18.9697L5.94746 19.1648C5.65117 19.4611 5.66563 19.8875 5.98359 20.1693L6.21484 20.3789H13.7666H21.3184L21.275 20.574C21.2533 20.6896 21.116 21.2316 20.9787 21.7881C20.7764 22.5902 20.733 22.8793 20.7691 23.19C20.8848 24.1512 21.5279 24.9027 22.4674 25.1484L22.7781 25.2279L22.7348 25.5314C22.7131 25.6977 22.648 26.3408 22.583 26.9551C22.518 27.5693 22.4529 28.1475 22.4385 28.2342L22.4023 28.3932L18.9264 28.4148L15.4504 28.4365L15.2408 28.675C14.9518 28.993 14.9518 29.3471 15.2408 29.6361L15.4504 29.8457H19.3889H23.3273L24.9822 28.6533C25.8855 27.9957 26.7166 27.3525 26.8322 27.2225L27.0273 26.9984V31.2766V35.5547H14.2363H1.44531V18.5V1.44531H14.2363H27.0273V6.99531ZM34.5574 9.29336C34.9477 9.51016 35.2656 9.70527 35.2656 9.72695C35.2656 9.74141 33.7842 12.3213 31.9703 15.4576C29.0146 20.5812 28.6605 21.1738 28.451 21.2461C28.198 21.3473 26.5938 21.4412 26.5938 21.3617C26.5938 21.2822 33.7625 8.88867 33.8059 8.88867C33.8275 8.88867 34.1672 9.06934 34.5574 9.29336ZM29.3398 13.6221C29.3398 13.6437 28.0607 15.8768 26.507 18.5867C24.3391 22.3373 23.6164 23.5369 23.4502 23.6381C22.9949 23.9199 22.4023 23.7104 22.2578 23.2189C22.1783 22.966 22.2289 22.7131 22.8215 20.3717C23.349 18.2543 23.5225 17.6834 23.7682 17.192C24.7076 15.3131 26.377 14.0629 28.4221 13.6943C28.9857 13.5932 29.3398 13.5643 29.3398 13.6221ZM25.3291 26.1674C25.5098 26.2469 25.6543 26.3264 25.6543 26.3408C25.6543 26.3553 25.2857 26.6299 24.8449 26.9551C24.3246 27.3309 24.0211 27.5115 24.0066 27.4465C23.9777 27.3092 24.1873 25.4592 24.2379 25.3725C24.2668 25.3363 24.4475 25.4664 24.6426 25.6615C24.8449 25.8639 25.1484 26.0879 25.3291 26.1674Z" fill="url(#paint0_linear_10030_150)"/>
<path d="M13.8247 3.97439C13.6441 4.04666 13.4706 4.28513 13.4056 4.55974C13.3767 4.68259 13.2827 4.76931 13.1165 4.83435C12.7263 4.97166 12.112 5.57869 11.9169 6.01228C11.5556 6.83611 11.7579 7.78279 12.4372 8.41873C12.8925 8.84509 13.3044 9.02576 13.9909 9.10525C14.6269 9.17029 14.8798 9.32205 15.0027 9.6906C15.205 10.276 14.5402 10.8396 13.8464 10.6662C13.5429 10.5867 13.2322 10.276 13.1816 9.98689C13.1093 9.52439 13.0732 9.45935 12.8419 9.31482C12.5167 9.1197 12.2566 9.14138 11.982 9.38709C11.7652 9.57498 11.7435 9.64002 11.7507 9.98689C11.7579 10.7385 12.3505 11.6129 13.0515 11.9019C13.2972 12.0031 13.3695 12.0826 13.4345 12.2994C13.5501 12.6824 13.8392 12.8847 14.2005 12.8414C14.5329 12.7908 14.8148 12.5234 14.8148 12.2488C14.8148 12.1115 14.887 12.0465 15.1327 11.9308C15.5808 11.7357 16.0794 11.2515 16.3034 10.8035C16.5708 10.2543 16.5636 9.54607 16.2962 8.99685C15.9349 8.24529 15.0099 7.65994 14.1933 7.65994C13.6224 7.65994 13.1888 7.31306 13.1888 6.86502C13.1888 6.17849 14.215 5.81716 14.7786 6.30857C14.8943 6.40252 15.0027 6.61931 15.0677 6.85779C15.1905 7.32752 15.3495 7.50818 15.7036 7.56599C16.2456 7.65271 16.5853 7.19744 16.4697 6.51814C16.3613 5.81716 15.812 5.13064 15.1327 4.84158C14.9015 4.74041 14.8148 4.66091 14.8148 4.55252C14.8148 4.32127 14.6919 4.13338 14.4534 4.01052C14.2222 3.88767 14.0632 3.88045 13.8247 3.97439Z" fill="url(#paint1_linear_10030_150)"/>
<path d="M8.98959 15.1324C8.7222 15.3997 8.67884 15.6382 8.84505 15.9634C8.90287 16.0718 9.03294 16.1947 9.14134 16.2453C9.27865 16.3103 10.6083 16.332 14.3517 16.332C19.8511 16.332 19.6849 16.3464 19.8728 15.9056C19.9884 15.6238 19.9089 15.313 19.6849 15.0962L19.497 14.9228L14.3661 14.9011L9.23529 14.8867L8.98959 15.1324Z" fill="url(#paint2_linear_10030_150)"/>
<path d="M9.95812 23.0961C9.5462 23.3201 9.48116 23.8693 9.82081 24.2162L10.0304 24.4258H14.3446H18.6589L18.8685 24.2162C19.2226 23.8621 19.1214 23.2912 18.6661 23.06C18.5577 23.0021 17.2714 22.9805 14.3302 22.9805C10.7819 22.9877 10.1243 23.0021 9.95812 23.0961Z" fill="url(#paint3_linear_10030_150)"/>
<path d="M12.2415 28.4654C11.7718 28.6678 11.6345 29.282 11.9886 29.6361C12.48 30.1275 13.3183 29.6939 13.1954 29.0219C13.116 28.5955 12.6173 28.3064 12.2415 28.4654Z" fill="url(#paint4_linear_10030_150)"/>
</g>
<defs>
<linearGradient id="paint0_linear_10030_150" x1="26.7231" y1="37" x2="21.8213" y2="-4.85765" gradientUnits="userSpaceOnUse">
<stop stop-color="#DC767D"/>
<stop offset="1" stop-color="#EC4D57"/>
</linearGradient>
<linearGradient id="paint1_linear_10030_150" x1="15.1782" y1="12.8472" x2="13.0289" y2="3.07096" gradientUnits="userSpaceOnUse">
<stop stop-color="#DC767D"/>
<stop offset="1" stop-color="#EC4D57"/>
</linearGradient>
<linearGradient id="paint2_linear_10030_150" x1="16.8207" y1="16.332" x2="16.7956" y2="14.6749" gradientUnits="userSpaceOnUse">
<stop stop-color="#DC767D"/>
<stop offset="1" stop-color="#EC4D57"/>
</linearGradient>
<linearGradient id="paint3_linear_10030_150" x1="16.4486" y1="24.4258" x2="16.419" y2="22.7688" gradientUnits="userSpaceOnUse">
<stop stop-color="#DC767D"/>
<stop offset="1" stop-color="#EC4D57"/>
</linearGradient>
<linearGradient id="paint4_linear_10030_150" x1="12.8136" y1="29.8472" x2="12.6237" y2="28.2342" gradientUnits="userSpaceOnUse">
<stop stop-color="#DC767D"/>
<stop offset="1" stop-color="#EC4D57"/>
</linearGradient>
<clipPath id="clip0_10030_150">
<rect width="37" height="37" fill="white"/>
</clipPath>
</defs>
</svg>
