<svg width="37" height="37" viewBox="0 0 37 37" fill="none" xmlns="http://www.w3.org/2000/svg">
<path d="M8.23828 1.84278C6.96641 2.11739 5.73789 3.08575 5.14531 4.26368C4.66836 5.21758 4.625 5.53555 4.625 8.25274V10.6158L4.44434 10.8832C3.97461 11.5697 3.93848 12.473 4.35039 13.2391C4.69004 13.8822 5.29707 14.3086 6.01973 14.417C6.34492 14.4676 6.35938 14.482 6.35938 14.7061C6.35938 15.118 6.55449 15.9996 6.77852 16.5633C7.06035 17.2932 7.53731 17.9941 8.15879 18.5939L8.67188 19.0926V19.7213V20.3572L6.38106 20.8775C4.53105 21.3039 3.96738 21.4629 3.49043 21.6869C2.48594 22.1639 1.66211 23.1322 1.33691 24.209C1.2502 24.5053 1.13457 25.9 0.896094 29.5928C0.722656 32.3316 0.578125 34.6514 0.578125 34.7453C0.578125 34.8393 0.657617 34.991 0.758789 35.085L0.932227 35.2656H12.1406H23.349L23.5225 35.085C23.7248 34.8826 23.732 34.8826 23.6309 33.5023C23.5875 32.9459 23.5658 32.4834 23.5803 32.4689C23.5947 32.4545 24.1295 32.6424 24.7582 32.8809C25.3869 33.1193 26.1674 33.365 26.4854 33.4301C27.1936 33.5746 28.0391 33.5313 28.6967 33.3145C29.3037 33.1121 35.5836 29.7301 35.8582 29.4627C36.3713 28.9424 36.5447 28.1619 36.2846 27.5693C36.1979 27.3742 36.075 27.1502 36.0027 27.0707C35.8148 26.8611 35.1934 26.5938 34.8826 26.5938C34.7092 26.5938 33.8781 26.8684 32.6641 27.3164C31.5945 27.7139 30.7057 28.0391 30.6768 28.0391C30.6551 28.0391 30.6406 27.9234 30.6406 27.7789C30.6406 27.3381 30.4816 26.9551 30.1564 26.5938C29.7012 26.0879 29.4338 26.0156 27.9596 26.0156H26.7527L25.7699 25.6904C25.2352 25.5098 24.4113 25.2785 23.9488 25.1846C23.4863 25.0906 23.1033 25.0039 23.0961 24.9895C23.0889 24.975 23.0455 24.7727 22.9949 24.5342C22.8576 23.826 22.3951 22.9805 21.8531 22.4457C21.0799 21.6797 20.6174 21.499 17.9074 20.8775L15.6094 20.35V19.7213V19.0926L16.1225 18.5939C16.7439 17.9941 17.2209 17.2932 17.5027 16.5633C17.7268 15.9996 17.9219 15.118 17.9219 14.7061C17.9219 14.482 17.9363 14.4676 18.2688 14.417C18.6951 14.3592 19.3889 13.9906 19.6273 13.7088C20.3139 12.8922 20.4078 11.7215 19.8441 10.8904C19.6635 10.6303 19.6635 10.6303 19.6418 8.44063L19.6201 6.25098L19.3889 5.7668C19.266 5.49942 19.0275 5.13809 18.8613 4.95743C18.5578 4.625 17.6762 4.11914 17.4088 4.11914C17.3221 4.11914 17.2715 4.06856 17.2715 3.98184C17.2715 3.71446 16.7656 2.83282 16.4332 2.5293C16.2525 2.36309 15.8912 2.12461 15.6238 2.00176L15.1396 1.77051L11.9238 1.75606C9.38008 1.74883 8.60684 1.76329 8.23828 1.84278ZM14.9879 2.97735C15.6021 3.15801 16.1875 3.96016 16.1875 4.61778C16.1875 4.92852 16.4621 5.20313 16.7729 5.20313C17.2209 5.20313 17.5895 5.36934 17.958 5.74512C18.4711 6.25098 18.5 6.40274 18.5 8.31055V9.91485L18.341 9.87149C18.2471 9.84981 18.1242 9.82813 18.0664 9.82813C18.0014 9.82813 17.9219 9.74141 17.8785 9.62578C17.8207 9.47403 17.4522 9.2211 16.2092 8.46953C15.2047 7.86973 14.5398 7.51563 14.4098 7.51563C14.2725 7.51563 14.1496 7.59512 13.9906 7.78301C13.5859 8.26719 13.1668 8.64297 12.8127 8.83809C12.1117 9.21387 11.8154 9.25 9.15606 9.25H6.71348L6.54004 9.43067C6.43887 9.52461 6.35938 9.65469 6.35938 9.71973C6.35938 9.77754 6.30156 9.82813 6.23652 9.82813C6.16426 9.82813 6.03418 9.84981 5.94746 9.87149L5.78125 9.91485V7.93477C5.78125 6.38828 5.80293 5.86075 5.88965 5.52832C6.20762 4.30704 7.17598 3.33145 8.40449 2.99903C8.91035 2.86172 14.5326 2.84727 14.9879 2.97735ZM15.7467 9.53907L16.7729 10.1533L16.7512 12.7549C16.7223 15.1975 16.715 15.3854 16.5633 15.8262C16.0863 17.2498 14.8939 18.435 13.4775 18.883C13.0656 19.0131 12.8055 19.042 12.1045 19.042C11.3529 19.0348 11.165 19.0059 10.7098 18.8469C9.51016 18.4133 8.56348 17.6039 8.03594 16.5488C7.56621 15.6021 7.51563 15.2697 7.51563 12.6609V10.4063H9.59688C11.9455 10.4063 12.343 10.3484 13.1957 9.9293C13.4848 9.792 13.9111 9.49571 14.1424 9.27891C14.3736 9.06934 14.5977 8.90313 14.641 8.91035C14.6844 8.91758 15.183 9.19942 15.7467 9.53907ZM6.35938 12.1406C6.35938 13.4197 6.3666 13.3908 5.9041 13.1957C5.00078 12.8199 4.99356 11.4758 5.88965 11.0856C6.3666 10.876 6.35938 10.8615 6.35938 12.1406ZM18.565 11.1867C18.9191 11.4469 19.042 11.6926 19.042 12.1406C19.042 12.4586 19.0059 12.6176 18.8902 12.7621C18.6879 13.0439 18.435 13.2174 18.1604 13.268L17.9219 13.3113V12.1406V10.9627L18.1604 11.0133C18.2832 11.035 18.4711 11.1145 18.565 11.1867ZM11.1145 20.1332C12.0756 20.3139 13.1885 20.2271 14.0773 19.8875L14.4531 19.743V20.0826V20.4295L13.2969 20.8848L12.1406 21.34L10.9844 20.8848L9.82813 20.4295V20.0826V19.743L10.2111 19.8875C10.4135 19.967 10.8254 20.0754 11.1145 20.1332ZM10.9555 22.135C10.9699 22.1494 10.6086 22.4602 10.1461 22.8287C9.32949 23.4791 9.31504 23.4936 9.19219 23.349C9.12715 23.2695 8.80195 22.901 8.47676 22.5324C8.14434 22.1639 7.87695 21.8242 7.88418 21.7881C7.88418 21.7447 8.18047 21.6508 8.54902 21.5713L9.21387 21.4195L10.0738 21.7664C10.5508 21.9543 10.9482 22.1205 10.9555 22.135ZM16.1369 21.6508C16.2814 21.6797 16.4188 21.723 16.4404 21.7447C16.4621 21.7881 16.0141 22.3229 15.2336 23.1828L14.959 23.4863L14.1279 22.8215C13.6727 22.4602 13.3113 22.1494 13.3258 22.135C13.333 22.1205 13.7377 21.9543 14.2074 21.7592L15.0674 21.4123L15.4648 21.5063C15.6816 21.5641 15.9852 21.6291 16.1369 21.6508ZM7.55898 23.2479C8.15156 23.9199 8.72246 24.5486 8.83086 24.657C9.09102 24.9244 9.37285 24.9172 9.71973 24.6426C9.87148 24.5197 10.0232 24.433 10.0521 24.4402C10.0811 24.4547 10.2979 24.7148 10.5363 25.0256L10.9555 25.5965L10.4279 29.759C10.1461 32.0498 9.90762 33.9721 9.90039 34.0154C9.90039 34.0877 9.43789 34.1094 7.84082 34.1094H5.78125V30.9297V27.75H5.20313H4.625V30.9297V34.1094H3.21582H1.80664V33.8059C1.80664 33.1555 2.3125 25.3074 2.37754 24.91C2.5293 24.0139 3.10742 23.19 3.88789 22.7781C4.21309 22.6047 5.96191 22.1061 6.43887 22.0482C6.46777 22.041 6.97363 22.583 7.55898 23.2479ZM19.0348 22.3301C20.1332 22.5902 20.6896 22.8576 21.1377 23.3563C21.4846 23.7393 21.7953 24.3102 21.8676 24.7076C21.9109 24.9244 21.9037 24.9461 21.7953 24.91C21.723 24.8811 21.6074 24.8594 21.5279 24.8594C21.4123 24.8594 21.3906 24.8088 21.3906 24.4619C21.3906 24.1295 21.3617 24.0283 21.21 23.8838L21.0365 23.7031H19.0781H17.1197L16.9463 23.8838L16.7656 24.0572V28.3281V32.599L16.9463 32.7725C17.1053 32.9387 17.1775 32.9531 17.8135 32.9531H18.5V33.5313V34.1094H16.4404C14.8434 34.1094 14.3809 34.0877 14.3809 34.0154C14.3736 33.9721 14.1352 32.0498 13.8533 29.759L13.3258 25.5965L13.7449 25.0256C13.9834 24.7148 14.2002 24.4547 14.2291 24.4402C14.258 24.433 14.4098 24.5197 14.5615 24.6426C14.9084 24.9172 15.1902 24.9244 15.4504 24.657C15.5588 24.5486 16.1297 23.9199 16.7223 23.2551C17.5967 22.2578 17.8207 22.0482 17.9508 22.0772C18.0303 22.0988 18.5217 22.2145 19.0348 22.3301ZM12.7621 23.2045C13.0584 23.443 13.2969 23.6598 13.2969 23.6742C13.2969 23.6959 13.1018 23.9705 12.8633 24.2885C12.4441 24.8305 12.408 24.8594 12.1406 24.8594C11.8732 24.8594 11.8371 24.8305 11.4107 24.274C10.9049 23.6092 10.8904 23.7176 11.6059 23.125C11.8371 22.9299 12.0756 22.7709 12.1262 22.7709C12.184 22.7637 12.4658 22.9588 12.7621 23.2045ZM20.2344 28.3281V31.7969H19.0781H17.9219V28.3281V24.8594H19.0781H20.2344V28.3281ZM12.2418 26.283C12.2635 26.4348 12.4803 28.133 12.7188 30.0625C12.9572 31.992 13.174 33.6902 13.1957 33.8348L13.2391 34.1094H12.1406H11.0494L11.0928 33.8709C11.1289 33.6469 12.0684 26.1385 12.0684 26.059C12.0684 26.0373 12.0973 26.0156 12.1334 26.0156C12.1695 26.0156 12.2201 26.1385 12.2418 26.283ZM22.9805 26.2035C23.9561 26.348 24.9967 26.6082 25.8277 26.9189L26.4854 27.1719H27.8078C29.1158 27.1719 29.1303 27.1719 29.3037 27.3525C29.4193 27.4609 29.4844 27.6127 29.4844 27.75C29.4844 27.8873 29.4193 28.0391 29.3037 28.1475L29.1303 28.3281H27.2803H25.4375V28.9135V29.4988L27.7355 29.4699C30.4383 29.4338 30.207 29.4771 32.9459 28.4438C33.9504 28.0607 34.8248 27.75 34.8898 27.75C35.2439 27.75 35.3813 28.2631 35.1066 28.5738C35.0127 28.6678 33.5096 29.5133 31.768 30.4527C27.432 32.7797 27.6705 32.7363 24.7943 31.6596C22.8504 30.9297 22.4602 30.8068 21.8604 30.7273L21.4268 30.6768L21.4051 28.357L21.3906 26.0373L21.8025 26.0662C22.0338 26.0807 22.5613 26.1457 22.9805 26.2035ZM22.359 32.0209C22.3807 32.0354 22.4168 32.5123 22.4457 33.0832L22.4963 34.1094H21.0727H19.6563V33.5313V32.9531H20.3428C20.9787 32.9531 21.051 32.9387 21.21 32.7725C21.3545 32.6279 21.3906 32.5268 21.3906 32.2088V31.8113L21.8604 31.9053C22.1205 31.9486 22.3445 32.0064 22.359 32.0209Z" fill="url(#paint0_linear_10030_158)"/>
<path d="M27.3524 13.9545C25.2278 14.3736 23.5151 15.8334 22.8792 17.7701C22.1638 19.9453 22.6769 22.1566 24.2523 23.732C25.3796 24.8594 26.6948 25.4014 28.328 25.4014C29.9612 25.4014 31.2765 24.8594 32.4038 23.732C33.5312 22.6047 34.0731 21.2895 34.0731 19.6563C34.0731 18.3988 33.813 17.5027 33.1771 16.5344C32.3605 15.2842 31.197 14.4531 29.7011 14.0412C29.2097 13.9111 27.8366 13.8605 27.3524 13.9545ZM29.3036 15.1396C30.8646 15.4648 32.2593 16.7512 32.7579 18.3193C32.9819 19.0348 32.9819 20.2777 32.7579 20.9932C32.3026 22.4313 31.103 23.6309 29.6649 24.0861C28.9495 24.3102 27.7065 24.3102 26.9911 24.0861C25.8132 23.7104 24.7581 22.8215 24.2233 21.752C23.5368 20.3861 23.5368 18.9336 24.2089 17.5895C25.1628 15.6961 27.2224 14.7061 29.3036 15.1396Z" fill="url(#paint1_linear_10030_158)"/>
<path d="M27.75 16.5416C27.75 16.8668 27.7355 16.9029 27.5332 16.9824C27.0418 17.1848 26.5938 17.9146 26.5938 18.5C26.5938 19.3889 27.432 20.2344 28.3209 20.2344C28.6244 20.2344 28.9062 20.509 28.9062 20.8125C28.9062 21.1088 28.6244 21.3906 28.3281 21.3906C28.0896 21.3906 27.75 21.116 27.75 20.9209C27.75 20.8342 27.6416 20.8125 27.1719 20.8125C26.5287 20.8125 26.5215 20.8125 26.6805 21.3328C26.7816 21.6797 27.2297 22.2072 27.5332 22.3301C27.7355 22.4096 27.75 22.4457 27.75 22.7709V23.125H28.3281H28.9062V22.7709C28.9062 22.4457 28.9207 22.4096 29.123 22.3301C29.6145 22.1277 30.0625 21.3979 30.0625 20.8125C30.0625 19.9236 29.2242 19.0781 28.3354 19.0781C28.0318 19.0781 27.75 18.8035 27.75 18.5C27.75 18.2037 28.0318 17.9219 28.3281 17.9219C28.5666 17.9219 28.9062 18.1965 28.9062 18.3916C28.9062 18.4783 29.0146 18.5 29.4844 18.5C30.1275 18.5 30.1348 18.5 29.9758 17.9797C29.8746 17.6328 29.4266 17.1053 29.123 16.9824C28.9207 16.9029 28.9062 16.8668 28.9062 16.5416V16.1875H28.3281H27.75V16.5416Z" fill="url(#paint2_linear_10030_158)"/>
<defs>
<linearGradient id="paint0_linear_10030_158" x1="26.4534" y1="35.2656" x2="22.2937" y2="-2.70945" gradientUnits="userSpaceOnUse">
<stop stop-color="#DC767D"/>
<stop offset="1" stop-color="#EC4D57"/>
</linearGradient>
<linearGradient id="paint1_linear_10030_158" x1="30.876" y1="25.4014" x2="29.3551" y2="12.3965" gradientUnits="userSpaceOnUse">
<stop stop-color="#DC767D"/>
<stop offset="1" stop-color="#EC4D57"/>
</linearGradient>
<linearGradient id="paint2_linear_10030_158" x1="29.099" y1="23.125" x2="27.3326" y2="15.5828" gradientUnits="userSpaceOnUse">
<stop stop-color="#DC767D"/>
<stop offset="1" stop-color="#EC4D57"/>
</linearGradient>
</defs>
</svg>
