<svg width="34" height="34" viewBox="0 0 34 34" fill="none" xmlns="http://www.w3.org/2000/svg">
    <circle cx="17" cy="17" r="17" fill="#F5F5F5" />
    <g clip-path="url(#clip0_190_1621)">
        <path
            d="M18.4159 17.0126L24.4336 10.9948C24.8252 10.6033 24.8252 9.97042 24.4336 9.57898C24.0421 9.18754 23.4092 9.18754 23.0178 9.57898L16.9999 15.5969L10.9822 9.57898C10.5906 9.18754 9.95788 9.18754 9.56644 9.57898C9.17482 9.97042 9.17482 10.6033 9.56644 10.9948L15.5841 17.0126L9.56644 23.0305C9.17482 23.4219 9.17482 24.0548 9.56644 24.4463C9.76152 24.6415 10.018 24.7396 10.2743 24.7396C10.5306 24.7396 10.787 24.6415 10.9822 24.4463L16.9999 18.4284L23.0178 24.4463C23.213 24.6415 23.4694 24.7396 23.7257 24.7396C23.982 24.7396 24.2383 24.6415 24.4336 24.4463C24.8252 24.0548 24.8252 23.4219 24.4336 23.0305L18.4159 17.0126Z"
            fill="black" />
    </g>
    <defs>
        <clipPath id="clip0_190_1621">
            <rect width="15.4545" height="15.4545" fill="white" transform="translate(9.27273 9.27271)" />
        </clipPath>
    </defs>
</svg>