<svg width="19" height="19" viewBox="0 0 19 19" fill="none" xmlns="http://www.w3.org/2000/svg">
<path d="M13.4033 0.953125C14.2822 0.0742188 15.7236 0.0742188 16.6025 0.953125L17.9736 2.32422C18.8525 3.20312 18.8525 4.64453 17.9736 5.52344L16.2861 7.21094L11.7158 2.64062L13.4033 0.953125ZM15.4775 8.01953L7.28613 16.2109C6.93457 16.5625 6.47754 16.8438 5.98535 16.9844L1.73145 18.2148C1.4502 18.3203 1.13379 18.25 0.922852 18.0039C0.676758 17.793 0.606445 17.4766 0.676758 17.1953L1.94238 12.9414C2.08301 12.4492 2.36426 11.9922 2.71582 11.6406L10.9072 3.44922L15.4775 8.01953Z" fill="#EF3328"/>
</svg>
