<svg width="23" height="26" viewBox="0 0 23 26" fill="none" xmlns="http://www.w3.org/2000/svg">
<path d="M16.668 9.58598L6.22265 3.56252M1.31336 6.75415L11.4453 12.6151L21.5773 6.75415M11.4453 24.3023V12.6035M21.8906 17.2459V7.96116C21.8902 7.55411 21.7828 7.15433 21.579 6.80192C21.3753 6.44951 21.0825 6.15686 20.73 5.95334L12.6059 1.31098C12.253 1.10725 11.8528 1 11.4453 1C11.0379 1 10.6376 1.10725 10.2847 1.31098L2.16059 5.95334C1.80808 6.15686 1.51528 6.44951 1.31157 6.80192C1.10787 7.15433 1.00042 7.55411 1 7.96116V17.2459C1.00042 17.6529 1.10787 18.0527 1.31157 18.4051C1.51528 18.7575 1.80808 19.0502 2.16059 19.2537L10.2847 23.8961C10.6376 24.0998 11.0379 24.207 11.4453 24.207C11.8528 24.207 12.253 24.0998 12.6059 23.8961L20.73 19.2537C21.0825 19.0502 21.3753 18.7575 21.579 18.4051C21.7828 18.0527 21.8902 17.6529 21.8906 17.2459Z" stroke="#707070" stroke-width="1.5" stroke-linecap="round" stroke-linejoin="round"/>
</svg>
