<svg width="16" height="16" viewBox="0 0 16 16" fill="none" xmlns="http://www.w3.org/2000/svg">
    <path
        d="M8.54059 4.41772C8.19796 4.41767 7.86301 4.51922 7.5781 4.70953C7.29319 4.89984 7.07112 5.17037 6.93996 5.4869C6.8088 5.80342 6.77446 6.15174 6.84127 6.48779C6.90807 6.82384 7.07304 7.13253 7.31529 7.37482C7.55754 7.61711 7.8662 7.78213 8.20224 7.84899C8.53828 7.91585 8.8866 7.88157 9.20315 7.75046C9.5197 7.61936 9.79026 7.39733 9.98062 7.11245C10.171 6.82757 10.2726 6.49264 10.2726 6.15001C10.2726 5.69063 10.0901 5.25006 9.76531 4.9252C9.44051 4.60034 8.99997 4.4178 8.54059 4.41772ZM8.54059 7.1643C8.33923 7.16435 8.14238 7.1047 7.97494 6.99287C7.80749 6.88105 7.67697 6.72208 7.59987 6.53607C7.52278 6.35006 7.50258 6.14536 7.54183 5.94787C7.58107 5.75038 7.67801 5.56896 7.82036 5.42656C7.96272 5.28416 8.14411 5.18718 8.34159 5.14788C8.53907 5.10857 8.74377 5.12872 8.92981 5.20576C9.11584 5.2828 9.27484 5.41328 9.38672 5.5807C9.49859 5.74811 9.5583 5.94494 9.5583 6.1463C9.5583 6.41624 9.45109 6.67513 9.26024 6.86603C9.06939 7.05693 8.81053 7.16422 8.54059 7.1643Z"
        fill="#EC1C29" />
    <path
        d="M8.54058 8.45703C7.05486 8.45703 5.89029 9.66046 5.89029 11.1999C5.89059 11.2945 5.92831 11.3852 5.99523 11.4521C6.06214 11.519 6.1528 11.5567 6.24743 11.557H10.8334C10.9281 11.5567 11.0187 11.519 11.0856 11.4521C11.1525 11.3852 11.1903 11.2945 11.1906 11.1999C11.1906 9.66046 10.026 8.45703 8.54058 8.45703ZM6.63315 10.8427C6.78686 9.86789 7.55486 9.17132 8.54058 9.17132C9.52629 9.17132 10.2977 9.86789 10.4477 10.8427H6.63315Z"
        fill="#EC1C29" />
    <path
        d="M12.762 0.485596H4.32256C3.84903 0.485823 3.39496 0.674033 3.06012 1.00887C2.72528 1.34371 2.53707 1.79778 2.53684 2.27131V3.01417H1.7857C1.65688 3.01417 1.53334 3.06534 1.44225 3.15643C1.35116 3.24752 1.29999 3.37106 1.29999 3.49988V4.5856C1.29999 4.71442 1.35116 4.83796 1.44225 4.92905C1.53334 5.02014 1.65688 5.07131 1.7857 5.07131H2.53313V10.8999H1.7857C1.65688 10.8999 1.53334 10.9511 1.44225 11.0421C1.35116 11.1332 1.29999 11.2568 1.29999 11.3856V12.4713C1.29999 12.6001 1.35116 12.7237 1.44225 12.8148C1.53334 12.9059 1.65688 12.957 1.7857 12.957H2.53313V13.6999C2.53343 14.1734 2.72167 14.6274 3.05649 14.9622C3.39131 15.2971 3.84534 15.4853 4.31885 15.4856H12.7583C13.2316 15.4851 13.6854 15.2967 14.02 14.9619C14.3546 14.6271 14.5426 14.1732 14.5428 13.6999V2.27131C14.5432 2.03712 14.4974 1.80516 14.4081 1.58867C14.3188 1.37218 14.1877 1.17541 14.0223 1.00958C13.8569 0.84376 13.6605 0.712137 13.4443 0.622231C13.228 0.532325 12.9962 0.485896 12.762 0.485596ZM2.01427 4.35702V3.72845H3.7857V4.35702H2.01427ZM2.01427 12.2427V11.6142H3.7857V12.2427H2.01427ZM13.8334 13.6999C13.8325 13.9838 13.7193 14.2558 13.5186 14.4565C13.3179 14.6572 13.0459 14.7704 12.762 14.7713H4.32256C4.03868 14.7704 3.76668 14.6572 3.56594 14.4565C3.36521 14.2558 3.25203 13.9838 3.25113 13.6999V12.957H4.01427C4.14309 12.957 4.26664 12.9059 4.35773 12.8148C4.44881 12.7237 4.49999 12.6001 4.49999 12.4713V11.3856C4.49999 11.2568 4.44881 11.1332 4.35773 11.0421C4.26664 10.9511 4.14309 10.8999 4.01427 10.8999H3.25113V5.07131H4.01427C4.14309 5.07131 4.26664 5.02014 4.35773 4.92905C4.44881 4.83796 4.49999 4.71442 4.49999 4.5856V3.49988C4.49999 3.37106 4.44881 3.24752 4.35773 3.15643C4.26664 3.06534 4.14309 3.01417 4.01427 3.01417H3.25113V2.27131C3.25203 1.98743 3.36521 1.71543 3.56594 1.51469C3.76668 1.31396 4.03868 1.20079 4.32256 1.19988H12.762C13.0459 1.20079 13.3179 1.31396 13.5186 1.51469C13.7193 1.71543 13.8325 1.98743 13.8334 2.27131V13.6999Z"
        fill="#EC1C29" />
</svg>