<svg width="24" height="18" viewBox="0 0 24 18" fill="none" xmlns="http://www.w3.org/2000/svg">
    <path fill-rule="evenodd" clip-rule="evenodd"
        d="M6.17287 11.3169C6.17287 9.56766 10.1526 8.14838 15.0636 8.14838C19.9733 8.14838 23.9531 9.5677 23.9531 11.3169V14.2292C23.9531 15.9785 19.9733 17.3978 15.0636 17.3978C10.1526 17.3978 6.17287 15.9784 6.17287 14.2292C6.17287 13.2585 6.17287 12.2877 6.17287 11.3169Z"
        fill="#FE9923" />
    <path fill-rule="evenodd" clip-rule="evenodd"
        d="M15.0637 8.14838C19.9733 8.14838 23.9531 9.5677 23.9531 11.3169C23.9531 13.0675 19.9733 14.4855 15.0637 14.4855C10.1527 14.4855 6.17291 13.0676 6.17291 11.3169C6.17287 9.56766 10.1527 8.14838 15.0637 8.14838Z"
        fill="#FECD3D" />
    <path fill-rule="evenodd" clip-rule="evenodd"
        d="M15.0637 9.62903C18.9699 9.62903 22.1357 10.3857 22.1357 11.3169C22.1357 12.2495 18.9699 13.0048 15.0637 13.0048C11.1575 13.0048 7.99031 12.2495 7.99031 11.3169C7.99031 10.3857 11.1575 9.62903 15.0637 9.62903Z"
        fill="#FEA832" />
    <path
        d="M10.5631 15.6267L11.3225 15.6281V17.1033C11.0621 17.061 10.8099 17.0133 10.5631 16.9615V15.6267ZM21.5494 14.8455V16.3957C21.8235 16.2907 22.077 16.1803 22.3102 16.0644V14.8441L21.5494 14.8455ZM13.309 17.3351C13.5599 17.3541 13.8135 17.3678 14.0698 17.3773V15.9676L13.309 15.9689V17.3351ZM7.8158 16.0644C8.04895 16.1803 8.30255 16.2907 8.57658 16.3957V14.8441L7.8158 14.8455V16.0644ZM16.0562 17.3773C16.3139 17.3678 16.5661 17.3528 16.8157 17.3351V15.9689L16.0562 15.9676V17.3773ZM18.8035 17.1033C19.0639 17.061 19.3175 17.0133 19.563 16.9615V15.6281L18.8035 15.6267V17.1033Z"
        fill="#C85929" />
    <path fill-rule="evenodd" clip-rule="evenodd"
        d="M0.162979 9.66996C-0.712318 8.15383 2.02542 4.93483 6.27787 2.48069C10.5304 0.0251895 14.686 -0.735592 15.5613 0.779127C16.0467 1.62035 16.5321 2.4602 17.0174 3.30006C17.8927 4.81619 15.155 8.03519 10.9026 10.4893C6.6501 12.9448 2.4944 13.707 1.6191 12.1908C1.13371 11.351 0.64837 10.5098 0.162979 9.66996Z"
        fill="#FE9923" />
    <path fill-rule="evenodd" clip-rule="evenodd"
        d="M6.27787 2.48069C10.5304 0.0251895 14.686 -0.735592 15.5613 0.779127C16.4366 2.29525 13.6989 5.51425 9.44643 7.96839C5.19534 10.4239 1.03828 11.1847 0.162979 9.66991C-0.712318 8.15383 2.02542 4.93483 6.27787 2.48069Z"
        fill="#FECD3D" />
    <path fill-rule="evenodd" clip-rule="evenodd"
        d="M7.01821 3.76232C10.4009 1.80993 13.5217 0.881429 13.988 1.68857C14.4542 2.49571 12.0887 4.73305 8.70613 6.68685C5.32349 8.63924 2.20401 9.56774 1.73774 8.7606C1.27147 7.95346 3.63557 5.71607 7.01821 3.76232Z"
        fill="#FEA832" />
    <path
        d="M9.32784 9.74905L10.0327 10.9693C9.80507 11.0893 9.57871 11.2038 9.3524 11.3128L8.66933 10.1294L9.32784 9.74905ZM3.35062 11.9032L3.96009 12.9585C4.21912 12.9435 4.49455 12.9121 4.78359 12.8658L4.00916 11.5229L3.35062 11.9032ZM6.11971 11.2065L6.78777 12.3627C7.02637 12.285 7.26904 12.1991 7.51583 12.1064L6.77821 10.8275L6.11971 11.2065ZM11.0484 8.75512L11.7533 9.97537C11.9701 9.83905 12.1828 9.69998 12.39 9.55954L11.707 8.37744L11.0484 8.75512ZM15.9022 4.65533L15.2436 5.03708L16.0194 6.37869C16.2035 6.15238 16.3685 5.92874 16.5116 5.71194L15.9022 4.65533ZM13.2572 7.08632L13.9948 8.36521C14.1993 8.19885 14.3943 8.03118 14.5811 7.86346L13.9144 6.70865L13.2572 7.08632Z"
        fill="#C85929" />
</svg>