<svg width="13" height="13" viewBox="0 0 13 13" fill="none" xmlns="http://www.w3.org/2000/svg">
<g clip-path="url(#clip0_577_42)">
<path d="M11.2466 5.74062V6.20062C11.246 7.27883 10.8968 8.32795 10.2512 9.19153C9.60567 10.0551 8.69822 10.6869 7.66426 10.9926C6.6303 11.2983 5.52521 11.2616 4.51382 10.8879C3.50242 10.5142 2.63891 9.82367 2.05206 8.91915C1.46522 8.01463 1.18648 6.94465 1.25742 5.86877C1.32836 4.7929 1.74519 3.76878 2.44572 2.94915C3.14626 2.12953 4.09297 1.55831 5.14468 1.32069C6.19638 1.08307 7.29672 1.19178 8.28158 1.63062M11.2466 2.20062L6.24658 7.20562L4.74658 5.70562" stroke="#00C480" stroke-width="1.5" stroke-linecap="round" stroke-linejoin="round"/>
</g>
<defs>
<clipPath id="clip0_577_42">
<rect width="12" height="12" fill="white" transform="translate(0.246582 0.200684)"/>
</clipPath>
</defs>
</svg>
