<svg width="24" height="25" viewBox="0 0 24 25" fill="none" xmlns="http://www.w3.org/2000/svg">
<path d="M20.3097 6.01544L20.3099 6.01569C20.7512 6.4568 21.1013 6.98054 21.3402 7.55698L22.033 7.26988L21.3402 7.55698C21.579 8.13342 21.7019 8.75127 21.7019 9.37524C21.7019 9.9992 21.579 10.6171 21.3402 11.1935L22.033 11.4806L21.3402 11.1935C21.1013 11.7699 20.7512 12.2937 20.3099 12.7348L20.3098 12.7349L19.2498 13.7949L12.0001 21.0446L4.75045 13.7949L3.69045 12.7349C2.79941 11.8439 2.29883 10.6354 2.29883 9.37524C2.29883 8.11512 2.79941 6.90661 3.69045 6.01557C4.58149 5.12453 5.79 4.62395 7.05012 4.62395C8.31024 4.62395 9.51875 5.12453 10.4098 6.01557L11.4698 7.07557C11.7627 7.36846 12.2376 7.36846 12.5304 7.07557L13.5905 6.01557L13.5906 6.01544C14.0317 5.57413 14.5554 5.22405 15.1319 4.9852C15.7083 4.74635 16.3262 4.62341 16.9501 4.62341C17.5741 4.62341 18.1919 4.74635 18.7684 4.9852C19.3448 5.22405 19.8686 5.57413 20.3097 6.01544Z" stroke="#707070" stroke-width="1.5" stroke-linecap="round" stroke-linejoin="round"/>
</svg>
