<svg width="24" height="28" viewBox="0 0 24 28" fill="none" xmlns="http://www.w3.org/2000/svg">
<path d="M12.6059 1H3.32118C2.70556 1 2.11516 1.24455 1.67986 1.67986C1.24455 2.11516 1 2.70556 1 3.32118V21.8906C1 22.5062 1.24455 23.0966 1.67986 23.5319C2.11516 23.9672 2.70556 24.2118 3.32118 24.2118H17.2483C17.8639 24.2118 18.4543 23.9672 18.8896 23.5319C19.3249 23.0966 19.5694 22.5062 19.5694 21.8906V7.96354M12.6059 1L19.5694 7.96354M12.6059 1V7.96354H19.5694M14.9271 13.7665H5.64236M7.96354 9.12413H5.64236" stroke="#707070" stroke-width="1.5" stroke-linecap="round" stroke-linejoin="round"/>
<path d="M17.1032 27.1133C20.2279 27.1133 22.7611 24.5802 22.7611 21.4554C22.7611 18.3306 20.2279 15.7975 17.1032 15.7975C13.9784 15.7975 11.4453 18.3306 11.4453 21.4554C11.4453 24.5802 13.9784 27.1133 17.1032 27.1133Z" fill="#707070"/>
<path d="M17.1032 18.0607V21.4554L19.3663 22.587" fill="#707070"/>
<path d="M17.1032 18.0607V21.4554L19.3663 22.587M22.7611 21.4554C22.7611 24.5802 20.2279 27.1133 17.1032 27.1133C13.9784 27.1133 11.4453 24.5802 11.4453 21.4554C11.4453 18.3306 13.9784 15.7975 17.1032 15.7975C20.2279 15.7975 22.7611 18.3306 22.7611 21.4554Z" stroke="white" stroke-width="1.5" stroke-linecap="round" stroke-linejoin="round"/>
</svg>
