<svg width="24" height="28" viewBox="0 0 24 28" fill="none" xmlns="http://www.w3.org/2000/svg">
<path d="M12.5512 1H3.26649C2.65088 1 2.06048 1.24455 1.62517 1.67986C1.18986 2.11516 0.945313 2.70556 0.945312 3.32118V21.8906C0.945313 22.5062 1.18986 23.0966 1.62517 23.5319C2.06048 23.9672 2.65088 24.2118 3.26649 24.2118H17.1936C17.8092 24.2118 18.3996 23.9672 18.8349 23.5319C19.2702 23.0966 19.5148 22.5062 19.5148 21.8906V7.96354M12.5512 1L19.5148 7.96354M12.5512 1V7.96354H19.5148M14.8724 13.7665H5.58767M7.90885 9.12413H5.58767" stroke="#707070" stroke-width="1.5" stroke-linecap="round" stroke-linejoin="round"/>
<path d="M17.0485 27.1134C20.1733 27.1134 22.7064 24.5802 22.7064 21.4555C22.7064 18.3307 20.1733 15.7976 17.0485 15.7976C13.9237 15.7976 11.3906 18.3307 11.3906 21.4555C11.3906 24.5802 13.9237 27.1134 17.0485 27.1134Z" fill="#707070"/>
<path d="M17.0485 18.0608V21.4555L19.3117 22.5871" fill="#707070"/>
<path d="M17.0485 18.0608V21.4555L19.3117 22.5871M22.7064 21.4555C22.7064 24.5802 20.1733 27.1134 17.0485 27.1134C13.9237 27.1134 11.3906 24.5802 11.3906 21.4555C11.3906 18.3307 13.9237 15.7976 17.0485 15.7976C20.1733 15.7976 22.7064 18.3307 22.7064 21.4555Z" stroke="white" stroke-width="1.5" stroke-linecap="round" stroke-linejoin="round"/>
</svg>
