<svg width="24" height="25" viewBox="0 0 24 25" fill="none" xmlns="http://www.w3.org/2000/svg">
<path d="M20.8401 5.53504C20.3294 5.02405 19.7229 4.61869 19.0555 4.34213C18.388 4.06556 17.6726 3.92322 16.9501 3.92322C16.2276 3.92322 15.5122 4.06556 14.8448 4.34213C14.1773 4.61869 13.5709 5.02405 13.0601 5.53504L12.0001 6.59504L10.9401 5.53504C9.90843 4.50335 8.50915 3.92375 7.05012 3.92375C5.59109 3.92375 4.19181 4.50335 3.16012 5.53504C2.12843 6.56674 1.54883 7.96601 1.54883 9.42504C1.54883 10.8841 2.12843 12.2834 3.16012 13.315L4.22012 14.375L12.0001 22.155L19.7801 14.375L20.8401 13.315C21.3511 12.8043 21.7565 12.1979 22.033 11.5304C22.3096 10.8629 22.4519 10.1475 22.4519 9.42504C22.4519 8.70256 22.3096 7.98715 22.033 7.31969C21.7565 6.65223 21.3511 6.0458 20.8401 5.53504Z" fill="#EF3328"/>
</svg>
