<svg width="38" height="38" viewBox="0 0 38 38" fill="none" xmlns="http://www.w3.org/2000/svg">
    <rect width="38" height="38" rx="7" fill="white" fill-opacity="0.15" />
    <g clip-path="url(#clip0_190_1566)">
        <path
            d="M18.9998 29.0001C24.5225 29.0001 28.9996 24.523 28.9996 19.0003C28.9996 13.4775 24.5225 9.00046 18.9998 9.00046C13.4771 9.00046 9 13.4775 9 19.0003C9 24.523 13.4771 29.0001 18.9998 29.0001Z"
            fill="#D2111E" />
        <path
            d="M28.9937 19.3366C28.9977 19.2246 29 19.1126 29 18.9998C29 18.887 28.9973 18.775 28.9937 18.663H24.2247C24.2024 17.252 24.0398 15.8892 23.7504 14.6416C25.0714 14.4826 26.3366 14.2582 27.5131 13.9692C27.551 13.9598 27.5859 13.9441 27.6168 13.9237C27.4993 13.7248 27.3752 13.5306 27.2448 13.3406C26.0985 13.6167 24.8677 13.8321 23.5828 13.9837C23.362 13.1875 23.0867 12.447 22.7608 11.7808C22.1476 10.5269 21.3973 9.62462 20.5694 9.12297C20.0579 9.04229 19.534 9 18.9998 9C18.4656 9 17.9417 9.04229 17.4302 9.12297C16.6024 9.62462 15.852 10.5273 15.2388 11.7808C14.9129 12.447 14.6376 13.1875 14.4168 13.9837C13.1315 13.8325 11.9011 13.6171 10.7548 13.3406C10.6236 13.5313 10.4991 13.7271 10.3808 13.9269C10.4094 13.9445 10.4415 13.9578 10.476 13.9664C11.6555 14.2566 12.9247 14.4822 14.2496 14.6416C13.9602 15.8892 13.7976 17.2524 13.7753 18.663H9.00627C9.00274 18.775 9 18.887 9 18.9998C9 19.1126 9.00235 19.2246 9.00627 19.3366H13.7753C13.8016 20.997 14.022 22.5905 14.4152 24.0089C13.1789 24.1518 11.9892 24.352 10.8766 24.6081C10.8324 24.6183 10.792 24.6371 10.7572 24.6617C10.8911 24.8564 11.0317 25.0463 11.1789 25.2307C12.2606 24.9883 13.4142 24.7988 14.6134 24.6641C14.7947 25.2166 15.0038 25.7371 15.2395 26.2188C15.8528 27.4727 16.6031 28.375 17.431 28.8766C17.9425 28.9573 18.4664 28.9996 19.0006 28.9996C19.5347 28.9996 20.0587 28.9573 20.5702 28.8766C21.398 28.375 22.1484 27.4723 22.7616 26.2188C22.9974 25.7371 23.2065 25.2162 23.3878 24.6641C24.5865 24.7984 25.7402 24.9883 26.8222 25.2307C26.9695 25.0463 27.1101 24.8564 27.244 24.6617C27.2092 24.6367 27.1688 24.6183 27.1246 24.6081C26.012 24.3524 24.8223 24.1518 23.586 24.0089C23.9791 22.5909 24.1992 20.997 24.2259 19.3366H28.9949H28.9937ZM18.6634 28.6362C17.6158 28.4682 16.6251 27.5201 15.8442 25.9231C15.6417 25.5092 15.46 25.0639 15.2995 24.5932C16.3952 24.491 17.523 24.4346 18.6638 24.4252V28.6362H18.6634ZM18.6634 23.7516C17.4525 23.7614 16.2554 23.8241 15.0943 23.9369C14.6983 22.5513 14.4759 20.9802 14.4489 19.3366H18.6634V23.7516ZM18.6634 18.663H14.4489C14.4716 17.2728 14.6345 15.9343 14.9235 14.7164C16.1363 14.8397 17.3907 14.9079 18.6634 14.918V18.663ZM18.6634 14.2445C17.4494 14.2347 16.2534 14.1716 15.0958 14.0573C15.3002 13.3422 15.5505 12.6765 15.8442 12.0765C16.6251 10.4799 17.6155 9.53181 18.6634 9.36381V14.2449V14.2445ZM19.3366 9.36342C20.3842 9.53142 21.3749 10.4795 22.1558 12.0765C22.4495 12.6768 22.6998 13.3422 22.9042 14.0573C21.7466 14.1716 20.5502 14.2347 19.3366 14.2445V9.36381V9.36342ZM22.1558 25.9227C21.3749 27.5197 20.3842 28.4678 19.3366 28.6358V24.4248C20.4774 24.4342 21.6052 24.4906 22.7009 24.5928C22.5404 25.0635 22.3587 25.5088 22.1562 25.9227H22.1558ZM22.9057 23.9365C21.7446 23.8237 20.5475 23.761 19.3366 23.7512V19.3362H23.5511C23.5245 20.9798 23.3017 22.5509 22.9057 23.9365ZM19.3366 18.663V14.918C20.6093 14.9079 21.8637 14.8397 23.0765 14.7164C23.3655 15.9343 23.5284 17.2728 23.5511 18.663H19.3366Z"
            fill="white" />
        <path
            d="M18.9998 9C18.5788 9 18.1637 9.02624 17.7564 9.07676C22.6923 9.68924 26.5128 13.8983 26.5128 18.9998C26.5128 24.1013 22.6923 28.3104 17.7564 28.9229C18.1637 28.9734 18.5788 28.9996 19.0002 28.9996C24.5231 28.9996 29.0004 24.5223 29.0004 18.9998C29.0004 13.4773 24.5227 9 18.9998 9Z"
            fill="#9E0D16" />
        <path
            d="M27.1234 24.6081C26.4577 24.455 25.7641 24.3222 25.0502 24.2094C24.921 24.4209 24.7835 24.6269 24.6394 24.8278C25.3917 24.9398 26.122 25.0741 26.8215 25.2307C26.8563 25.1869 26.8912 25.1426 26.9252 25.098C26.9296 25.0925 26.9335 25.087 26.9378 25.0815C27.0431 24.9445 27.1449 24.8043 27.2432 24.6617C27.2084 24.6371 27.168 24.6183 27.1234 24.6081Z"
            fill="#CCC7C7" />
        <path
            d="M28.9938 18.6634H26.5067C26.5102 18.7754 26.5129 18.8874 26.5129 19.0002C26.5129 19.113 26.5102 19.225 26.5067 19.337H28.9938C28.9953 19.2904 28.9965 19.2434 28.9977 19.1968C28.9989 19.1314 29 19.066 29 19.0002C29 18.9344 28.9989 18.869 28.9977 18.8036C28.9965 18.7566 28.9953 18.71 28.9938 18.6634Z"
            fill="#CCC7C7" />
        <path
            d="M18.7614 9.00312C18.7187 9.0043 18.6764 9.00547 18.6342 9.00704C18.6134 9.00782 18.5926 9.00861 18.5719 9.00939C18.5284 9.01135 18.4846 9.0133 18.4411 9.01565C18.4242 9.01644 18.407 9.01722 18.3902 9.0184C18.3303 9.02192 18.2707 9.02623 18.2112 9.03093C18.2022 9.03171 18.1932 9.03249 18.1838 9.03328C18.1325 9.03758 18.0812 9.04189 18.0303 9.04698C18.0134 9.04855 17.9966 9.05051 17.9794 9.05207C17.9336 9.05677 17.8881 9.06147 17.8427 9.06696C17.8278 9.06852 17.8129 9.07048 17.7985 9.07205C17.7851 9.07361 17.7718 9.07557 17.7581 9.07714C18.2989 9.14449 18.826 9.25454 19.3367 9.40452V9.36341C19.6578 9.41471 19.9739 9.54002 20.2797 9.73426C20.9537 10.0084 21.5908 10.3538 22.1818 10.7611C21.6966 10.0276 21.1522 9.47541 20.5695 9.12217C20.5186 9.11434 20.4677 9.1069 20.4168 9.09946C20.3948 9.09633 20.3729 9.09319 20.3506 9.09006C20.3028 9.08379 20.2554 9.07753 20.2076 9.07165C20.181 9.06852 20.154 9.06539 20.127 9.06265C20.0819 9.05756 20.0365 9.05247 19.9911 9.04777C19.9245 9.04111 19.8583 9.03523 19.7914 9.03014C19.7589 9.0274 19.726 9.02544 19.6935 9.02349C19.648 9.02035 19.6022 9.01722 19.5568 9.01487C19.5255 9.0133 19.4941 9.01174 19.4632 9.01017C19.4127 9.00782 19.3618 9.00586 19.3112 9.0043C19.285 9.00351 19.2588 9.00273 19.2325 9.00195C19.1554 8.99999 19.0778 8.99921 19.0003 8.99921C18.9396 8.99921 18.8789 8.99999 18.8182 9.00116C18.7994 9.00116 18.7806 9.00195 18.7618 9.00234L18.7614 9.00312Z"
            fill="#CCC7C7" />
        <path
            d="M25.3956 14.4038C26.1264 14.2805 26.8348 14.136 27.5131 13.9695C27.5511 13.9601 27.5859 13.9445 27.6169 13.9241C27.5291 13.7757 27.4379 13.6296 27.3427 13.4863C27.3419 13.4855 27.3416 13.4843 27.3408 13.4836C27.3091 13.4358 27.2773 13.3884 27.2448 13.3414C26.5407 13.511 25.8045 13.6574 25.0436 13.7804C25.1681 13.9836 25.2852 14.192 25.3956 14.4042V14.4038Z"
            fill="#CCC7C7" />
        <path
            d="M19.3108 28.9949C19.3617 28.9933 19.4122 28.9914 19.4627 28.989C19.494 28.9875 19.5254 28.9863 19.5563 28.9843C19.6021 28.982 19.6475 28.9788 19.693 28.9757C19.7255 28.9734 19.7584 28.9714 19.7909 28.9691C19.8575 28.964 19.924 28.9577 19.9906 28.9514C20.036 28.9471 20.0815 28.9416 20.1265 28.9365C20.1535 28.9334 20.1801 28.9307 20.2072 28.9275C20.2549 28.9217 20.3027 28.9158 20.3501 28.9091C20.3724 28.906 20.3944 28.9029 20.4167 28.8997C20.4676 28.8927 20.5185 28.8852 20.569 28.877C21.1517 28.5238 21.6961 27.9716 22.1813 27.2381C21.5899 27.6458 20.9528 27.9908 20.2792 28.2649C19.973 28.4592 19.6573 28.5845 19.3362 28.6358V28.5951C18.8259 28.7451 18.2984 28.8555 17.7576 28.9225C17.7709 28.924 17.7843 28.926 17.798 28.9275C17.8128 28.9295 17.8277 28.9311 17.8422 28.9326C17.8876 28.9377 17.9331 28.9428 17.9789 28.9475C17.9961 28.9491 18.013 28.951 18.0302 28.9526C18.0811 28.9577 18.1324 28.962 18.1837 28.9663C18.1927 28.9671 18.2017 28.9679 18.2111 28.9687C18.2706 28.9734 18.3302 28.9773 18.3901 28.9812C18.4069 28.9824 18.4242 28.9831 18.441 28.9839C18.4845 28.9863 18.5279 28.9886 18.5718 28.9906C18.5925 28.9914 18.6133 28.9922 18.6341 28.9929C18.6764 28.9945 18.7186 28.9957 18.7613 28.9969C18.7801 28.9972 18.7989 28.9976 18.8177 28.998C18.8784 28.9992 18.9391 29 18.9998 29C19.0774 29 19.1549 28.9988 19.232 28.9969C19.2583 28.9961 19.2845 28.9953 19.3108 28.9945V28.9949Z"
            fill="#CCC7C7" />
    </g>
    <defs>
        <clipPath id="clip0_190_1566">
            <rect width="20" height="20" fill="white" transform="translate(9 9)" />
        </clipPath>
    </defs>
</svg>