<svg width="32" height="32" viewBox="0 0 32 32" fill="none" xmlns="http://www.w3.org/2000/svg">
<g clip-path="url(#clip0_21_265)">
<path d="M26.0066 28.0961L22.6036 24.7572C22.3843 24.5413 22.381 24.1889 22.5968 23.9696C22.8127 23.7504 23.1651 23.747 23.3843 23.9629L25.9847 26.5143L31.042 21.2766C31.2562 21.0556 31.6086 21.0489 31.8295 21.2631C32.0504 21.4772 32.0572 21.8297 31.843 22.0506L26.0066 28.0961Z" fill="#404041"/>
<path d="M26.0066 28.0961L22.6036 24.7572C22.3843 24.5413 22.381 24.1889 22.5968 23.9696C22.8127 23.7504 23.1651 23.747 23.3843 23.9629L25.9847 26.5143L31.042 21.2766C31.2562 21.0556 31.6086 21.0489 31.8295 21.2631C32.0504 21.4772 32.0572 21.8297 31.843 22.0506L26.0066 28.0961Z" fill="url(#paint0_linear_21_265)"/>
<path d="M24.8111 27.5885L22.3507 30.086C22.1349 30.3052 22.1382 30.6576 22.3575 30.8735C22.5767 31.0893 22.9291 31.0859 23.145 30.8667L25.6054 28.3693L24.8111 27.5868V27.5885Z" fill="#EF4D58"/>
<path d="M28.9091 29.2799L27.1418 27.5986L26.3745 28.4064L28.1418 30.0877C28.3644 30.3001 28.7168 30.29 28.9293 30.0674C29.1418 29.8448 29.1317 29.4924 28.9091 29.2799Z" fill="#EF4D58"/>
<path d="M27.3491 26.7049L26.0051 28.0962L22.6021 24.7572C22.3829 24.5414 22.3795 24.1889 22.5954 23.9697C22.705 23.8584 22.8483 23.8027 22.9933 23.8027C23.1384 23.8027 23.2749 23.8567 23.3829 23.9629L25.9832 26.5161C25.9832 26.5161 26.7893 27.285 27.3491 26.7066V26.7049Z" fill="#EF4D58"/>
<path d="M27.3491 26.7049L26.0051 28.0962L22.6021 24.7572C22.3829 24.5414 22.3795 24.1889 22.5954 23.9697C22.705 23.8584 22.8483 23.8027 22.9933 23.8027C23.1384 23.8027 23.2749 23.8567 23.3829 23.9629L25.9832 26.5161C25.9832 26.5161 26.7893 27.285 27.3491 26.7066V26.7049Z" fill="url(#paint1_linear_21_265)"/>
<path d="M1.88375 25.3641C2.18561 25.3641 2.43013 25.44 2.619 25.5935C2.80787 25.7469 2.93266 25.9628 2.99505 26.2427H2.89556L2.94277 26.123C2.99505 25.9982 3.08611 25.8785 3.21596 25.7638C3.34412 25.6491 3.49252 25.553 3.66115 25.4771C3.82979 25.4012 4.00517 25.3641 4.18729 25.3641C4.48072 25.3641 4.71006 25.4265 4.87869 25.553C5.04733 25.6795 5.16874 25.8481 5.24126 26.0589C5.31377 26.2697 5.35087 26.5058 5.35087 26.7672V28.5834C5.35087 28.6592 5.32557 28.7233 5.27498 28.7756C5.22439 28.8279 5.16031 28.8549 5.08611 28.8549C5.00685 28.8549 4.94109 28.8279 4.89218 28.7756C4.84328 28.7233 4.81967 28.6576 4.81967 28.5834V26.7807C4.81967 26.607 4.79438 26.4518 4.74379 26.3119C4.6932 26.1719 4.61056 26.0606 4.49758 25.9796C4.3846 25.897 4.23114 25.8565 4.03552 25.8565C3.8534 25.8565 3.68814 25.897 3.53637 25.9796C3.3846 26.0623 3.26487 26.1719 3.17718 26.3119C3.0878 26.4518 3.04395 26.6087 3.04395 26.7807V28.5834C3.04395 28.6592 3.01866 28.7233 2.97144 28.7756C2.92422 28.8279 2.85846 28.8549 2.7792 28.8549C2.70331 28.8549 2.64092 28.8279 2.58864 28.7756C2.53805 28.7216 2.51276 28.6576 2.51276 28.5834V26.7604C2.51276 26.5918 2.48915 26.44 2.44193 26.3051C2.39471 26.1702 2.31714 26.0606 2.20584 25.9796C2.09454 25.897 1.94109 25.8565 1.74716 25.8565C1.57009 25.8565 1.4082 25.897 1.26149 25.9796C1.11478 26.0623 0.998423 26.1702 0.909047 26.3051C0.819671 26.44 0.775826 26.5918 0.775826 26.7604V28.5834C0.775826 28.6592 0.750531 28.7233 0.699941 28.7756C0.649351 28.8296 0.58527 28.8549 0.509384 28.8549C0.433499 28.8549 0.371104 28.8279 0.320514 28.7756C0.269924 28.7233 0.244629 28.6576 0.244629 28.5834V25.6812C0.244629 25.6053 0.269924 25.5429 0.320514 25.4906C0.371104 25.44 0.435185 25.4147 0.509384 25.4147C0.590329 25.4147 0.65441 25.44 0.703314 25.4906C0.752217 25.5412 0.775826 25.6053 0.775826 25.6812V26.1871L0.629115 26.3473C0.645978 26.2326 0.691509 26.1162 0.765708 26.0016C0.839907 25.8869 0.932656 25.779 1.04901 25.6829C1.16537 25.585 1.29353 25.5075 1.43519 25.4501C1.57684 25.3928 1.72861 25.3641 1.88712 25.3641H1.88375Z" fill="#EF4D58"/>
<path d="M9.60206 27.1281C9.60206 27.4738 9.52618 27.7824 9.37272 28.0522C9.21926 28.322 9.01353 28.5362 8.75383 28.6913C8.49414 28.8465 8.2024 28.9241 7.87862 28.9241C7.55485 28.9241 7.26142 28.8465 7.00004 28.6913C6.73866 28.5362 6.53124 28.3237 6.37778 28.0522C6.22432 27.7824 6.14844 27.4738 6.14844 27.1281C6.14844 26.7824 6.22432 26.4738 6.37778 26.204C6.53124 25.9342 6.73866 25.72 7.00004 25.5649C7.26142 25.4097 7.55485 25.3322 7.87862 25.3322C8.2024 25.3322 8.49414 25.4097 8.75383 25.5649C9.01353 25.72 9.21926 25.9325 9.37272 26.204C9.52618 26.4738 9.60206 26.7824 9.60206 27.1281ZM9.06918 27.1281C9.06918 26.8701 9.0169 26.6441 8.91235 26.4485C8.8078 26.2529 8.66614 26.1011 8.48571 25.9898C8.30527 25.8785 8.10291 25.8229 7.87694 25.8229C7.65097 25.8229 7.44861 25.8785 7.26817 25.9898C7.08773 26.1011 6.94608 26.2529 6.83984 26.4485C6.7336 26.6441 6.67964 26.8701 6.67964 27.1281C6.67964 27.3861 6.7336 27.6053 6.83984 27.801C6.94608 27.9966 7.08942 28.15 7.26817 28.263C7.44861 28.376 7.65097 28.4333 7.87694 28.4333C8.10291 28.4333 8.30695 28.376 8.48571 28.263C8.66614 28.15 8.8078 27.9966 8.91235 27.801C9.0169 27.6053 9.06918 27.3811 9.06918 27.1281Z" fill="#EF4D58"/>
<path d="M12.1113 25.3322C12.4132 25.3322 12.6509 25.3945 12.823 25.5193C12.9966 25.6441 13.1197 25.8094 13.1923 26.0185C13.2648 26.2276 13.3019 26.4603 13.3019 26.7166V28.5868C13.3019 28.6627 13.2766 28.7268 13.226 28.779C13.1754 28.833 13.1113 28.8583 13.0354 28.8583C12.9595 28.8583 12.8972 28.8313 12.8449 28.779C12.7943 28.7251 12.769 28.661 12.769 28.5868V26.7301C12.769 26.5615 12.7437 26.4097 12.6931 26.2748C12.6425 26.1399 12.5582 26.0303 12.4402 25.9494C12.3221 25.8667 12.1619 25.8262 11.9579 25.8262C11.7724 25.8262 11.6004 25.8667 11.4452 25.9494C11.2901 26.032 11.1653 26.1399 11.0725 26.2748C10.9798 26.4097 10.9326 26.5615 10.9326 26.7301V28.5868C10.9326 28.6627 10.9073 28.7268 10.8567 28.779C10.8061 28.833 10.742 28.8583 10.6661 28.8583C10.5902 28.8583 10.5278 28.8313 10.4773 28.779C10.4267 28.7251 10.4014 28.661 10.4014 28.5868V25.6846C10.4014 25.6087 10.4267 25.5463 10.4773 25.494C10.5278 25.4418 10.5919 25.4182 10.6661 25.4182C10.7454 25.4182 10.8111 25.4435 10.8601 25.494C10.909 25.5446 10.9326 25.6087 10.9326 25.6846V26.1568L10.7993 26.3035C10.8213 26.1888 10.8719 26.0725 10.9528 25.9544C11.0321 25.8364 11.1332 25.7318 11.253 25.6391C11.3727 25.5463 11.5059 25.4721 11.6526 25.4165C11.7993 25.3608 11.9528 25.3338 12.1113 25.3338V25.3322Z" fill="#EF4D58"/>
<path d="M15.8768 28.9257C15.5227 28.9257 15.2107 28.8499 14.9459 28.6998C14.6795 28.5497 14.4721 28.3423 14.3237 28.0775C14.1753 27.8144 14.1011 27.5092 14.1011 27.1618C14.1011 26.7757 14.177 26.4468 14.3304 26.1736C14.4839 25.9005 14.6829 25.693 14.9291 25.548C15.1753 25.4047 15.4367 25.3322 15.7115 25.3322C15.9156 25.3322 16.1129 25.3693 16.3034 25.4451C16.494 25.521 16.6626 25.6306 16.8093 25.774C16.956 25.9173 17.0724 26.091 17.1618 26.2934C17.2512 26.4957 17.2967 26.72 17.3017 26.9696C17.3017 27.0404 17.2748 27.1011 17.2225 27.15C17.1685 27.1989 17.1078 27.2225 17.037 27.2225H14.408L14.2883 26.7639H16.8498L16.7436 26.8566V26.7099C16.725 26.5278 16.6643 26.3709 16.5598 26.2411C16.4552 26.1096 16.3287 26.0101 16.1803 25.9375C16.0319 25.8667 15.8751 25.8313 15.7115 25.8313C15.5783 25.8313 15.4468 25.8549 15.3152 25.9004C15.1837 25.946 15.0673 26.0219 14.9628 26.1264C14.8582 26.231 14.7739 26.3642 14.7098 26.5295C14.6458 26.693 14.6137 26.8903 14.6137 27.1214C14.6137 27.3794 14.666 27.6053 14.7706 27.7993C14.8751 27.9949 15.0201 28.1483 15.2056 28.2613C15.3911 28.3743 15.6087 28.4316 15.8582 28.4316C16.0134 28.4316 16.1483 28.4114 16.2646 28.3709C16.3793 28.3305 16.4788 28.2816 16.5631 28.2209C16.6474 28.1601 16.7183 28.0994 16.7756 28.037C16.8329 27.9966 16.8886 27.9763 16.9426 27.9763C17.0083 27.9763 17.064 27.9983 17.1061 28.0421C17.1483 28.0859 17.1685 28.1399 17.1685 28.2023C17.1685 28.2782 17.1331 28.344 17.0623 28.4013C16.9375 28.5396 16.7689 28.6593 16.5564 28.7639C16.3439 28.8684 16.1179 28.9207 15.8768 28.9207V28.9257Z" fill="#EF4D58"/>
<path d="M20.6424 25.3642C20.7183 25.3642 20.7807 25.3895 20.8329 25.4401C20.8852 25.4907 20.9088 25.5548 20.9088 25.629V28.5312C20.9088 28.9038 20.8363 29.2124 20.6896 29.4586C20.5429 29.7049 20.3473 29.8887 20.1011 30.0084C19.8549 30.1281 19.5766 30.1888 19.2663 30.1888C19.0926 30.1888 18.9274 30.172 18.7672 30.1349C18.607 30.0995 18.4771 30.0522 18.3743 29.9949C18.2899 29.9544 18.2309 29.9055 18.1972 29.8448C18.1635 29.7841 18.1584 29.7217 18.1803 29.6543C18.2107 29.575 18.2562 29.5194 18.3169 29.4873C18.3776 29.457 18.44 29.457 18.5075 29.4873C18.5783 29.5177 18.6812 29.5615 18.8161 29.6172C18.951 29.6728 19.1027 29.6998 19.2714 29.6998C19.5024 29.6998 19.6997 29.656 19.8633 29.5666C20.0269 29.4772 20.1533 29.3474 20.2427 29.177C20.3321 29.0067 20.3759 28.7942 20.3759 28.5413V28.0691L20.4552 28.2361C20.3844 28.3743 20.2882 28.4941 20.1685 28.5952C20.0488 28.6964 19.9105 28.7774 19.7554 28.8347C19.6002 28.892 19.4299 28.9207 19.2427 28.9207C18.9898 28.9207 18.7756 28.8667 18.6002 28.7571C18.4248 28.6475 18.2916 28.4974 18.2006 28.3052C18.1095 28.1129 18.064 27.8887 18.064 27.6357V25.6256C18.064 25.5497 18.0893 25.4873 18.1398 25.4367C18.1904 25.3861 18.2545 25.3608 18.3287 25.3608C18.408 25.3608 18.4737 25.3861 18.5226 25.4367C18.5716 25.4873 18.5952 25.5514 18.5952 25.6256V27.516C18.5952 27.8178 18.6609 28.0455 18.7941 28.1973C18.9274 28.349 19.1331 28.4266 19.413 28.4266C19.5901 28.4266 19.752 28.3861 19.8953 28.3069C20.0387 28.2276 20.155 28.118 20.241 27.978C20.327 27.8381 20.3709 27.6846 20.3709 27.516V25.6256C20.3709 25.5497 20.3945 25.4873 20.4434 25.4367C20.4923 25.3861 20.5564 25.3608 20.6356 25.3608L20.6424 25.3642Z" fill="#EF4D58"/>
<path d="M1.88375 25.3641C2.18561 25.3641 2.43013 25.44 2.619 25.5935C2.80787 25.7469 2.93266 25.9628 2.99505 26.2427H2.89556L2.94277 26.123C2.99505 25.9982 3.08611 25.8785 3.21596 25.7638C3.34412 25.6491 3.49252 25.553 3.66115 25.4771C3.82979 25.4012 4.00517 25.3641 4.18729 25.3641C4.48072 25.3641 4.71006 25.4265 4.87869 25.553C5.04733 25.6795 5.16874 25.8481 5.24126 26.0589C5.31377 26.2697 5.35087 26.5058 5.35087 26.7672V28.5834C5.35087 28.6592 5.32557 28.7233 5.27498 28.7756C5.22439 28.8279 5.16031 28.8549 5.08611 28.8549C5.00685 28.8549 4.94109 28.8279 4.89218 28.7756C4.84328 28.7233 4.81967 28.6576 4.81967 28.5834V26.7807C4.81967 26.607 4.79438 26.4518 4.74379 26.3119C4.6932 26.1719 4.61056 26.0606 4.49758 25.9796C4.3846 25.897 4.23114 25.8565 4.03552 25.8565C3.8534 25.8565 3.68814 25.897 3.53637 25.9796C3.3846 26.0623 3.26487 26.1719 3.17718 26.3119C3.0878 26.4518 3.04395 26.6087 3.04395 26.7807V28.5834C3.04395 28.6592 3.01866 28.7233 2.97144 28.7756C2.92422 28.8279 2.85846 28.8549 2.7792 28.8549C2.70331 28.8549 2.64092 28.8279 2.58864 28.7756C2.53805 28.7216 2.51276 28.6576 2.51276 28.5834V26.7604C2.51276 26.5918 2.48915 26.44 2.44193 26.3051C2.39471 26.1702 2.31714 26.0606 2.20584 25.9796C2.09454 25.897 1.94109 25.8565 1.74716 25.8565C1.57009 25.8565 1.4082 25.897 1.26149 25.9796C1.11478 26.0623 0.998423 26.1702 0.909047 26.3051C0.819671 26.44 0.775826 26.5918 0.775826 26.7604V28.5834C0.775826 28.6592 0.750531 28.7233 0.699941 28.7756C0.649351 28.8296 0.58527 28.8549 0.509384 28.8549C0.433499 28.8549 0.371104 28.8279 0.320514 28.7756C0.269924 28.7233 0.244629 28.6576 0.244629 28.5834V25.6812C0.244629 25.6053 0.269924 25.5429 0.320514 25.4906C0.371104 25.44 0.435185 25.4147 0.509384 25.4147C0.590329 25.4147 0.65441 25.44 0.703314 25.4906C0.752217 25.5412 0.775826 25.6053 0.775826 25.6812V26.1871L0.629115 26.3473C0.645978 26.2326 0.691509 26.1162 0.765708 26.0016C0.839907 25.8869 0.932656 25.779 1.04901 25.6829C1.16537 25.585 1.29353 25.5075 1.43519 25.4501C1.57684 25.3928 1.72861 25.3641 1.88712 25.3641H1.88375Z" fill="url(#paint2_linear_21_265)"/>
<path d="M9.60206 27.1281C9.60206 27.4738 9.52618 27.7824 9.37272 28.0522C9.21926 28.322 9.01353 28.5362 8.75383 28.6913C8.49414 28.8465 8.2024 28.9241 7.87862 28.9241C7.55485 28.9241 7.26142 28.8465 7.00004 28.6913C6.73866 28.5362 6.53124 28.3237 6.37778 28.0522C6.22432 27.7824 6.14844 27.4738 6.14844 27.1281C6.14844 26.7824 6.22432 26.4738 6.37778 26.204C6.53124 25.9342 6.73866 25.72 7.00004 25.5649C7.26142 25.4097 7.55485 25.3322 7.87862 25.3322C8.2024 25.3322 8.49414 25.4097 8.75383 25.5649C9.01353 25.72 9.21926 25.9325 9.37272 26.204C9.52618 26.4738 9.60206 26.7824 9.60206 27.1281ZM9.06918 27.1281C9.06918 26.8701 9.0169 26.6441 8.91235 26.4485C8.8078 26.2529 8.66614 26.1011 8.48571 25.9898C8.30527 25.8785 8.10291 25.8229 7.87694 25.8229C7.65097 25.8229 7.44861 25.8785 7.26817 25.9898C7.08773 26.1011 6.94608 26.2529 6.83984 26.4485C6.7336 26.6441 6.67964 26.8701 6.67964 27.1281C6.67964 27.3861 6.7336 27.6053 6.83984 27.801C6.94608 27.9966 7.08942 28.15 7.26817 28.263C7.44861 28.376 7.65097 28.4333 7.87694 28.4333C8.10291 28.4333 8.30695 28.376 8.48571 28.263C8.66614 28.15 8.8078 27.9966 8.91235 27.801C9.0169 27.6053 9.06918 27.3811 9.06918 27.1281Z" fill="url(#paint3_linear_21_265)"/>
<path d="M12.1113 25.3322C12.4132 25.3322 12.6509 25.3945 12.823 25.5193C12.9966 25.6441 13.1197 25.8094 13.1923 26.0185C13.2648 26.2276 13.3019 26.4603 13.3019 26.7166V28.5868C13.3019 28.6627 13.2766 28.7268 13.226 28.779C13.1754 28.833 13.1113 28.8583 13.0354 28.8583C12.9595 28.8583 12.8972 28.8313 12.8449 28.779C12.7943 28.7251 12.769 28.661 12.769 28.5868V26.7301C12.769 26.5615 12.7437 26.4097 12.6931 26.2748C12.6425 26.1399 12.5582 26.0303 12.4402 25.9494C12.3221 25.8667 12.1619 25.8262 11.9579 25.8262C11.7724 25.8262 11.6004 25.8667 11.4452 25.9494C11.2901 26.032 11.1653 26.1399 11.0725 26.2748C10.9798 26.4097 10.9326 26.5615 10.9326 26.7301V28.5868C10.9326 28.6627 10.9073 28.7268 10.8567 28.779C10.8061 28.833 10.742 28.8583 10.6661 28.8583C10.5902 28.8583 10.5278 28.8313 10.4773 28.779C10.4267 28.7251 10.4014 28.661 10.4014 28.5868V25.6846C10.4014 25.6087 10.4267 25.5463 10.4773 25.494C10.5278 25.4418 10.5919 25.4182 10.6661 25.4182C10.7454 25.4182 10.8111 25.4435 10.8601 25.494C10.909 25.5446 10.9326 25.6087 10.9326 25.6846V26.1568L10.7993 26.3035C10.8213 26.1888 10.8719 26.0725 10.9528 25.9544C11.0321 25.8364 11.1332 25.7318 11.253 25.6391C11.3727 25.5463 11.5059 25.4721 11.6526 25.4165C11.7993 25.3608 11.9528 25.3338 12.1113 25.3338V25.3322Z" fill="url(#paint4_linear_21_265)"/>
<path d="M15.8768 28.9257C15.5227 28.9257 15.2107 28.8499 14.9459 28.6998C14.6795 28.5497 14.4721 28.3423 14.3237 28.0775C14.1753 27.8144 14.1011 27.5092 14.1011 27.1618C14.1011 26.7757 14.177 26.4468 14.3304 26.1736C14.4839 25.9005 14.6829 25.693 14.9291 25.548C15.1753 25.4047 15.4367 25.3322 15.7115 25.3322C15.9156 25.3322 16.1129 25.3693 16.3034 25.4451C16.494 25.521 16.6626 25.6306 16.8093 25.774C16.956 25.9173 17.0724 26.091 17.1618 26.2934C17.2512 26.4957 17.2967 26.72 17.3017 26.9696C17.3017 27.0404 17.2748 27.1011 17.2225 27.15C17.1685 27.1989 17.1078 27.2225 17.037 27.2225H14.408L14.2883 26.7639H16.8498L16.7436 26.8566V26.7099C16.725 26.5278 16.6643 26.3709 16.5598 26.2411C16.4552 26.1096 16.3287 26.0101 16.1803 25.9375C16.0319 25.8667 15.8751 25.8313 15.7115 25.8313C15.5783 25.8313 15.4468 25.8549 15.3152 25.9004C15.1837 25.946 15.0673 26.0219 14.9628 26.1264C14.8582 26.231 14.7739 26.3642 14.7098 26.5295C14.6458 26.693 14.6137 26.8903 14.6137 27.1214C14.6137 27.3794 14.666 27.6053 14.7706 27.7993C14.8751 27.9949 15.0201 28.1483 15.2056 28.2613C15.3911 28.3743 15.6087 28.4316 15.8582 28.4316C16.0134 28.4316 16.1483 28.4114 16.2646 28.3709C16.3793 28.3305 16.4788 28.2816 16.5631 28.2209C16.6474 28.1601 16.7183 28.0994 16.7756 28.037C16.8329 27.9966 16.8886 27.9763 16.9426 27.9763C17.0083 27.9763 17.064 27.9983 17.1061 28.0421C17.1483 28.0859 17.1685 28.1399 17.1685 28.2023C17.1685 28.2782 17.1331 28.344 17.0623 28.4013C16.9375 28.5396 16.7689 28.6593 16.5564 28.7639C16.3439 28.8684 16.1179 28.9207 15.8768 28.9207V28.9257Z" fill="url(#paint5_linear_21_265)"/>
<path d="M20.6424 25.3642C20.7183 25.3642 20.7807 25.3895 20.8329 25.4401C20.8852 25.4907 20.9088 25.5548 20.9088 25.629V28.5312C20.9088 28.9038 20.8363 29.2124 20.6896 29.4586C20.5429 29.7049 20.3473 29.8887 20.1011 30.0084C19.8549 30.1281 19.5766 30.1888 19.2663 30.1888C19.0926 30.1888 18.9274 30.172 18.7672 30.1349C18.607 30.0995 18.4771 30.0522 18.3743 29.9949C18.2899 29.9544 18.2309 29.9055 18.1972 29.8448C18.1635 29.7841 18.1584 29.7217 18.1803 29.6543C18.2107 29.575 18.2562 29.5194 18.3169 29.4873C18.3776 29.457 18.44 29.457 18.5075 29.4873C18.5783 29.5177 18.6812 29.5615 18.8161 29.6172C18.951 29.6728 19.1027 29.6998 19.2714 29.6998C19.5024 29.6998 19.6997 29.656 19.8633 29.5666C20.0269 29.4772 20.1533 29.3474 20.2427 29.177C20.3321 29.0067 20.3759 28.7942 20.3759 28.5413V28.0691L20.4552 28.2361C20.3844 28.3743 20.2882 28.4941 20.1685 28.5952C20.0488 28.6964 19.9105 28.7774 19.7554 28.8347C19.6002 28.892 19.4299 28.9207 19.2427 28.9207C18.9898 28.9207 18.7756 28.8667 18.6002 28.7571C18.4248 28.6475 18.2916 28.4974 18.2006 28.3052C18.1095 28.1129 18.064 27.8887 18.064 27.6357V25.6256C18.064 25.5497 18.0893 25.4873 18.1398 25.4367C18.1904 25.3861 18.2545 25.3608 18.3287 25.3608C18.408 25.3608 18.4737 25.3861 18.5226 25.4367C18.5716 25.4873 18.5952 25.5514 18.5952 25.6256V27.516C18.5952 27.8178 18.6609 28.0455 18.7941 28.1973C18.9274 28.3507 19.1331 28.4266 19.413 28.4266C19.5901 28.4266 19.752 28.3861 19.8953 28.3069C20.0387 28.2276 20.155 28.118 20.241 27.978C20.327 27.8381 20.3709 27.6846 20.3709 27.516V25.6256C20.3709 25.5497 20.3945 25.4873 20.4434 25.4367C20.4923 25.3861 20.5564 25.3608 20.6356 25.3608L20.6424 25.3642Z" fill="url(#paint6_linear_21_265)"/>
<path d="M0.00520854 13.3777C0.00520854 11.7992 0.00520854 10.2225 0.00520854 8.6441C0.00689488 4.27647 3.05074 0.696373 7.3762 0.111213C9.99846 -0.244605 12.4639 0.237688 14.5432 2.02184C14.8113 2.25118 14.9378 2.11459 15.1216 1.95607C18.5516 -0.966359 25.0373 -0.799411 28.0912 3.70481C29.0592 5.13145 29.5853 6.70312 29.5921 8.42993C29.6039 11.8195 29.5988 15.209 29.5937 18.5969C29.5921 20.1905 28.3779 21.435 26.8332 21.4485C25.2598 21.4637 24.0035 20.2394 23.99 18.6239C23.9698 16.2866 23.985 13.9493 23.985 11.6121C23.985 10.634 23.985 9.65422 23.985 8.67614C23.985 7.02184 22.8973 5.81273 21.2649 5.64747C19.705 5.48895 18.4571 6.07917 17.9091 7.31526C17.7202 7.74191 17.619 8.24275 17.6157 8.70987C17.5904 11.9814 17.6039 15.2546 17.6022 18.5261C17.6022 20.1888 16.4082 21.4417 14.8197 21.4485C13.2076 21.4552 12.0002 20.204 11.9985 18.521C11.9985 15.3355 11.9411 12.15 12.0204 8.96788C12.0642 7.24106 10.9631 5.40464 8.3762 5.64073C6.72696 5.7925 5.61735 7.00666 5.61566 8.6812C5.61566 11.9679 5.62241 15.2546 5.61229 18.5412C5.60723 20.2141 4.36777 21.4653 2.76069 21.4468C1.26322 21.435 0.0237583 20.2242 0.00858122 18.725C-0.00828219 16.9426 0.00520854 15.1601 0.0035222 13.3777H0.00520854Z" fill="#EF4D58"/>
<path d="M0.00520854 13.3777C0.00520854 11.7992 0.00520854 10.2225 0.00520854 8.6441C0.00689488 4.27647 3.05074 0.696373 7.3762 0.111213C9.99846 -0.244605 12.4639 0.237688 14.5432 2.02184C14.8113 2.25118 14.9378 2.11459 15.1216 1.95607C18.5516 -0.966359 25.0373 -0.799411 28.0912 3.70481C29.0592 5.13145 29.5853 6.70312 29.5921 8.42993C29.6039 11.8195 29.5988 15.209 29.5937 18.5969C29.5921 20.1905 28.3779 21.435 26.8332 21.4485C25.2598 21.4637 24.0035 20.2394 23.99 18.6239C23.9698 16.2866 23.985 13.9493 23.985 11.6121C23.985 10.634 23.985 9.65422 23.985 8.67614C23.985 7.02184 22.8973 5.81273 21.2649 5.64747C19.705 5.48895 18.4571 6.07917 17.9091 7.31526C17.7202 7.74191 17.619 8.24275 17.6157 8.70987C17.5904 11.9814 17.6039 15.2546 17.6022 18.5261C17.6022 20.1888 16.4082 21.4417 14.8197 21.4485C13.2076 21.4552 12.0002 20.204 11.9985 18.521C11.9985 15.3355 11.9411 12.15 12.0204 8.96788C12.0642 7.24106 10.9631 5.40464 8.3762 5.64073C6.72696 5.7925 5.61735 7.00666 5.61566 8.6812C5.61566 11.9679 5.62241 15.2546 5.61229 18.5412C5.60723 20.2141 4.36777 21.4653 2.76069 21.4468C1.26322 21.435 0.0237583 20.2242 0.00858122 18.725C-0.00828219 16.9426 0.00520854 15.1601 0.0035222 13.3777H0.00520854Z" fill="url(#paint7_linear_21_265)"/>
</g>
<defs>
<linearGradient id="paint0_linear_21_265" x1="22.4366" y1="24.602" x2="31.9999" y2="24.602" gradientUnits="userSpaceOnUse">
<stop stop-color="white" stop-opacity="0.2"/>
<stop offset="1" stop-color="#404041" stop-opacity="0"/>
</linearGradient>
<linearGradient id="paint1_linear_21_265" x1="22.4368" y1="25.9494" x2="27.3491" y2="25.9494" gradientUnits="userSpaceOnUse">
<stop stop-color="#EF4D58" stop-opacity="0"/>
<stop offset="1" stop-color="#EB1C29"/>
</linearGradient>
<linearGradient id="paint2_linear_21_265" x1="2.79438" y1="25.3641" x2="2.79438" y2="28.8582" gradientUnits="userSpaceOnUse">
<stop stop-color="#EF4D58" stop-opacity="0"/>
<stop offset="1" stop-color="#EB1C29"/>
</linearGradient>
<linearGradient id="paint3_linear_21_265" x1="7.87525" y1="25.3322" x2="7.87525" y2="28.9257" gradientUnits="userSpaceOnUse">
<stop stop-color="#EF4D58" stop-opacity="0"/>
<stop offset="1" stop-color="#EB1C29"/>
</linearGradient>
<linearGradient id="paint4_linear_21_265" x1="11.8516" y1="25.3322" x2="11.8516" y2="28.8583" gradientUnits="userSpaceOnUse">
<stop stop-color="#EF4D58" stop-opacity="0"/>
<stop offset="1" stop-color="#EB1C29"/>
</linearGradient>
<linearGradient id="paint5_linear_21_265" x1="15.7014" y1="25.3322" x2="15.7014" y2="28.9257" gradientUnits="userSpaceOnUse">
<stop stop-color="#EF4D58" stop-opacity="0"/>
<stop offset="1" stop-color="#EB1C29"/>
</linearGradient>
<linearGradient id="paint6_linear_21_265" x1="19.4872" y1="25.3642" x2="19.4872" y2="30.1888" gradientUnits="userSpaceOnUse">
<stop stop-color="#EF4D58" stop-opacity="0"/>
<stop offset="1" stop-color="#EB1C29"/>
</linearGradient>
<linearGradient id="paint7_linear_21_265" x1="14.7995" y1="-8.55698e-05" x2="14.7995" y2="21.4502" gradientUnits="userSpaceOnUse">
<stop stop-color="#EF4D58" stop-opacity="0"/>
<stop offset="1" stop-color="#EB1C29"/>
</linearGradient>
<clipPath id="clip0_21_265">
<rect width="32" height="31.0354" fill="white"/>
</clipPath>
</defs>
</svg>
