<svg width="24" height="24" viewBox="0 0 24 24" fill="none" xmlns="http://www.w3.org/2000/svg">
<mask id="mask0_552_180" style="mask-type:alpha" maskUnits="userSpaceOnUse" x="0" y="0" width="24" height="24">
<rect width="24" height="24" fill="#D9D9D9"/>
</mask>
<g mask="url(#mask0_552_180)">
<path d="M4.62319 14.6162V12.4933H6.7461V14.6162H4.62319ZM2.5 12.4933V10.3704H4.62319V12.4933H2.5ZM12 5.11648V2.99329H14.1229V5.11648H12ZM3.8295 8.0328H7.53951V4.32279H3.8295V8.0328ZM2.5 9.3623V2.99329H8.86902V9.3623H2.5ZM3.8295 20.6638H7.62538V16.9538H3.8295V20.6638ZM2.5 21.9933V15.6243H8.95488V21.9933H2.5ZM16.4605 8.0328H20.1705V4.32279H16.4605V8.0328ZM15.131 9.3623V2.99329H21.5V9.3623H15.131ZM8.86902 14.6162V12.4933H6.7461V10.3704H10.9922V14.6162H8.86902ZM9.87709 9.3623V5.11648H12V7.23939H14.1229V9.3623H9.87709ZM4.91257 6.94974V5.40585H6.45645V6.94974H4.91257ZM4.98756 19.5057V17.9616H6.53172V19.5057H4.98756ZM17.5435 6.94974V5.40585H19.0874V6.94974H17.5435ZM16.482 21.9933V18.6479H13.1366V16.9752H16.482V13.6299H18.1546V16.9752H21.5V18.6479H18.1546V21.9933H16.482Z" fill="#707070"/>
</g>
</svg>
