<svg width="25" height="24" viewBox="0 0 25 24" fill="none" xmlns="http://www.w3.org/2000/svg">
<mask id="mask0_382_1029" style="mask-type:alpha" maskUnits="userSpaceOnUse" x="0" y="0" width="25" height="25">
<rect x="0.5" y="0.00683594" width="24" height="24" fill="#D9D9D9"/>
</mask>
<g mask="url(#mask0_382_1029)">
<path d="M5.12319 14.6229V12.5H7.2461V14.6229H5.12319ZM3 12.5V10.3771H5.12319V12.5H3ZM12.5 5.12319V3H14.6229V5.12319H12.5ZM4.3295 8.03951H8.03951V4.3295H4.3295V8.03951ZM3 9.36902V3H9.36902V9.36902H3ZM4.3295 20.6705H8.12538V16.9605H4.3295V20.6705ZM3 22V15.631H9.45488V22H3ZM16.9605 8.03951H20.6705V4.3295H16.9605V8.03951ZM15.631 9.36902V3H22V9.36902H15.631ZM9.36902 14.6229V12.5H7.2461V10.3771H11.4922V14.6229H9.36902ZM10.3771 9.36902V5.12319H12.5V7.2461H14.6229V9.36902H10.3771ZM5.41257 6.95645V5.41257H6.95645V6.95645H5.41257ZM5.48756 19.5124V17.9683H7.03172V19.5124H5.48756ZM18.0435 6.95645V5.41257H19.5874V6.95645H18.0435ZM16.982 22V18.6546H13.6366V16.982H16.982V13.6366H18.6546V16.982H22V18.6546H18.6546V22H16.982Z" fill="#707070"/>
</g>
</svg>
