<svg width="28" height="28" viewBox="0 0 28 28" fill="none" xmlns="http://www.w3.org/2000/svg">
<path d="M14.4271 17.8596C16.3501 17.8596 17.9089 16.3007 17.9089 14.3778C17.9089 12.4549 16.3501 10.896 14.4271 10.896C12.5042 10.896 10.9454 12.4549 10.9454 14.3778C10.9454 16.3007 12.5042 17.8596 14.4271 17.8596Z" stroke="#707070" stroke-width="1.5" stroke-linecap="round" stroke-linejoin="round"/>
<path d="M23.0155 17.8596C22.861 18.2096 22.8149 18.5979 22.8832 18.9744C22.9515 19.3509 23.1309 19.6983 23.3985 19.9719L23.4681 20.0415C23.6839 20.2571 23.8552 20.5131 23.972 20.7949C24.0888 21.0766 24.1489 21.3787 24.1489 21.6837C24.1489 21.9888 24.0888 22.2908 23.972 22.5726C23.8552 22.8544 23.6839 23.1104 23.4681 23.326C23.2526 23.5418 22.9966 23.713 22.7148 23.8298C22.433 23.9466 22.1309 24.0067 21.8259 24.0067C21.5209 24.0067 21.2188 23.9466 20.937 23.8298C20.6552 23.713 20.3992 23.5418 20.1837 23.326L20.114 23.2563C19.8405 22.9888 19.4931 22.8093 19.1166 22.741C18.7401 22.6728 18.3518 22.7188 18.0018 22.8733C17.6585 23.0205 17.3657 23.2647 17.1595 23.5761C16.9533 23.8875 16.8426 24.2524 16.8412 24.6258V24.8231C16.8412 25.4387 16.5966 26.0291 16.1613 26.4644C15.726 26.8998 15.1356 27.1443 14.52 27.1443C13.9044 27.1443 13.314 26.8998 12.8787 26.4644C12.4434 26.0291 12.1988 25.4387 12.1988 24.8231V24.7187C12.1898 24.3345 12.0655 23.962 11.8419 23.6494C11.6184 23.3369 11.306 23.0988 10.9454 22.9662C10.5953 22.8117 10.207 22.7656 9.83051 22.8339C9.45402 22.9021 9.10662 23.0816 8.83309 23.3492L8.76345 23.4188C8.54788 23.6346 8.29188 23.8058 8.01009 23.9226C7.72831 24.0395 7.42626 24.0996 7.12122 24.0996C6.81618 24.0996 6.51413 24.0395 6.23235 23.9226C5.95056 23.8058 5.69456 23.6346 5.47899 23.4188C5.26317 23.2032 5.09196 22.9472 4.97515 22.6655C4.85834 22.3837 4.79821 22.0816 4.79821 21.7766C4.79821 21.4715 4.85834 21.1695 4.97515 20.8877C5.09196 20.6059 5.26317 20.3499 5.47899 20.1343L5.54862 20.0647C5.81618 19.7912 5.99566 19.4438 6.06393 19.0673C6.13219 18.6908 6.08611 18.3025 5.93162 17.9524C5.7845 17.6092 5.54021 17.3164 5.22884 17.1102C4.91746 16.904 4.55259 16.7933 4.17912 16.7918H3.98182C3.36621 16.7918 2.77581 16.5473 2.3405 16.112C1.9052 15.6767 1.66064 15.0863 1.66064 14.4707C1.66064 13.855 1.9052 13.2646 2.3405 12.8293C2.77581 12.394 3.36621 12.1495 3.98182 12.1495H4.08628C4.47043 12.1405 4.84299 12.0162 5.15553 11.7926C5.46807 11.5691 5.70613 11.2567 5.83877 10.896C5.99326 10.546 6.03935 10.1577 5.97108 9.7812C5.90282 9.40471 5.72333 9.0573 5.45577 8.78377L5.38614 8.71414C5.17032 8.49856 4.99912 8.24256 4.8823 7.96078C4.76549 7.67899 4.70537 7.37694 4.70537 7.0719C4.70537 6.76686 4.76549 6.46482 4.8823 6.18303C4.99912 5.90124 5.17032 5.64524 5.38614 5.42967C5.60171 5.21385 5.85771 5.04265 6.1395 4.92583C6.42129 4.80902 6.72333 4.7489 7.02837 4.7489C7.33341 4.7489 7.63546 4.80902 7.91725 4.92583C8.19903 5.04265 8.45503 5.21385 8.67061 5.42967L8.74024 5.4993C9.01377 5.76686 9.36118 5.94635 9.73767 6.01461C10.1142 6.08288 10.5025 6.03679 10.8525 5.8823H10.9454C11.2886 5.73518 11.5814 5.4909 11.7876 5.17952C11.9938 4.86815 12.1045 4.50327 12.106 4.12981V3.93251C12.106 3.31689 12.3505 2.72649 12.7858 2.29119C13.2211 1.85588 13.8115 1.61133 14.4271 1.61133C15.0427 1.61133 15.6331 1.85588 16.0685 2.29119C16.5038 2.72649 16.7483 3.31689 16.7483 3.93251V4.03696C16.7498 4.41042 16.8605 4.7753 17.0667 5.08667C17.2729 5.39805 17.5656 5.64233 17.9089 5.78945C18.259 5.94394 18.6473 5.99003 19.0238 5.92176C19.4002 5.8535 19.7476 5.67402 20.0212 5.40646L20.0908 5.33682C20.3064 5.12101 20.5624 4.9498 20.8442 4.83299C21.126 4.71618 21.428 4.65605 21.733 4.65605C22.0381 4.65605 22.3401 4.71618 22.6219 4.83299C22.9037 4.9498 23.1597 5.12101 23.3753 5.33682C23.5911 5.5524 23.7623 5.8084 23.8791 6.09018C23.9959 6.37197 24.0561 6.67402 24.0561 6.97906C24.0561 7.2841 23.9959 7.58614 23.8791 7.86793C23.7623 8.14972 23.5911 8.40572 23.3753 8.62129L23.3056 8.69093C23.0381 8.96445 22.8586 9.31186 22.7903 9.68835C22.7221 10.0648 22.7682 10.4531 22.9227 10.8032V10.896C23.0698 11.2393 23.3141 11.5321 23.6254 11.7383C23.9368 11.9445 24.3017 12.0551 24.6751 12.0566H24.8724C25.4881 12.0566 26.0785 12.3012 26.5138 12.7365C26.9491 13.1718 27.1936 13.7622 27.1936 14.3778C27.1936 14.9934 26.9491 15.5838 26.5138 16.0191C26.0785 16.4544 25.4881 16.699 24.8724 16.699H24.768C24.3945 16.7005 24.0297 16.8111 23.7183 17.0174C23.4069 17.2236 23.1626 17.5163 23.0155 17.8596Z" stroke="#707070" stroke-width="1.5" stroke-linecap="round" stroke-linejoin="round"/>
</svg>
