<svg width="28" height="28" viewBox="0 0 28 28" fill="none" xmlns="http://www.w3.org/2000/svg">
<path d="M13.7665 17.2483C15.6894 17.2483 17.2483 15.6894 17.2483 13.7665C17.2483 11.8436 15.6894 10.2847 13.7665 10.2847C11.8436 10.2847 10.2847 11.8436 10.2847 13.7665C10.2847 15.6894 11.8436 17.2483 13.7665 17.2483Z" stroke="#707070" stroke-width="1.5" stroke-linecap="round" stroke-linejoin="round"/>
<path d="M22.3549 17.2483C22.2004 17.5983 22.1543 17.9866 22.2225 18.3631C22.2908 18.7396 22.4703 19.087 22.7378 19.3605L22.8075 19.4302C23.0233 19.6457 23.1945 19.9017 23.3113 20.1835C23.4281 20.4653 23.4883 20.7674 23.4883 21.0724C23.4883 21.3774 23.4281 21.6795 23.3113 21.9613C23.1945 22.2431 23.0233 22.4991 22.8075 22.7146C22.5919 22.9305 22.3359 23.1017 22.0541 23.2185C21.7723 23.3353 21.4703 23.3954 21.1652 23.3954C20.8602 23.3954 20.5582 23.3353 20.2764 23.2185C19.9946 23.1017 19.7386 22.9305 19.523 22.7146L19.4534 22.645C19.1799 22.3774 18.8324 22.198 18.456 22.1297C18.0795 22.0614 17.6912 22.1075 17.3411 22.262C16.9978 22.4091 16.7051 22.6534 16.4989 22.9648C16.2927 23.2762 16.182 23.641 16.1805 24.0145V24.2118C16.1805 24.8274 15.936 25.4178 15.5007 25.8531C15.0654 26.2884 14.475 26.533 13.8593 26.533C13.2437 26.533 12.6533 26.2884 12.218 25.8531C11.7827 25.4178 11.5382 24.8274 11.5382 24.2118V24.1073C11.5292 23.7232 11.4048 23.3506 11.1813 23.0381C10.9577 22.7256 10.6454 22.4875 10.2847 22.3549C9.93467 22.2004 9.54636 22.1543 9.16987 22.2225C8.79338 22.2908 8.44597 22.4703 8.17244 22.7378L8.10281 22.8075C7.88723 23.0233 7.63124 23.1945 7.34945 23.3113C7.06766 23.4281 6.76561 23.4883 6.46058 23.4883C6.15554 23.4883 5.85349 23.4281 5.5717 23.3113C5.28992 23.1945 5.03392 23.0233 4.81834 22.8075C4.60253 22.5919 4.43132 22.3359 4.31451 22.0541C4.19769 21.7723 4.13757 21.4703 4.13757 21.1652C4.13757 20.8602 4.19769 20.5582 4.31451 20.2764C4.43132 19.9946 4.60253 19.7386 4.81834 19.523L4.88798 19.4534C5.15553 19.1799 5.33502 18.8324 5.40328 18.456C5.47155 18.0795 5.42546 17.6912 5.27097 17.3411C5.12385 16.9978 4.87957 16.7051 4.56819 16.4989C4.25682 16.2927 3.89194 16.182 3.51848 16.1805H3.32118C2.70556 16.1805 2.11516 15.936 1.67986 15.5007C1.24455 15.0654 1 14.475 1 13.8593C1 13.2437 1.24455 12.6533 1.67986 12.218C2.11516 11.7827 2.70556 11.5382 3.32118 11.5382H3.42563C3.80978 11.5292 4.18234 11.4048 4.49488 11.1813C4.80742 10.9577 5.04549 10.6454 5.17812 10.2847C5.33262 9.93467 5.3787 9.54636 5.31044 9.16987C5.24217 8.79338 5.06269 8.44597 4.79513 8.17244L4.72549 8.10281C4.50968 7.88723 4.33847 7.63124 4.22166 7.34945C4.10485 7.06766 4.04472 6.76561 4.04472 6.46058C4.04472 6.15554 4.10485 5.85349 4.22166 5.5717C4.33847 5.28992 4.50968 5.03392 4.72549 4.81834C4.94107 4.60253 5.19707 4.43132 5.47885 4.31451C5.76064 4.19769 6.06269 4.13757 6.36773 4.13757C6.67277 4.13757 6.97481 4.19769 7.2566 4.31451C7.53839 4.43132 7.79439 4.60253 8.00996 4.81834L8.0796 4.88798C8.35312 5.15553 8.70053 5.33502 9.07702 5.40328C9.45351 5.47155 9.84182 5.42546 10.1919 5.27097H10.2847C10.628 5.12385 10.9207 4.87957 11.127 4.56819C11.3332 4.25682 11.4438 3.89194 11.4453 3.51848V3.32118C11.4453 2.70556 11.6899 2.11516 12.1252 1.67986C12.5605 1.24455 13.1509 1 13.7665 1C14.3821 1 14.9725 1.24455 15.4078 1.67986C15.8431 2.11516 16.0877 2.70556 16.0877 3.32118V3.42563C16.0892 3.79909 16.1998 4.16397 16.406 4.47535C16.6122 4.78672 16.905 5.031 17.2483 5.17812C17.5983 5.33262 17.9866 5.3787 18.3631 5.31044C18.7396 5.24217 19.087 5.06269 19.3605 4.79513L19.4302 4.72549C19.6457 4.50968 19.9017 4.33847 20.1835 4.22166C20.4653 4.10485 20.7674 4.04472 21.0724 4.04472C21.3774 4.04472 21.6795 4.10485 21.9613 4.22166C22.2431 4.33847 22.4991 4.50968 22.7146 4.72549C22.9305 4.94107 23.1017 5.19707 23.2185 5.47885C23.3353 5.76064 23.3954 6.06269 23.3954 6.36773C23.3954 6.67277 23.3353 6.97481 23.2185 7.2566C23.1017 7.53839 22.9305 7.79439 22.7146 8.00996L22.645 8.0796C22.3774 8.35312 22.198 8.70053 22.1297 9.07702C22.0614 9.45351 22.1075 9.84182 22.262 10.1919V10.2847C22.4091 10.628 22.6534 10.9207 22.9648 11.127C23.2762 11.3332 23.641 11.4438 24.0145 11.4453H24.2118C24.8274 11.4453 25.4178 11.6899 25.8531 12.1252C26.2884 12.5605 26.533 13.1509 26.533 13.7665C26.533 14.3821 26.2884 14.9725 25.8531 15.4078C25.4178 15.8431 24.8274 16.0877 24.2118 16.0877H24.1073C23.7339 16.0892 23.369 16.1998 23.0576 16.406C22.7463 16.6122 22.502 16.905 22.3549 17.2483Z" stroke="#707070" stroke-width="1.5" stroke-linecap="round" stroke-linejoin="round"/>
</svg>
