<svg width="27" height="20" viewBox="0 0 27 20" fill="none" xmlns="http://www.w3.org/2000/svg">
    <g clip-path="url(#clip0_190_1538)">
        <path
            d="M27 3.57176V11.0425C27 11.9869 26.6282 12.9032 25.959 13.5671L20.6055 18.9528C19.9363 19.626 19.0348 20 18.096 20H3.55043C1.58933 20 0 18.4011 0 16.4282V3.57176C0 1.59888 1.58933 0 3.55043 0H23.4403C25.4107 0 27 1.59888 27 3.57176Z"
            fill="#B2BEC3" />
        <path
            d="M5.75318 0H3.55043C1.58933 0 0 1.59888 0 3.57176V16.4282C0 18.4011 1.58933 20 3.55043 20H5.74389C3.78279 20 2.19346 18.4011 2.19346 16.4282V3.57176C2.19346 1.59888 3.79208 0 5.75318 0Z"
            fill="#85979F" />
        <path
            d="M16.7391 13.8663V6.1337C16.7391 4.87143 15.726 3.85226 14.4713 3.85226H6.10637C4.85164 3.85226 3.83856 4.87143 3.83856 6.1337V13.8663C3.83856 15.1286 4.85164 16.1477 6.10637 16.1477H14.4713C15.7167 16.1477 16.7391 15.1286 16.7391 13.8663Z"
            fill="white" />
        <path
            d="M14.4712 16.877H6.10634C4.46125 16.877 3.12286 15.5306 3.12286 13.8756V6.1337C3.12286 4.47872 4.46125 3.13229 6.10634 3.13229H14.4712C16.1163 3.13229 17.4547 4.47872 17.4547 6.1337V13.8663C17.4547 15.5213 16.1163 16.877 14.4712 16.877ZM14.4712 4.57222H6.10634C5.25126 4.57222 4.55419 5.27348 4.55419 6.1337V7.25572H8.05815C8.45781 7.25572 8.77381 7.58297 8.77381 7.97568C8.77381 8.36839 8.44851 8.69564 8.05815 8.69564H4.5449V11.2856H8.04886C8.44851 11.2856 8.76452 11.6129 8.76452 12.0056C8.76452 12.4077 8.43922 12.7256 8.04886 12.7256H4.5449V13.8569C4.5449 14.7171 5.24197 15.4184 6.09705 15.4184H14.4619C15.317 15.4184 16.0141 14.7171 16.0141 13.8569V12.7349H12.4451C12.0454 12.7349 11.7294 12.4077 11.7294 12.0149C11.7294 11.6222 12.0547 11.295 12.4451 11.295H16.0141V8.70499H12.4451C12.0454 8.70499 11.7294 8.37774 11.7294 7.98503C11.7294 7.59232 12.0547 7.26507 12.4451 7.26507H16.0141V6.14305C16.0141 5.27348 15.317 4.57222 14.4712 4.57222Z"
            fill="#85979F" />
    </g>
    <defs>
        <clipPath id="clip0_190_1538">
            <rect width="27" height="20" fill="white" />
        </clipPath>
    </defs>
</svg>