<svg width="27" height="20" viewBox="0 0 27 20" fill="none" xmlns="http://www.w3.org/2000/svg">
    <path
        d="M27 3.57176V11.0425C27 11.9869 26.6282 12.9032 25.959 13.5671L20.6055 18.9528C19.9363 19.626 19.0348 20 18.096 20H3.55043C1.58933 20 0 18.4011 0 16.4282V3.57176C0 1.59888 1.58933 0 3.55043 0H23.4403C25.4107 0 27 1.59888 27 3.57176Z"
        fill="#F14D58" />
    <path
        d="M5.75318 0H3.55043C1.58933 0 0 1.59888 0 3.57176V16.4282C0 18.4011 1.58933 20 3.55043 20H5.74389C3.78279 20 2.19346 18.4011 2.19346 16.4282V3.57176C2.19346 1.59888 3.79208 0 5.75318 0Z"
        fill="#EF3743" />
    <path
        d="M16.7391 13.8663V6.13374C16.7391 4.87146 15.726 3.85229 14.4713 3.85229H6.10637C4.85164 3.85229 3.83856 4.87146 3.83856 6.13374V13.8663C3.83856 15.1286 4.85164 16.1478 6.10637 16.1478H14.4713C15.7167 16.1478 16.7391 15.1286 16.7391 13.8663Z"
        fill="white" />
    <path
        d="M14.4713 16.8771H6.10637C4.46128 16.8771 3.12289 15.5306 3.12289 13.8757V6.13373C3.12289 4.47875 4.46128 3.13232 6.10637 3.13232H14.4713C16.1164 3.13232 17.4547 4.47875 17.4547 6.13373V13.8663C17.4547 15.5213 16.1164 16.8771 14.4713 16.8771ZM14.4713 4.57225H6.10637C5.25129 4.57225 4.55422 5.27351 4.55422 6.13373V7.25575H8.05818C8.45784 7.25575 8.77384 7.583 8.77384 7.97571C8.77384 8.36842 8.44854 8.69567 8.05818 8.69567H4.54493V11.2857H8.04889C8.44854 11.2857 8.76455 11.6129 8.76455 12.0056C8.76455 12.4077 8.43925 12.7256 8.04889 12.7256H4.54493V13.857C4.54493 14.7172 5.242 15.4184 6.09708 15.4184H14.462C15.317 15.4184 16.0141 14.7172 16.0141 13.857V12.7349H12.4451C12.0454 12.7349 11.7294 12.4077 11.7294 12.015C11.7294 11.6223 12.0547 11.295 12.4451 11.295H16.0141V8.70502H12.4451C12.0454 8.70502 11.7294 8.37777 11.7294 7.98506C11.7294 7.59235 12.0547 7.2651 12.4451 7.2651H16.0141V6.14308C16.0141 5.27351 15.317 4.57225 14.4713 4.57225Z"
        fill="#FFD15B" />
</svg>