<svg width="38" height="38" viewBox="0 0 38 38" fill="none" xmlns="http://www.w3.org/2000/svg">
    <rect width="38" height="38" rx="7" fill="white" fill-opacity="0.15" />
    <g clip-path="url(#clip0_190_1586)">
        <path
            d="M31 14.2146V20.9383C31 21.7882 30.6695 22.6129 30.0747 23.2104L25.316 28.0575C24.7212 28.6634 23.9198 29 23.0854 29H10.1559C8.41274 29 7 27.561 7 25.7854V14.2146C7 12.439 8.41274 11 10.1559 11H27.8358C29.5873 11 31 12.439 31 14.2146Z"
            fill="#D2111E" />
        <path
            d="M12.1139 11H10.1559C8.41274 11 7 12.439 7 14.2146V25.7854C7 27.561 8.41274 29 10.1559 29H12.1057C10.3625 29 8.94974 27.561 8.94974 25.7854V14.2146C8.94974 12.439 10.3707 11 12.1139 11Z"
            fill="#9E0D16" />
        <path
            d="M21.8792 23.4797V16.5203C21.8792 15.3843 20.9787 14.467 19.8633 14.467H12.4279C11.3126 14.467 10.412 15.3843 10.412 16.5203V23.4797C10.412 24.6157 11.3126 25.533 12.4279 25.533H19.8633C20.9704 25.533 21.8792 24.6157 21.8792 23.4797Z"
            fill="white" />
        <path
            d="M19.8633 26.1893H12.4279C10.9656 26.1893 9.77588 24.9775 9.77588 23.4881V16.5203C9.77588 15.0308 10.9656 13.8191 12.4279 13.8191H19.8633C21.3256 13.8191 22.5153 15.0308 22.5153 16.5203V23.4796C22.5153 24.9691 21.3256 26.1893 19.8633 26.1893ZM19.8633 15.115H12.4279C11.6678 15.115 11.0482 15.7461 11.0482 16.5203V17.5301H14.1628C14.518 17.5301 14.7989 17.8247 14.7989 18.1781C14.7989 18.5315 14.5098 18.8261 14.1628 18.8261H11.0399V21.1571H14.1545C14.5098 21.1571 14.7907 21.4516 14.7907 21.805C14.7907 22.1669 14.5015 22.453 14.1545 22.453H11.0399V23.4712C11.0399 24.2454 11.6595 24.8766 12.4196 24.8766H19.8551C20.6151 24.8766 21.2347 24.2454 21.2347 23.4712V22.4614H18.0623C17.707 22.4614 17.4261 22.1669 17.4261 21.8135C17.4261 21.46 17.7153 21.1655 18.0623 21.1655H21.2347V18.8345H18.0623C17.707 18.8345 17.4261 18.54 17.4261 18.1865C17.4261 17.8331 17.7153 17.5386 18.0623 17.5386H21.2347V16.5287C21.2347 15.7461 20.6151 15.115 19.8633 15.115Z"
            fill="#8B8B8B" />
    </g>
    <defs>
        <clipPath id="clip0_190_1586">
            <rect width="24" height="18" fill="white" transform="translate(7 11)" />
        </clipPath>
    </defs>
</svg>