<svg width="20" height="20" viewBox="0 0 20 20" fill="none" xmlns="http://www.w3.org/2000/svg">
    <g clip-path="url(#clip0_190_1241)">
        <path
            d="M19.4401 7.25371L13.3223 6.36477L10.5863 0.821055C10.347 0.336133 9.6532 0.335898 9.41371 0.821055L6.67777 6.36477L0.56 7.25371C0.0249615 7.33148 -0.189921 7.99117 0.197657 8.36891L4.62449 12.6841L3.57941 18.7771C3.53731 19.0224 3.63813 19.2703 3.83953 19.4166C4.04086 19.5629 4.30773 19.5821 4.52805 19.4663L10 16.5896C15.9573 19.7215 15.5481 19.5415 15.7761 19.5415C16.1791 19.5415 16.4894 19.1782 16.4206 18.7771L15.3755 12.6841L19.8024 8.36891C20.1896 7.99145 19.9755 7.33156 19.4401 7.25371Z"
            fill="#F7AC16" />
        <path
            d="M10 0.456604C9.75066 0.456604 9.52363 0.598362 9.41367 0.821057L6.67773 6.36477L0.56 7.25371C0.0249615 7.33149 -0.189921 7.99117 0.197657 8.36891L4.62449 12.6841L3.57941 18.7771C3.53731 19.0224 3.63813 19.2703 3.83953 19.4166C4.04086 19.5629 4.30773 19.5822 4.52805 19.4663L10 16.5897H10V0.456604Z"
            fill="#F2D422" />
        <path
            d="M0.56 7.25373C0.0249615 7.3315 -0.189921 7.99119 0.197657 8.36893L4.62449 12.6841L3.57941 18.7771C3.53731 19.0224 3.63813 19.2703 3.83953 19.4166C4.04086 19.5629 4.30773 19.5822 4.52805 19.4663L10 16.5897C15.9573 19.7215 15.5481 19.5415 15.7761 19.5415C15.9117 19.5415 16.0466 19.4994 16.1605 19.4166L6.67773 6.36475L0.56 7.25373Z"
            fill="#F7AC16" />
        <path
            d="M6.97492 11.9314C2.23297 7.30914 2.4368 7.55687 2.37316 7.31715C2.34727 7.22086 2.34195 7.10883 2.37012 6.99066L0.56 7.25367C0.0249615 7.33144 -0.189921 7.99113 0.197657 8.36886L4.62449 12.684L3.57941 18.7771C3.53731 19.0224 3.63813 19.2703 3.83953 19.4166C4.04086 19.5628 4.30773 19.5821 4.52805 19.4663L6.13691 18.6205C5.97141 18.4714 5.89164 18.2471 5.92984 18.0245L6.97492 11.9314Z"
            fill="#F48B19" />
        <path
            d="M0.197658 8.3689L4.62449 12.6841L3.57942 18.7771C3.53731 19.0224 3.63813 19.2703 3.83953 19.4166C4.04086 19.5628 4.30774 19.5821 4.52805 19.4663L10 16.5896C15.9573 19.7215 15.5481 19.5415 15.7761 19.5415C16.1791 19.5415 16.4894 19.1782 16.4206 18.7771L15.3755 12.6841L0.0321505 7.69867C-0.0442948 7.97269 0.0322286 8.20773 0.197658 8.3689Z"
            fill="#F2D422" />
        <path
            d="M0.197658 8.3689L4.62449 12.6841L3.57942 18.7771C3.53731 19.0224 3.63813 19.2703 3.83953 19.4166C4.04086 19.5628 4.30774 19.5821 4.52805 19.4663L6.13692 18.6205C5.97141 18.4714 5.89164 18.2471 5.92985 18.0245L6.97492 11.9314L3.93281 8.96609L0.0321505 7.69867C-0.0442948 7.97269 0.0322286 8.20773 0.197658 8.3689Z"
            fill="#EFB616" />
        <path
            d="M3.57942 18.7771C3.53731 19.0224 3.63813 19.2703 3.83954 19.4166C4.04087 19.5629 4.30774 19.5822 4.52805 19.4663L10 16.5897C15.9573 19.7215 15.5481 19.5415 15.7761 19.5415C16.1791 19.5415 16.4894 19.1782 16.4206 18.7771L15.3756 12.6841L19.8024 8.36893C19.9806 8.19521 20.0447 7.93537 19.9679 7.69873L4.6245 12.6841L3.57942 18.7771Z"
            fill="#F7AC16" />
        <path
            d="M3.57942 18.7771C3.53731 19.0224 3.63813 19.2702 3.83954 19.4166C4.04087 19.5628 4.30774 19.5821 4.52805 19.4663L6.13692 18.6205C5.97141 18.4714 5.89165 18.247 5.92985 18.0245L6.97493 11.9314L6.96637 11.9231L4.6245 12.684L3.57942 18.7771Z"
            fill="#F48B19" />
        <path
            d="M4.52809 19.4663L10 16.5896C15.9573 19.7215 15.5481 19.5415 15.7761 19.5415C16.1791 19.5415 16.4894 19.1782 16.4206 18.7771L15.3756 12.684L19.8024 8.36889C20.1895 7.99143 19.9755 7.33154 19.44 7.25369L13.3223 6.36475L3.83954 19.4166C4.04087 19.5628 4.30774 19.5821 4.52809 19.4663Z"
            fill="#F2D422" />
        <path
            d="M19.9679 7.69867L10 10.9374L3.83954 19.4166C4.04087 19.5628 4.30774 19.5821 4.52805 19.4663L10 16.5896C15.9573 19.7215 15.5481 19.5415 15.7761 19.5415C16.1791 19.5415 16.4894 19.1782 16.4206 18.7771L15.3756 12.6841L19.8024 8.3689C19.9806 8.19515 20.0447 7.93535 19.9679 7.69867Z"
            fill="#F7AC16" />
        <path
            d="M15.3756 12.6841L10 10.9374L3.83954 19.4166C4.04087 19.5629 4.30774 19.5822 4.52805 19.4663L10 16.5897C15.9573 19.7215 15.5481 19.5415 15.7761 19.5415C16.1791 19.5415 16.4894 19.1782 16.4206 18.7771L15.3756 12.6841Z"
            fill="#F2D422" />
        <path
            d="M3.83954 19.4166C4.04087 19.5629 4.30774 19.5822 4.52805 19.4663L10 16.5897C15.9573 19.7215 15.5481 19.5415 15.7761 19.5415C15.9117 19.5415 16.0466 19.4994 16.1605 19.4166L10 10.9374L3.83954 19.4166Z"
            fill="#F7AC16" />
        <path
            d="M10 10.9375L10 10.9374L3.83954 19.4166C4.04087 19.5629 4.30774 19.5822 4.52805 19.4663L10 16.5897H10V10.9375Z"
            fill="#F2D422" />
        <path
            d="M6.26325 16.0807L3.83954 19.4166C4.04087 19.5629 4.30774 19.5822 4.52805 19.4664L6.13692 18.6205C5.97141 18.4715 5.89165 18.2471 5.92985 18.0245L6.26325 16.0807Z"
            fill="#EFB616" />
    </g>
    <defs>
        <clipPath id="clip0_190_1241">
            <rect width="20" height="20" fill="white" />
        </clipPath>
    </defs>
</svg>