<svg width="23" height="25" viewBox="0 0 23 25" fill="none" xmlns="http://www.w3.org/2000/svg">
<path d="M16.8359 9.45635L6.39062 3.43288M1.48133 6.62451L11.6133 12.4855L21.7452 6.62451M11.6133 24.1726V12.4739M22.0586 17.1162V7.83152C22.0582 7.42447 21.9507 7.02469 21.747 6.67228C21.5433 6.31987 21.2505 6.02722 20.898 5.8237L12.7739 1.18134C12.421 0.977614 12.0207 0.870361 11.6133 0.870361C11.2058 0.870361 10.8056 0.977614 10.4527 1.18134L2.32856 5.8237C1.97604 6.02722 1.68325 6.31987 1.47954 6.67228C1.27584 7.02469 1.16839 7.42447 1.16797 7.83152V17.1162C1.16839 17.5233 1.27584 17.9231 1.47954 18.2755C1.68325 18.6279 1.97604 18.9205 2.32856 19.1241L10.4527 23.7664C10.8056 23.9701 11.2058 24.0774 11.6133 24.0774C12.0207 24.0774 12.421 23.9701 12.7739 23.7664L20.898 19.1241C21.2505 18.9205 21.5433 18.6279 21.747 18.2755C21.9507 17.9231 22.0582 17.5233 22.0586 17.1162Z" stroke="#707070" stroke-width="1.5" stroke-linecap="round" stroke-linejoin="round"/>
</svg>
