<svg width="24" height="24" viewBox="0 0 24 24" fill="none" xmlns="http://www.w3.org/2000/svg">
    <g clip-path="url(#clip0_190_1355)">
        <path
            d="M11.9998 24C18.6271 24 23.9995 18.6275 23.9995 12.0003C23.9995 5.37297 18.6271 0.000488281 11.9998 0.000488281C5.37248 0.000488281 0 5.37297 0 12.0003C0 18.6275 5.37248 24 11.9998 24Z"
            fill="#D2111E" />
        <path
            d="M23.9925 12.4039C23.9972 12.2695 24 12.1351 24 11.9998C24 11.8644 23.9967 11.73 23.9925 11.5956H18.2696C18.2428 9.90245 18.0478 8.26708 17.7005 6.76987C19.2856 6.57908 20.804 6.3098 22.2157 5.96299C22.2612 5.95171 22.3031 5.93292 22.3402 5.90848C22.1992 5.66975 22.0502 5.43667 21.8938 5.20875C20.5183 5.54005 19.0413 5.79852 17.4994 5.98038C17.2344 5.025 16.904 4.13636 16.513 3.337C15.7771 1.83227 14.8767 0.749545 13.8833 0.147559C13.2695 0.0507529 12.6408 0 11.9998 0C11.3588 0 10.73 0.0507529 10.1163 0.147559C9.12283 0.749545 8.22243 1.83274 7.48652 3.337C7.09553 4.13636 6.76517 5.025 6.50013 5.98038C4.9578 5.79899 3.48127 5.54052 2.10577 5.20875C1.94835 5.43761 1.79891 5.67257 1.65699 5.91224C1.69129 5.93339 1.72983 5.94936 1.77118 5.9597C3.18662 6.30792 4.70968 6.57861 6.29947 6.76987C5.95218 8.26708 5.75716 9.90292 5.73038 11.5956H0.00751894C0.00328954 11.73 0 11.8644 0 11.9998C0 12.1351 0.0028196 12.2695 0.00751894 12.4039H5.73038C5.76186 14.3964 6.02643 16.3086 6.49825 18.0107C5.01467 18.1822 3.58701 18.4224 2.25192 18.7297C2.19882 18.7419 2.15042 18.7645 2.10859 18.7941C2.26931 19.0276 2.43802 19.2555 2.61471 19.4769C3.91267 19.186 5.2971 18.9585 6.73603 18.7969C6.95361 19.46 7.20456 20.0845 7.48746 20.6625C8.22338 22.1673 9.12377 23.25 10.1172 23.852C10.7309 23.9488 11.3597 23.9995 12.0007 23.9995C12.6417 23.9995 13.2705 23.9488 13.8842 23.852C14.8776 23.25 15.778 22.1668 16.514 20.6625C16.7969 20.0845 17.0478 19.4595 17.2654 18.7969C18.7038 18.9581 20.0883 19.186 21.3867 19.4769C21.5634 19.2555 21.7321 19.0276 21.8928 18.7941C21.851 18.764 21.8026 18.7419 21.7495 18.7297C20.4144 18.4228 18.9867 18.1822 17.5032 18.0107C17.975 16.3091 18.2391 14.3964 18.271 12.4039H23.9939H23.9925ZM11.5961 23.5634C10.339 23.3618 9.15009 22.2241 8.21304 20.3077C7.97008 19.811 7.75203 19.2767 7.55936 18.7118C8.87423 18.5892 10.2276 18.5215 11.5966 18.5102V23.5634H11.5961ZM11.5961 17.7019C10.1431 17.7137 8.70647 17.7889 7.31311 17.9242C6.83801 16.2616 6.57109 14.3762 6.53866 12.4039H11.5961V17.7019ZM11.5961 11.5956H6.53866C6.56592 9.92736 6.76141 8.32112 7.10822 6.85963C8.56361 7.00766 10.0688 7.08942 11.5961 7.10164V11.5956ZM11.5961 6.29336C10.1393 6.28161 8.70412 6.20595 7.31499 6.06873C7.5603 5.21063 7.86059 4.41174 8.21304 3.6918C9.15009 1.77588 10.3385 0.63817 11.5961 0.436569V6.29383V6.29336ZM12.4039 0.436099C13.661 0.6377 14.8499 1.77541 15.787 3.6918C16.1394 4.41221 16.4397 5.21063 16.685 6.06873C15.2959 6.20595 13.8602 6.28161 12.4039 6.29336V0.436569V0.436099ZM15.787 20.3073C14.8499 22.2236 13.661 23.3614 12.4039 23.563V18.5098C13.7728 18.521 15.1262 18.5887 16.4411 18.7114C16.2484 19.2762 16.0304 19.8105 15.7874 20.3073H15.787ZM16.6869 17.9238C15.2935 17.7884 13.8569 17.7132 12.4039 17.7015V12.4034H17.4613C17.4294 14.3758 17.162 16.2611 16.6869 17.9238ZM12.4039 11.5956V7.10164C13.9312 7.08942 15.4364 7.00766 16.8918 6.85963C17.2386 8.32112 17.4341 9.92736 17.4613 11.5956H12.4039Z"
            fill="white" />
        <path
            d="M11.9998 0C11.4946 0 10.9965 0.0314856 10.5077 0.0921071C16.4308 0.827084 21.0154 5.87793 21.0154 11.9998C21.0154 18.1216 16.4308 23.1724 10.5077 23.9074C10.9965 23.968 11.4946 23.9995 12.0002 23.9995C18.6277 23.9995 24.0005 18.6268 24.0005 11.9998C24.0005 5.37276 18.6272 0 11.9998 0Z"
            fill="#9E0D16" />
        <path
            d="M21.7481 18.7297C20.9492 18.546 20.1169 18.3867 19.2602 18.2513C19.1052 18.5051 18.9402 18.7523 18.7673 18.9934C19.67 19.1278 20.5465 19.289 21.3858 19.4769C21.4276 19.4243 21.4694 19.3712 21.5103 19.3176C21.5155 19.311 21.5202 19.3045 21.5253 19.2979C21.6517 19.1334 21.7739 18.9652 21.8919 18.7941C21.8501 18.7645 21.8017 18.742 21.7481 18.7297Z"
            fill="#CCC7C7" />
        <path
            d="M23.9925 11.5961H21.0079C21.0122 11.7305 21.0155 11.8649 21.0155 12.0003C21.0155 12.1356 21.0122 12.27 21.0079 12.4044H23.9925C23.9944 12.3485 23.9958 12.2921 23.9972 12.2362C23.9986 12.1577 24 12.0792 24 12.0003C24 11.9213 23.9986 11.8428 23.9972 11.7644C23.9958 11.708 23.9944 11.6521 23.9925 11.5961Z"
            fill="#CCC7C7" />
        <path
            d="M11.7136 0.00378381C11.6624 0.00519361 11.6116 0.00660342 11.5609 0.00848315C11.5359 0.00942302 11.511 0.0103629 11.4861 0.0113028C11.434 0.0136524 11.3813 0.0160021 11.3292 0.0188217C11.309 0.0197616 11.2883 0.0207014 11.2681 0.0221112C11.1962 0.0263406 11.1248 0.0315099 11.0533 0.0371491C11.0425 0.038089 11.0317 0.0390289 11.0204 0.0399687C10.9589 0.045138 10.8973 0.0503073 10.8362 0.0564164C10.816 0.0582962 10.7958 0.0606458 10.7751 0.0625256C10.7201 0.0681648 10.6656 0.073804 10.6111 0.0803831C10.5933 0.0822628 10.5754 0.0846125 10.558 0.0864922C10.542 0.0883719 10.5261 0.0907216 10.5096 0.0926013C11.1586 0.17343 11.7911 0.305481 12.4039 0.485466V0.436123C12.7893 0.497684 13.1685 0.648063 13.5355 0.881151C14.3443 1.2101 15.1089 1.62459 15.818 2.11332C15.2357 1.23313 14.5825 0.570524 13.8833 0.146644C13.8222 0.137245 13.7611 0.128316 13.7 0.119388C13.6737 0.115628 13.6474 0.111869 13.6206 0.108109C13.5632 0.10059 13.5064 0.0930713 13.4491 0.0860223C13.4171 0.0822628 13.3847 0.0785033 13.3522 0.0752138C13.2982 0.0691046 13.2437 0.0629955 13.1892 0.0573563C13.1093 0.0493674 13.0299 0.0423184 12.9495 0.0362093C12.9105 0.0329197 12.871 0.0305701 12.832 0.0282204C12.7775 0.0244609 12.7225 0.0207014 12.668 0.0178818C12.6304 0.0160021 12.5928 0.0141224 12.5557 0.0122426C12.4951 0.00942302 12.434 0.00707335 12.3734 0.00519361C12.3419 0.00425375 12.3104 0.00331388 12.2789 0.00237401C12.1863 2.43406e-05 12.0933 -0.000915527 12.0002 -0.000915527C11.9274 -0.000915527 11.8546 2.43406e-05 11.7817 0.00143414C11.7592 0.00143414 11.7366 0.00237401 11.7141 0.00284394L11.7136 0.00378381Z"
            fill="#CCC7C7" />
        <path
            d="M19.6747 6.48465C20.5516 6.33662 21.4017 6.16321 22.2157 5.96349C22.2612 5.95221 22.3031 5.93342 22.3402 5.90898C22.2349 5.73087 22.1254 5.55559 22.0112 5.38359C22.0103 5.38265 22.0098 5.38124 22.0089 5.3803C21.9708 5.32297 21.9328 5.26611 21.8938 5.20972C21.0488 5.4132 20.1653 5.58895 19.2523 5.73651C19.4017 5.98041 19.5422 6.23041 19.6747 6.48512V6.48465Z"
            fill="#CCC7C7" />
        <path
            d="M12.3729 23.9939C12.434 23.992 12.4946 23.9897 12.5552 23.9869C12.5928 23.985 12.6304 23.9836 12.6675 23.9812C12.7225 23.9784 12.777 23.9747 12.8316 23.9709C12.8706 23.9681 12.91 23.9657 12.949 23.9629C13.0289 23.9568 13.1088 23.9493 13.1887 23.9418C13.2432 23.9366 13.2977 23.93 13.3518 23.9239C13.3842 23.9201 13.4162 23.9169 13.4486 23.9131C13.5059 23.906 13.5632 23.899 13.6201 23.891C13.6469 23.8873 13.6732 23.8835 13.7 23.8797C13.7611 23.8713 13.8222 23.8623 13.8828 23.8525C14.5821 23.4286 15.2353 22.766 15.8175 21.8858C15.1079 22.375 14.3433 22.789 13.535 23.118C13.1676 23.3511 12.7888 23.5014 12.4034 23.563V23.5141C11.7911 23.6941 11.1581 23.8266 10.5091 23.907C10.5251 23.9089 10.5411 23.9112 10.5575 23.9131C10.5754 23.9154 10.5933 23.9173 10.6106 23.9192C10.6652 23.9253 10.7197 23.9314 10.7747 23.9371C10.7953 23.9389 10.8155 23.9413 10.8362 23.9432C10.8973 23.9493 10.9589 23.9545 11.0204 23.9596C11.0312 23.9606 11.042 23.9615 11.0533 23.9624C11.1248 23.9681 11.1962 23.9728 11.2681 23.9775C11.2883 23.9789 11.309 23.9798 11.3292 23.9808C11.3813 23.9836 11.4335 23.9864 11.4861 23.9888C11.511 23.9897 11.5359 23.9906 11.5609 23.9916C11.6116 23.9935 11.6624 23.9949 11.7136 23.9963C11.7361 23.9967 11.7587 23.9972 11.7813 23.9977C11.8541 23.9991 11.9269 24 11.9998 24C12.0928 24 12.1859 23.9986 12.2784 23.9963C12.3099 23.9953 12.3414 23.9944 12.3729 23.9935V23.9939Z"
            fill="#CCC7C7" />
    </g>
    <defs>
        <clipPath id="clip0_190_1355">
            <rect width="24" height="24" fill="white" />
        </clipPath>
    </defs>
</svg>