<svg width="18" height="20" viewBox="0 0 18 20" fill="none" xmlns="http://www.w3.org/2000/svg">
    <path fill-rule="evenodd" clip-rule="evenodd"
        d="M16.1042 4.5C16.1042 4.1205 15.7962 3.8125 15.4167 3.8125H2.58334C2.20384 3.8125 1.89584 4.1205 1.89584 4.5V16.875C1.89584 17.6652 2.20934 18.4232 2.7685 18.9815C3.32675 19.5407 4.08484 19.8542 4.875 19.8542H13.125C13.9152 19.8542 14.6733 19.5407 15.2315 18.9815C15.7907 18.4232 16.1042 17.6652 16.1042 16.875C16.1042 12.75 16.1042 4.5 16.1042 4.5ZM14.7292 5.1875V16.875C14.7292 17.3003 14.5605 17.7082 14.2589 18.0089C13.9583 18.3105 13.5503 18.4792 13.125 18.4792C10.7948 18.4792 7.20517 18.4792 4.875 18.4792C4.44967 18.4792 4.04175 18.3105 3.74109 18.0089C3.4395 17.7082 3.27084 17.3003 3.27084 16.875V5.1875H14.7292Z"
        fill="white" />
    <path fill-rule="evenodd" clip-rule="evenodd"
        d="M13.125 5.18754C13.5045 5.18754 13.8125 4.87954 13.8125 4.50004C13.8125 4.50004 13.8125 3.58337 13.8125 2.66671C13.8125 1.99846 13.5467 1.35679 13.0746 0.883791C12.6016 0.411707 11.9599 0.145874 11.2917 0.145874C9.92767 0.145874 8.07233 0.145874 6.70833 0.145874C6.04008 0.145874 5.39842 0.411707 4.92542 0.883791C4.45333 1.35679 4.1875 1.99846 4.1875 2.66671V4.50004C4.1875 4.87954 4.4955 5.18754 4.875 5.18754H13.125ZM12.4375 3.81254H5.5625V2.66671C5.5625 2.36237 5.6835 2.07179 5.898 1.85637C6.11342 1.64187 6.404 1.52087 6.70833 1.52087H11.2917C11.596 1.52087 11.8866 1.64187 12.102 1.85637C12.3165 2.07179 12.4375 2.36237 12.4375 2.66671V3.81254Z"
        fill="white" />
    <path fill-rule="evenodd" clip-rule="evenodd"
        d="M16.3333 3.8125H1.66667C1.28717 3.8125 0.979168 4.1205 0.979168 4.5C0.979168 4.8795 1.28717 5.1875 1.66667 5.1875H16.3333C16.7128 5.1875 17.0208 4.8795 17.0208 4.5C17.0208 4.1205 16.7128 3.8125 16.3333 3.8125Z"
        fill="white" />
    <path fill-rule="evenodd" clip-rule="evenodd"
        d="M6.02084 8.625V15.0417C6.02084 15.4212 6.32884 15.7292 6.70834 15.7292C7.08784 15.7292 7.39584 15.4212 7.39584 15.0417V8.625C7.39584 8.2455 7.08784 7.9375 6.70834 7.9375C6.32884 7.9375 6.02084 8.2455 6.02084 8.625Z"
        fill="white" />
    <path fill-rule="evenodd" clip-rule="evenodd"
        d="M10.6042 8.625V15.0417C10.6042 15.4212 10.9122 15.7292 11.2917 15.7292C11.6712 15.7292 11.9792 15.4212 11.9792 15.0417V8.625C11.9792 8.2455 11.6712 7.9375 11.2917 7.9375C10.9122 7.9375 10.6042 8.2455 10.6042 8.625Z"
        fill="white" />
</svg>