<svg width="37" height="37" viewBox="0 0 37 37" fill="none" xmlns="http://www.w3.org/2000/svg">
<path d="M32.1265 0.0765991C31.6928 0.250164 31.3675 0.503277 31.1434 0.857632L30.912 1.21199H24.3265C17.2349 1.21199 17.2422 1.21199 16.4036 1.59527C15.941 1.79776 6.01567 7.84352 5.63254 8.14725C5.49519 8.25573 5.28555 8.53777 5.16266 8.76919C4.8735 9.3405 4.86627 10.0347 5.1482 10.5844C5.50965 11.2931 6.26868 11.7704 7.02049 11.7704C7.17952 11.7704 7.75061 11.6257 8.30001 11.4449C8.8494 11.2641 9.31928 11.1195 9.3482 11.1195C9.36988 11.1195 9.26145 11.2858 9.09519 11.4956C8.15543 12.6888 7.34579 14.5329 6.98434 16.2902C6.75302 17.4328 6.76025 19.6385 6.99157 20.7233C7.12892 21.338 7.41085 22.336 7.56266 22.741C7.59157 22.8133 7.43977 22.835 6.83254 22.835H6.06627L5.92892 22.5602C5.7482 22.2058 5.45181 21.9382 5.05422 21.7574C4.75784 21.62 4.58435 21.6056 3.05904 21.6056C1.41085 21.6056 1.38917 21.6056 1.02049 21.7936C0.810853 21.8948 0.550612 22.0973 0.427721 22.242C-0.0277006 22.7916 -0.0132427 22.5457 0.008444 29.4231L0.0301307 35.6714L0.189167 35.9606C0.36989 36.3005 0.724106 36.6477 1.07832 36.8357C1.29519 36.9586 1.54097 36.9731 2.9217 36.9948C3.98435 37.0092 4.60603 36.9948 4.79398 36.9369C5.22772 36.8068 5.61085 36.5175 5.86386 36.1342L6.08796 35.7798H12.6735C19.7723 35.7798 19.794 35.7726 20.6181 35.3966C20.8277 35.3025 22.4759 34.319 24.2831 33.2126C26.0904 32.1061 28.3819 30.7104 29.3651 30.1101C30.3554 29.5099 31.2735 28.9314 31.4036 28.8157C31.541 28.7072 31.7361 28.4324 31.8518 28.2082C32.112 27.6586 32.1265 26.9499 31.8807 26.4292C31.541 25.7349 30.7385 25.2215 29.9795 25.2215C29.8205 25.2215 29.2494 25.3661 28.7 25.5469C28.1506 25.7277 27.6807 25.8723 27.6518 25.8723C27.6301 25.8723 27.7385 25.706 27.9048 25.4963C28.8373 24.3103 29.6614 22.4517 30.0157 20.7016C30.247 19.5662 30.2398 17.3605 30.0084 16.2685C29.8711 15.6538 29.5892 14.6558 29.4373 14.2509C29.4084 14.1785 29.5602 14.1569 30.1675 14.1569H30.9337L31.0711 14.4244C31.2518 14.786 31.5482 15.0536 31.9458 15.2344C32.2422 15.3718 32.4157 15.3863 33.941 15.3863C35.5891 15.3863 35.6108 15.3863 35.9795 15.1982C36.1891 15.097 36.4494 14.8945 36.5723 14.7499C37.0277 14.2002 37.0132 14.4461 36.9916 7.56871L36.9699 1.32047L36.8108 1.03119C36.6301 0.691299 36.2759 0.344177 35.9217 0.156151C35.6976 0.0332108 35.4735 0.0187454 34.006 0.00428391C32.8422 -0.0101814 32.2783 0.0115166 32.1265 0.0765991ZM35.5675 1.42171L35.7771 1.63143V7.64826C35.7771 14.0267 35.7771 13.9833 35.4518 14.1135C35.3867 14.1352 34.6855 14.1569 33.8904 14.1569C32.4518 14.1569 32.4446 14.1569 32.2711 13.9761L32.0904 13.8025V7.69888C32.0904 2.93315 32.112 1.57358 32.1843 1.4868C32.3723 1.24815 32.5602 1.21922 33.9554 1.21199H35.3578L35.5675 1.42171ZM30.8614 7.68442V12.9275H30.153C28.9602 12.9275 28.2663 12.6743 26.8928 11.7414C25.2012 10.5844 24.7892 10.4687 22.1723 10.4687C20.4446 10.4687 20.2855 10.4542 19.8952 10.3096C19.0205 9.98412 18.3916 9.10185 18.5723 8.45099C18.6157 8.30635 18.6663 8.15449 18.7024 8.10386C18.7386 8.04601 19.4904 8.00985 21.4277 7.99539C23.6759 7.96646 24.1675 7.94477 24.5289 7.83629C25.2157 7.64103 25.7651 7.39515 26.2639 7.07695C26.9217 6.64305 27.0518 6.28146 26.6759 5.90541C26.394 5.62337 26.206 5.63783 25.6711 5.99219C24.5506 6.71536 24.1602 6.78045 20.9434 6.78045H18.3988L12.753 8.66071C9.65181 9.69485 7.0494 10.541 6.96989 10.541C6.7241 10.541 6.35543 10.2589 6.24699 9.99859C6.1241 9.72378 6.16748 9.42005 6.34097 9.18863C6.43495 9.07292 16.1 3.12841 16.8446 2.73066C17.3434 2.46309 17.5675 2.44862 24.3048 2.44862L30.8614 2.44139V7.68442ZM17.4518 9.52129C17.6759 10.2083 18.3193 10.9243 19.0639 11.3075C19.7289 11.6547 20.0614 11.6981 22.0133 11.6981C23.0108 11.6981 24.0012 11.7342 24.2181 11.7704C24.7819 11.8788 25.353 12.1681 26.4084 12.8913C26.9289 13.2384 27.4566 13.5711 27.5867 13.6217C27.8614 13.7374 28.0494 14.0773 28.3892 15.0319C28.8229 16.2685 28.9458 17.0134 28.9458 18.4959C28.9458 19.6313 28.9241 19.9495 28.7795 20.5859C28.3241 22.6036 27.3988 24.3609 26.0687 25.7349C25.0711 26.7691 25.1578 26.7257 22.3024 27.6803L19.7289 28.5336V28.295C19.7289 27.5356 19.1217 26.4798 18.3771 25.9446C17.5675 25.3661 17.4373 25.3444 14.9578 25.2938C12.3048 25.2432 12.3699 25.2576 10.6855 24.1584C10.0711 23.7534 9.47832 23.3846 9.36266 23.334C9.0229 23.1749 8.53856 22.0178 8.22049 20.5859C8.08314 19.9495 8.05422 19.6241 8.05422 18.4959C8.05422 17.0279 8.13374 16.5216 8.53856 15.2416C9.09519 13.4988 10.2157 11.7921 11.553 10.6422L12.088 10.1866L14.6614 9.32603L17.2349 8.46545L17.2783 8.80535C17.3072 8.99337 17.3795 9.31157 17.4518 9.52129ZM4.72892 23.0158L4.90965 23.1893V29.264C4.90965 32.6051 4.88796 35.3893 4.86627 35.4544C4.75784 35.7292 4.46868 35.7798 3.03013 35.7798H1.64218L1.43254 35.5701L1.2229 35.3604V29.3436C1.2229 24.1801 1.23736 23.305 1.33133 23.1242C1.38917 23.0158 1.47591 22.9073 1.52652 22.8856C1.57712 22.8639 2.27832 22.8422 3.08796 22.8422C4.55543 22.835 4.55543 22.835 4.72892 23.0158ZM7.98193 24.1729C8.62531 24.3392 9.18916 24.6285 10.1072 25.2504C11.7988 26.4075 12.2108 26.5232 14.8277 26.5232C16.541 26.5232 16.7217 26.5376 17.1048 26.675C17.6687 26.8848 18.2976 27.5067 18.4133 27.9768C18.4928 28.295 18.4494 28.6566 18.2976 28.888C18.2614 28.9458 17.5241 28.982 15.5723 28.9964C12.7096 29.0254 12.6301 29.0398 11.6181 29.4448C11.0036 29.6907 10.288 30.1825 10.1868 30.4211C10.0855 30.667 10.1506 30.949 10.3386 31.1226C10.5699 31.3323 10.9096 31.2817 11.3651 30.9852C11.5892 30.8333 11.9 30.6598 12.0446 30.5947C12.8036 30.2765 12.9482 30.262 15.9337 30.2186L18.8253 30.168L24.3482 28.3094C27.3916 27.2897 29.9434 26.4509 30.0301 26.4509C30.2904 26.4509 30.6735 26.7546 30.7675 27.0366C30.8614 27.3331 30.8253 27.5863 30.659 27.8032C30.5072 27.9912 20.4157 34.1527 19.9096 34.3624C19.5554 34.5143 19.447 34.5143 12.847 34.536L6.13856 34.5577V29.3074V24.0644H6.84699C7.25181 24.0644 7.74338 24.115 7.98193 24.1729Z" fill="url(#paint0_linear_10030_132)"/>
<path d="M15.2104 9.84649C13.967 10.3238 13.0056 10.9602 11.9863 11.9799C10.9237 13.0429 10.2731 14.0554 9.78873 15.386C9.3044 16.7384 9.13813 18.3727 9.34777 19.7829C9.50681 20.8388 9.9044 22.0899 10.1574 22.3068C10.4032 22.5238 10.7213 22.5238 10.9454 22.2924C11.1695 22.0754 11.1767 21.7789 10.9815 21.251C10.2514 19.3418 10.3454 17.0349 11.2345 15.1184C12.0803 13.2888 13.8369 11.6544 15.6442 11.0036C16.2586 10.7866 16.461 10.5118 16.3237 10.1068C16.2442 9.89711 15.9405 9.66569 15.7381 9.67292C15.6875 9.68015 15.449 9.75247 15.2104 9.84649Z" fill="url(#paint1_linear_10030_132)"/>
<path d="M18.0731 12.5226C17.9647 12.6383 17.8996 12.8264 17.8635 13.1446L17.8129 13.5929L17.2851 13.7303C16.2586 13.9907 15.449 14.5764 15.0442 15.343C14.8779 15.6612 14.849 15.7986 14.849 16.3265C14.849 16.8328 14.8779 17.0063 15.0297 17.3028C15.3984 18.0694 16.2153 18.6624 17.249 18.9372L17.849 19.0963V20.6077C17.849 21.8805 17.8345 22.1119 17.7406 22.1119C17.4876 22.1119 16.8225 21.7937 16.5261 21.5334C16.1936 21.2369 16.0851 21.0344 16.0129 20.586C15.9189 20.0437 15.3261 19.8629 14.9719 20.2678C14.8201 20.4486 14.7984 20.5282 14.8345 20.8825C14.9285 21.9745 15.8972 22.9147 17.2851 23.2618L17.8129 23.3992L17.8635 23.8476C17.9285 24.4116 18.1092 24.6431 18.4996 24.6431C18.89 24.6431 19.0779 24.4044 19.1285 23.8476C19.1502 23.6017 19.208 23.392 19.2514 23.3775C19.2948 23.3703 19.4972 23.3269 19.6924 23.2763C20.6321 23.0593 21.5647 22.3868 21.955 21.6491C22.1213 21.3309 22.1502 21.1935 22.1502 20.6656C22.1502 20.1594 22.1213 19.9858 21.9695 19.6893C21.6008 18.9227 20.7839 18.3297 19.7502 18.0549L19.1502 17.8958V16.3844C19.1502 15.1116 19.1647 14.8802 19.2586 14.8802C19.5117 14.8802 20.1767 15.1984 20.4731 15.4587C20.8056 15.7552 20.9141 15.9577 20.9863 16.4061C21.0803 16.9485 21.6731 17.1293 22.0273 16.7243C22.1791 16.5435 22.2008 16.4639 22.1647 16.1096C22.0707 15.0393 21.0153 14.0196 19.6924 13.7159C19.4972 13.6652 19.2948 13.6219 19.2514 13.6146C19.208 13.6002 19.1502 13.3904 19.1285 13.1446C19.0996 12.8191 19.049 12.6528 18.9261 12.5226C18.702 12.284 18.2972 12.284 18.0731 12.5226ZM17.849 16.3265C17.849 17.9898 17.8851 17.9175 17.1623 17.5921C16.649 17.3679 16.4104 17.1799 16.208 16.8472C16.0201 16.5363 15.9984 16.1891 16.1502 15.8999C16.302 15.5961 16.808 15.1911 17.2273 15.032C17.8924 14.7717 17.849 14.6849 17.849 16.3265ZM20.0177 19.4796C20.4297 19.6893 20.5815 19.8122 20.7478 20.0726C21.102 20.6294 21.008 21.0778 20.4442 21.5623C20.155 21.801 19.4972 22.1119 19.2586 22.1119C19.1647 22.1119 19.1502 21.8878 19.1502 20.6656V19.2192H19.3237C19.4177 19.2192 19.7285 19.3349 20.0177 19.4796Z" fill="url(#paint2_linear_10030_132)"/>
<path d="M26.0546 14.6992C25.816 14.9306 25.8233 15.162 26.0907 15.9575C26.3365 16.6879 26.5245 17.7871 26.5245 18.4958C26.5245 19.5734 26.163 21.1065 25.6859 22.0539C24.8112 23.804 23.0907 25.366 21.3558 25.988C20.9365 26.1326 20.7486 26.2772 20.6618 26.5086C20.5678 26.7618 20.7486 27.1306 21.0233 27.2463C21.2257 27.3258 21.3052 27.3186 21.7028 27.174C23.7919 26.4291 25.7365 24.679 26.7703 22.6324C27.3703 21.4392 27.7534 19.8193 27.7534 18.4886C27.7534 17.1435 27.2257 14.974 26.8353 14.663C26.5823 14.4677 26.2715 14.475 26.0546 14.6992Z" fill="url(#paint3_linear_10030_132)"/>
<defs>
<linearGradient id="paint0_linear_10030_132" x1="26.7231" y1="37" x2="21.8213" y2="-4.85765" gradientUnits="userSpaceOnUse">
<stop stop-color="#DC767D"/>
<stop offset="1" stop-color="#EC4D57"/>
</linearGradient>
<linearGradient id="paint1_linear_10030_132" x1="14.391" y1="22.4678" x2="11.4287" y2="8.41907" gradientUnits="userSpaceOnUse">
<stop stop-color="#DC767D"/>
<stop offset="1" stop-color="#EC4D57"/>
</linearGradient>
<linearGradient id="paint2_linear_10030_132" x1="20.1354" y1="24.6431" x2="17.4771" y2="11.0582" gradientUnits="userSpaceOnUse">
<stop stop-color="#DC767D"/>
<stop offset="1" stop-color="#EC4D57"/>
</linearGradient>
<linearGradient id="paint3_linear_10030_132" x1="25.7767" y1="27.2969" x2="22.8279" y2="13.268" gradientUnits="userSpaceOnUse">
<stop stop-color="#DC767D"/>
<stop offset="1" stop-color="#EC4D57"/>
</linearGradient>
</defs>
</svg>
