<svg width="19" height="19" viewBox="0 0 19 19" fill="none" xmlns="http://www.w3.org/2000/svg">
<path d="M8.27051 0.25H11.083C11.54 0.25 11.9268 0.636719 11.9268 1.09375V7H14.9854C15.6182 7 15.9346 7.77344 15.4775 8.23047L10.1338 13.5742C9.8877 13.8203 9.43066 13.8203 9.18457 13.5742L3.84082 8.23047C3.38379 7.77344 3.7002 7 4.33301 7H7.42676V1.09375C7.42676 0.636719 7.77832 0.25 8.27051 0.25ZM18.6768 13.4688V17.4062C18.6768 17.8984 18.29 18.25 17.833 18.25H1.52051C1.02832 18.25 0.676758 17.8984 0.676758 17.4062V13.4688C0.676758 13.0117 1.02832 12.625 1.52051 12.625H6.65332L8.37598 14.3477C9.0791 15.0859 10.2393 15.0859 10.9424 14.3477L12.665 12.625H17.833C18.29 12.625 18.6768 13.0117 18.6768 13.4688ZM14.3174 16.5625C14.3174 16.1758 14.001 15.8594 13.6143 15.8594C13.2275 15.8594 12.9111 16.1758 12.9111 16.5625C12.9111 16.9492 13.2275 17.2656 13.6143 17.2656C14.001 17.2656 14.3174 16.9492 14.3174 16.5625ZM16.5674 16.5625C16.5674 16.1758 16.251 15.8594 15.8643 15.8594C15.4775 15.8594 15.1611 16.1758 15.1611 16.5625C15.1611 16.9492 15.4775 17.2656 15.8643 17.2656C16.251 17.2656 16.5674 16.9492 16.5674 16.5625Z" fill="#EF3328"/>
</svg>
