<svg width="33" height="34" viewBox="0 0 33 34" fill="none" xmlns="http://www.w3.org/2000/svg">
<mask id="mask0_159_8763" style="mask-type:alpha" maskUnits="userSpaceOnUse" x="0" y="0" width="33" height="34">
<rect y="0.5" width="32.5828" height="32.5828" fill="#D9D9D9"/>
</mask>
<g mask="url(#mask0_159_8763)">
<path d="M2.71582 10.0034V3.21533H9.50389V5.93056H5.43105V10.0034H2.71582ZM2.71582 30.3676V23.5796H5.43105V27.6524H9.50389V30.3676H2.71582ZM23.08 30.3676V27.6524H27.1529V23.5796H29.8681V30.3676H23.08ZM27.1529 10.0034V5.93056H23.08V3.21533H29.8681V10.0034H27.1529ZM23.7588 24.2584H25.7953V26.2948H23.7588V24.2584ZM23.7588 20.1855H25.7953V22.2219H23.7588V20.1855ZM21.7224 22.2219H23.7588V24.2584H21.7224V22.2219ZM19.686 24.2584H21.7224V26.2948H19.686V24.2584ZM17.6496 22.2219H19.686V24.2584H17.6496V22.2219ZM21.7224 18.1491H23.7588V20.1855H21.7224V18.1491ZM19.686 20.1855H21.7224V22.2219H19.686V20.1855ZM17.6496 18.1491H19.686V20.1855H17.6496V18.1491ZM25.7953 7.28818V15.4339H17.6496V7.28818H25.7953ZM14.9344 18.1491V26.2948H6.78866V18.1491H14.9344ZM14.9344 7.28818V15.4339H6.78866V7.28818H14.9344ZM12.8979 24.2584V20.1855H8.82509V24.2584H12.8979ZM12.8979 13.3974V9.3246H8.82509V13.3974H12.8979ZM23.7588 13.3974V9.3246H19.686V13.3974H23.7588Z" fill="#292929"/>
</g>
</svg>
