<svg width="19" height="22" viewBox="0 0 19 22" fill="none" xmlns="http://www.w3.org/2000/svg">
<path d="M0.875 5.55269H2.79167M2.79167 5.55269H18.125M2.79167 5.55269V18.9694C2.79167 19.4777 2.9936 19.9652 3.35305 20.3246C3.71249 20.6841 4.2 20.886 4.70833 20.886H14.2917C14.8 20.886 15.2875 20.6841 15.647 20.3246C16.0064 19.9652 16.2083 19.4777 16.2083 18.9694V5.55269H2.79167ZM5.66667 5.55269V3.63603C5.66667 3.1277 5.8686 2.64018 6.22805 2.28074C6.58749 1.92129 7.075 1.71936 7.58333 1.71936H11.4167C11.925 1.71936 12.4125 1.92129 12.772 2.28074C13.1314 2.64018 13.3333 3.1277 13.3333 3.63603V5.55269M7.58333 10.3444V16.0944M11.4167 10.3444V16.0944" stroke="#EF3328" stroke-width="1.5" stroke-linecap="round" stroke-linejoin="round"/>
</svg>
